STARTFONT 2.1
COMMENT
COMMENT Converted from OpenType font "arialbd.ttf" by "otf2bdf 3.0".
COMMENT
FONT -FreeType-Arial-Bold-R-Normal--30-220-100-100-P-160-ISO10646-1
SIZE 22 100 100
FONTBOUNDINGBOX 55 44 -15 -12
STARTPROPERTIES 19
FOUNDRY "FreeType"
FAMILY_NAME "Arial"
WEIGHT_NAME "Bold"
SLANT "R"
SETWIDTH_NAME "Normal"
ADD_STYLE_NAME ""
PIXEL_SIZE 30
POINT_SIZE 220
RESOLUTION_X 100
RESOLUTION_Y 100
SPACING "P"
AVERAGE_WIDTH 160
CHARSET_REGISTRY "ISO10646"
CHARSET_ENCODING "1"
FONT_ASCENT 28
FONT_DESCENT 6
COPYRIGHT "© 2010 The Monotype Corporation. All Rights Reserved."
_OTF_FONTFILE "arialbd.ttf"
_OTF_PSNAME "Arial-BoldMT"
ENDPROPERTIES
CHARS 2815
STARTCHAR 0020
ENCODING 32
SWIDTH 294 0
DWIDTH 9 0
BBX 0 0 0 0
BITMAP
ENDCHAR
STARTCHAR 0021
ENCODING 33
SWIDTH 327 0
DWIDTH 10 0
BBX 4 22 3 0
BITMAP
F0
F0
F0
F0
F0
F0
F0
F0
F0
F0
F0
F0
70
70
60
60
00
00
F0
F0
F0
F0
ENDCHAR
STARTCHAR 0022
ENCODING 34
SWIDTH 490 0
DWIDTH 15 0
BBX 11 8 2 14
BITMAP
F1E0
F1E0
F1E0
F1E0
F1E0
F1E0
F1E0
F1E0
ENDCHAR
STARTCHAR 0023
ENCODING 35
SWIDTH 556 0
DWIDTH 17 0
BBX 17 22 0 0
BITMAP
038F00
078F00
078E00
070E00
070E00
071E00
FFFF80
FFFF80
FFFF80
0E1C00
0E3C00
1E3C00
1E3800
FFFF80
FFFF80
FFFF80
3C7800
3C7000
387000
38F000
78F000
78E000
ENDCHAR
STARTCHAR 0024
ENCODING 36
SWIDTH 556 0
DWIDTH 17 0
BBX 15 27 1 -3
BITMAP
0380
0380
0FC0
1FF0
3FF8
7FF8
7BFC
7BBC
7380
7B80
7F80
3FC0
3FF0
0FF8
03FC
03BE
039E
F39E
FB9E
7FBE
7FFC
3FF8
1FF0
07C0
0380
0380
0380
ENDCHAR
STARTCHAR 0025
ENCODING 37
SWIDTH 916 0
DWIDTH 28 0
BBX 25 23 1 -1
BITMAP
1F007000
3F80E000
73C0E000
71C1C000
F1C1C000
F1C38000
F1C38000
71C70000
73C70000
3F8E0000
1F0E0000
001C0000
001C3E00
0038FF00
0038E780
0071E380
0071E380
00E1E380
00E1E380
01C0E380
01C0E780
0380FF00
03803E00
ENDCHAR
STARTCHAR 0026
ENCODING 38
SWIDTH 720 0
DWIDTH 22 0
BBX 21 22 1 0
BITMAP
03F000
07FC00
0FFE00
1F1E00
1E0E00
1F0E00
1F1E00
0FBE00
07FC00
07F000
0FF000
3FF000
7EF9E0
7C7DE0
783FE0
F83FC0
F81FC0
780FC0
7C3FE0
3FFFF8
1FFDF0
07F060
ENDCHAR
STARTCHAR 0027
ENCODING 39
SWIDTH 229 0
DWIDTH 7 0
BBX 5 8 1 14
BITMAP
F8
F8
F8
F8
78
78
78
70
ENDCHAR
STARTCHAR 0028
ENCODING 40
SWIDTH 327 0
DWIDTH 10 0
BBX 7 28 2 -6
BITMAP
0E
1E
1C
3C
38
78
78
70
F0
F0
F0
F0
F0
F0
F0
F0
F0
F0
F0
F0
70
78
78
38
3C
1C
1E
0E
ENDCHAR
STARTCHAR 0029
ENCODING 41
SWIDTH 327 0
DWIDTH 10 0
BBX 8 28 1 -6
BITMAP
E0
70
70
78
3C
3C
1C
1E
1E
1E
1E
1F
0F
0F
0F
0F
1F
1E
1E
1E
1E
1C
3C
3C
38
78
70
E0
ENDCHAR
STARTCHAR 002A
ENCODING 42
SWIDTH 392 0
DWIDTH 12 0
BBX 10 10 1 12
BITMAP
0C00
0C00
8CC0
EFC0
FFC0
3F00
3E00
7700
F380
2100
ENDCHAR
STARTCHAR 002B
ENCODING 43
SWIDTH 589 0
DWIDTH 18 0
BBX 16 16 1 3
BITMAP
03C0
03C0
03C0
03C0
03C0
03C0
FFFF
FFFF
FFFF
FFFF
03C0
03C0
03C0
03C0
03C0
03C0
ENDCHAR
STARTCHAR 002C
ENCODING 44
SWIDTH 294 0
DWIDTH 9 0
BBX 4 9 2 -5
BITMAP
F0
F0
F0
F0
30
30
70
E0
C0
ENDCHAR
STARTCHAR 002D
ENCODING 45
SWIDTH 327 0
DWIDTH 10 0
BBX 8 4 2 6
BITMAP
FF
FF
FF
FF
ENDCHAR
STARTCHAR 002E
ENCODING 46
SWIDTH 294 0
DWIDTH 9 0
BBX 4 4 2 0
BITMAP
F0
F0
F0
F0
ENDCHAR
STARTCHAR 002F
ENCODING 47
SWIDTH 294 0
DWIDTH 9 0
BBX 9 22 0 0
BITMAP
0780
0700
0700
0700
0F00
0E00
0E00
0E00
1E00
1C00
1C00
1C00
3C00
3800
3800
3800
7000
7000
7000
7000
E000
E000
ENDCHAR
STARTCHAR 0030
ENCODING 48
SWIDTH 556 0
DWIDTH 17 0
BBX 15 22 1 0
BITMAP
07C0
1FF0
3FF8
3FF8
7C7C
783C
783C
F83C
F83E
F83E
F83E
F83E
F83E
F83E
F83E
783C
783C
7C7C
3FF8
3FF8
1FF0
07C0
ENDCHAR
STARTCHAR 0031
ENCODING 49
SWIDTH 556 0
DWIDTH 17 0
BBX 10 22 2 0
BITMAP
01C0
03C0
07C0
0FC0
1FC0
3FC0
FFC0
FBC0
F3C0
C3C0
03C0
03C0
03C0
03C0
03C0
03C0
03C0
03C0
03C0
03C0
03C0
03C0
ENDCHAR
STARTCHAR 0032
ENCODING 50
SWIDTH 556 0
DWIDTH 17 0
BBX 15 22 1 0
BITMAP
07E0
1FF8
3FF8
7FFC
7C7C
F83E
F83E
003E
003C
007C
00F8
01F8
03F0
07E0
0FC0
1F00
3E00
7E00
7FFE
FFFE
FFFE
FFFE
ENDCHAR
STARTCHAR 0033
ENCODING 51
SWIDTH 556 0
DWIDTH 17 0
BBX 15 22 1 0
BITMAP
07C0
1FF0
3FF8
7FF8
7C7C
783C
703C
007C
00F8
03F0
03E0
03F8
007C
003E
001E
F03E
F83E
7C7E
7FFC
3FF8
1FF0
07C0
ENDCHAR
STARTCHAR 0034
ENCODING 52
SWIDTH 556 0
DWIDTH 17 0
BBX 16 22 1 0
BITMAP
0078
00F8
01F8
01F8
03F8
07F8
07F8
0F78
1E78
1E78
3C78
7878
7878
F078
FFFF
FFFF
FFFF
FFFF
0078
0078
0078
0078
ENDCHAR
STARTCHAR 0035
ENCODING 53
SWIDTH 556 0
DWIDTH 17 0
BBX 15 22 1 0
BITMAP
1FFC
1FFC
1FFC
3FFC
3C00
3C00
3C00
3FE0
3FF8
7FFC
7FFC
7C7E
383E
001E
001E
F81E
783E
7C3E
7FFC
3FF8
1FF0
07E0
ENDCHAR
STARTCHAR 0036
ENCODING 54
SWIDTH 556 0
DWIDTH 17 0
BBX 15 22 1 0
BITMAP
03E0
0FF8
1FFC
3FFC
7E3C
7C3E
7800
7800
FBE0
FFF8
FFFC
FFFC
FC3E
F81E
781E
781E
781E
7C3E
3FFC
3FFC
1FF8
07E0
ENDCHAR
STARTCHAR 0037
ENCODING 55
SWIDTH 556 0
DWIDTH 17 0
BBX 15 22 1 0
BITMAP
FFFE
FFFE
FFFE
FFFC
003C
0078
00F0
00F0
01E0
03C0
03C0
03C0
0780
0780
0780
0F00
0F00
0F00
0F00
1F00
1E00
1E00
ENDCHAR
STARTCHAR 0038
ENCODING 56
SWIDTH 556 0
DWIDTH 17 0
BBX 15 22 1 0
BITMAP
0FC0
1FF0
3FF8
7C7C
783C
783C
783C
783C
3C78
3FF8
0FE0
3FF8
7C7C
783C
F81E
F01E
F81E
783E
7C7C
3FFC
1FF8
07E0
ENDCHAR
STARTCHAR 0039
ENCODING 57
SWIDTH 556 0
DWIDTH 17 0
BBX 15 22 1 0
BITMAP
0FC0
1FF0
7FF8
7FF8
F87C
F03C
F03C
F03E
F03E
F87E
7FFE
7FFE
3FFE
0FBE
003E
003C
F87C
787C
7FF8
3FF0
3FE0
0F80
ENDCHAR
STARTCHAR 003A
ENCODING 58
SWIDTH 327 0
DWIDTH 10 0
BBX 4 16 3 0
BITMAP
F0
F0
F0
F0
00
00
00
00
00
00
00
00
F0
F0
F0
F0
ENDCHAR
STARTCHAR 003B
ENCODING 59
SWIDTH 327 0
DWIDTH 10 0
BBX 4 21 3 -5
BITMAP
F0
F0
F0
F0
00
00
00
00
00
00
00
00
F0
F0
F0
F0
30
30
70
E0
C0
ENDCHAR
STARTCHAR 003C
ENCODING 60
SWIDTH 589 0
DWIDTH 18 0
BBX 16 17 1 3
BITMAP
0001
000F
003F
00FF
07FC
1FF0
7FC0
FE00
F800
FF00
7FC0
1FF0
07FE
00FF
003F
000F
0001
ENDCHAR
STARTCHAR 003D
ENCODING 61
SWIDTH 589 0
DWIDTH 18 0
BBX 16 11 1 5
BITMAP
FFFF
FFFF
FFFF
FFFF
0000
0000
0000
FFFF
FFFF
FFFF
FFFF
ENDCHAR
STARTCHAR 003E
ENCODING 62
SWIDTH 589 0
DWIDTH 18 0
BBX 16 17 1 3
BITMAP
C000
F000
FC00
FF00
3FE0
0FF8
03FE
007F
001F
007F
03FE
0FF8
3FE0
FF00
FC00
F000
C000
ENDCHAR
STARTCHAR 003F
ENCODING 63
SWIDTH 621 0
DWIDTH 19 0
BBX 16 22 2 0
BITMAP
0FE0
3FF8
7FFC
F83E
F01E
F01E
001F
001E
003E
007C
01F8
01F0
03E0
03C0
0780
0780
0000
0000
03C0
03C0
03C0
03C0
ENDCHAR
STARTCHAR 0040
ENCODING 64
SWIDTH 981 0
DWIDTH 30 0
BBX 29 29 1 -7
BITMAP
001FE000
00FFFC00
03FFFF00
07E01F80
0F8003C0
1E0001E0
3C1F3CE0
387FBC70
78FFFC70
70FFF870
71F0F830
E3E07830
E3C07870
E3C07870
E3C07070
E3C0F0F0
E3C1F0E0
E3E3F1C0
E3FFF3C0
61FFFF80
71FEFE00
78787C00
38000078
3C0000F0
1F0001E0
0FE00FE0
03FFFF80
01FFFE00
001FF800
ENDCHAR
STARTCHAR 0041
ENCODING 65
SWIDTH 720 0
DWIDTH 22 0
BBX 22 22 0 0
BITMAP
00FC00
00FC00
00FC00
01FE00
01FE00
03DF00
03CF00
03CF00
078F80
078780
0787C0
0F03C0
0F03C0
1FFFE0
1FFFE0
1FFFF0
3FFFF0
3C00F0
7C00F8
7C00F8
78007C
F8007C
ENDCHAR
STARTCHAR 0042
ENCODING 66
SWIDTH 720 0
DWIDTH 22 0
BBX 19 22 2 0
BITMAP
FFFC00
FFFF00
FFFF80
FFFF80
F80FC0
F807C0
F807C0
F80780
F80F80
FFFF00
FFFE00
FFFF00
FFFFC0
F807C0
F803E0
F803E0
F803E0
F807E0
FFFFC0
FFFFC0
FFFF80
FFFE00
ENDCHAR
STARTCHAR 0043
ENCODING 67
SWIDTH 720 0
DWIDTH 22 0
BBX 20 22 1 0
BITMAP
01FC00
07FF00
0FFF80
1FFFC0
3F07E0
3E03E0
7C01F0
7C01C0
780000
780000
F80000
F80000
780000
7801C0
7C01F0
7C01E0
7E03E0
3F07C0
1FFFC0
0FFF80
07FF00
01FC00
ENDCHAR
STARTCHAR 0044
ENCODING 68
SWIDTH 720 0
DWIDTH 22 0
BBX 19 22 2 0
BITMAP
FFF800
FFFE00
FFFF00
FFFF80
F81F80
F807C0
F807C0
F803C0
F803E0
F803E0
F803E0
F803E0
F803E0
F803E0
F803E0
F803C0
F807C0
F80F80
FFFF80
FFFF00
FFFE00
FFF800
ENDCHAR
STARTCHAR 0045
ENCODING 69
SWIDTH 687 0
DWIDTH 21 0
BBX 17 22 2 0
BITMAP
FFFF80
FFFF80
FFFF80
FFFF80
F80000
F80000
F80000
F80000
F80000
FFFF00
FFFF00
FFFF00
FFFF00
F80000
F80000
F80000
F80000
F80000
FFFF80
FFFF80
FFFF80
FFFF80
ENDCHAR
STARTCHAR 0046
ENCODING 70
SWIDTH 621 0
DWIDTH 19 0
BBX 16 22 2 0
BITMAP
FFFF
FFFF
FFFF
FFFF
F800
F800
F800
F800
F800
FFFC
FFFC
FFFC
FFFC
F800
F800
F800
F800
F800
F800
F800
F800
F800
ENDCHAR
STARTCHAR 0047
ENCODING 71
SWIDTH 785 0
DWIDTH 24 0
BBX 21 22 1 0
BITMAP
00FE00
07FF80
0FFFE0
1FFFE0
3F83F0
3E01F8
7C00F8
7C00E0
780000
780000
F80FF8
F80FF8
780FF8
780FF8
7C0078
7C0078
3E0078
3F83F8
1FFFF8
0FFFF0
07FFC0
00FE00
ENDCHAR
STARTCHAR 0048
ENCODING 72
SWIDTH 720 0
DWIDTH 22 0
BBX 18 22 2 0
BITMAP
F803C0
F803C0
F803C0
F803C0
F803C0
F803C0
F803C0
F803C0
F803C0
FFFFC0
FFFFC0
FFFFC0
FFFFC0
F803C0
F803C0
F803C0
F803C0
F803C0
F803C0
F803C0
F803C0
F803C0
ENDCHAR
STARTCHAR 0049
ENCODING 73
SWIDTH 294 0
DWIDTH 9 0
BBX 5 22 2 0
BITMAP
F8
F8
F8
F8
F8
F8
F8
F8
F8
F8
F8
F8
F8
F8
F8
F8
F8
F8
F8
F8
F8
F8
ENDCHAR
STARTCHAR 004A
ENCODING 74
SWIDTH 556 0
DWIDTH 17 0
BBX 14 22 1 0
BITMAP
007C
007C
007C
007C
007C
007C
007C
007C
007C
007C
007C
007C
007C
007C
F07C
F07C
F07C
F8F8
FFF8
7FF0
3FE0
1FC0
ENDCHAR
STARTCHAR 004B
ENCODING 75
SWIDTH 720 0
DWIDTH 22 0
BBX 20 22 2 0
BITMAP
F807E0
F80FC0
F81F80
F83F00
F87E00
F8FC00
F9FC00
FBF800
FFF000
FFF000
FFF800
FFF800
FF7C00
FE7E00
FC3E00
F81F00
F81F80
F80F80
F80FC0
F807E0
F803E0
F803F0
ENDCHAR
STARTCHAR 004C
ENCODING 76
SWIDTH 621 0
DWIDTH 19 0
BBX 16 22 2 0
BITMAP
F800
F800
F800
F800
F800
F800
F800
F800
F800
F800
F800
F800
F800
F800
F800
F800
F800
F800
FFFF
FFFF
FFFF
FFFF
ENDCHAR
STARTCHAR 004D
ENCODING 77
SWIDTH 850 0
DWIDTH 26 0
BBX 22 22 2 0
BITMAP
FE01FC
FE01FC
FF03FC
FF03FC
FF03FC
F707FC
F787FC
F787FC
F787FC
F38F7C
F3CF7C
F3CF7C
F3CE7C
F1FE7C
F1FE7C
F1FE7C
F1FC7C
F0FC7C
F0FC7C
F0FC7C
F0F87C
F0787C
ENDCHAR
STARTCHAR 004E
ENCODING 78
SWIDTH 720 0
DWIDTH 22 0
BBX 18 22 2 0
BITMAP
F803C0
FC03C0
FC03C0
FE03C0
FE03C0
FF03C0
FF83C0
F783C0
F7C3C0
F3C3C0
F1E3C0
F1E3C0
F0F3C0
F0FBC0
F07BC0
F03FC0
F03FC0
F01FC0
F01FC0
F00FC0
F007C0
F007C0
ENDCHAR
STARTCHAR 004F
ENCODING 79
SWIDTH 785 0
DWIDTH 24 0
BBX 22 22 1 0
BITMAP
01FE00
07FF80
0FFFC0
1FFFE0
3F03F0
7E01F8
7C00F8
7C0078
78007C
F8007C
F8007C
F8007C
F8007C
78007C
7C0078
7C00F8
7E01F8
3F83F0
1FFFF0
0FFFE0
07FF80
01FE00
ENDCHAR
STARTCHAR 0050
ENCODING 80
SWIDTH 687 0
DWIDTH 21 0
BBX 17 22 2 0
BITMAP
FFF800
FFFE00
FFFF00
FFFF80
F81F80
F80F80
F80780
F80780
F80F80
F81F80
FFFF00
FFFF00
FFFE00
FFF800
F80000
F80000
F80000
F80000
F80000
F80000
F80000
F80000
ENDCHAR
STARTCHAR 0051
ENCODING 81
SWIDTH 785 0
DWIDTH 24 0
BBX 22 24 1 -2
BITMAP
01FE00
07FF80
0FFFC0
1FFFE0
3F83F0
7E01F8
7C00F8
7C0078
78007C
F8007C
F8007C
F8007C
F8007C
78107C
7C1CFC
7C3EF8
7E1FF8
3F07F0
1FFFF0
0FFFF0
07FFF8
01FE7C
00003C
000008
ENDCHAR
STARTCHAR 0052
ENCODING 82
SWIDTH 720 0
DWIDTH 22 0
BBX 20 22 2 0
BITMAP
FFFC00
FFFF00
FFFF80
FFFFC0
F807C0
F803C0
F803C0
F803C0
F807C0
FFFFC0
FFFF80
FFFE00
FFF800
F8FC00
F83E00
F83F00
F81F80
F80F80
F807C0
F807E0
F803E0
F801F0
ENDCHAR
STARTCHAR 0053
ENCODING 83
SWIDTH 687 0
DWIDTH 21 0
BBX 18 22 1 0
BITMAP
07F800
1FFE00
3FFF00
3FFF80
7C0F80
780780
7C0000
7F0000
7FE000
3FF800
1FFE00
07FF80
01FF80
001FC0
0007C0
F803C0
F807C0
7E0FC0
7FFF80
3FFF80
1FFF00
07F800
ENDCHAR
STARTCHAR 0054
ENCODING 84
SWIDTH 621 0
DWIDTH 19 0
BBX 17 22 1 0
BITMAP
FFFF80
FFFF80
FFFF80
FFFF80
03E000
03E000
03E000
03E000
03E000
03E000
03E000
03E000
03E000
03E000
03E000
03E000
03E000
03E000
03E000
03E000
03E000
03E000
ENDCHAR
STARTCHAR 0055
ENCODING 85
SWIDTH 720 0
DWIDTH 22 0
BBX 18 22 2 0
BITMAP
F807C0
F807C0
F807C0
F807C0
F807C0
F807C0
F807C0
F807C0
F807C0
F807C0
F807C0
F807C0
F807C0
F807C0
F807C0
F807C0
7807C0
7E0F80
7FFF80
3FFF00
1FFE00
07F800
ENDCHAR
STARTCHAR 0056
ENCODING 86
SWIDTH 687 0
DWIDTH 21 0
BBX 20 22 0 0
BITMAP
F800F0
7801F0
7C01F0
7C01E0
3C03E0
3E03E0
3E03C0
1E07C0
1F07C0
1F0780
0F8F80
0F8F00
0F8F00
07DF00
07DE00
03DE00
03FE00
03FC00
01FC00
01FC00
01F800
00F800
ENDCHAR
STARTCHAR 0057
ENCODING 87
SWIDTH 949 0
DWIDTH 29 0
BBX 29 22 0 0
BITMAP
F80FC078
F80FC0F8
781FC0F8
781FC0F0
7C1FE0F0
7C1FE1F0
3C3DE1F0
3C3DE1E0
3E3DF1E0
3E3CF1E0
1E78F3E0
1E78F3C0
1E787BC0
1FF87BC0
0FF07FC0
0FF07F80
0FF03F80
0FE03F80
07E03F80
07E03F00
07E01F00
07C01F00
ENDCHAR
STARTCHAR 0058
ENCODING 88
SWIDTH 687 0
DWIDTH 21 0
BBX 20 22 0 0
BITMAP
7C03F0
3E03E0
3F07C0
1F0FC0
0F8F80
0FDF00
07FF00
03FE00
03FC00
01FC00
00F800
01FC00
03FC00
03FE00
07FF00
0FDF00
0F8F80
1F0FC0
3F07C0
3E03E0
7C03F0
FC01F0
ENDCHAR
STARTCHAR 0059
ENCODING 89
SWIDTH 687 0
DWIDTH 21 0
BBX 20 22 0 0
BITMAP
FC01F0
7C01F0
3E03E0
3E07C0
1F07C0
1F0F80
0F8F80
07DF00
07DE00
03FE00
01FC00
01F800
00F800
00F800
00F800
00F800
00F800
00F800
00F800
00F800
00F800
00F800
ENDCHAR
STARTCHAR 005A
ENCODING 90
SWIDTH 621 0
DWIDTH 19 0
BBX 18 22 0 0
BITMAP
3FFFC0
3FFFC0
3FFFC0
3FFF80
000F80
001F00
003E00
007C00
00F800
01F800
01F000
03E000
07C000
0F8000
1F8000
3F0000
3E0000
7C0000
FFFFC0
FFFFC0
FFFFC0
FFFFC0
ENDCHAR
STARTCHAR 005B
ENCODING 91
SWIDTH 327 0
DWIDTH 10 0
BBX 8 28 2 -6
BITMAP
FF
FF
FF
FF
F0
F0
F0
F0
F0
F0
F0
F0
F0
F0
F0
F0
F0
F0
F0
F0
F0
F0
F0
F0
FF
FF
FF
FF
ENDCHAR
STARTCHAR 005C
ENCODING 92
SWIDTH 294 0
DWIDTH 9 0
BBX 9 22 0 0
BITMAP
E000
E000
7000
7000
7000
7000
3800
3800
3800
3800
1C00
1C00
1C00
1C00
0E00
0E00
0E00
0F00
0700
0700
0700
0780
ENDCHAR
STARTCHAR 005D
ENCODING 93
SWIDTH 327 0
DWIDTH 10 0
BBX 7 28 1 -6
BITMAP
FE
FE
FE
FE
1E
1E
1E
1E
1E
1E
1E
1E
1E
1E
1E
1E
1E
1E
1E
1E
1E
1E
1E
1E
FE
FE
FE
FE
ENDCHAR
STARTCHAR 005E
ENCODING 94
SWIDTH 589 0
DWIDTH 18 0
BBX 14 12 2 11
BITMAP
0780
0780
0FC0
0FC0
1FE0
1FE0
3CF0
3CF0
7878
7878
F87C
F03C
ENDCHAR
STARTCHAR 005F
ENCODING 95
SWIDTH 556 0
DWIDTH 17 0
BBX 17 3 0 -6
BITMAP
FFFF80
FFFF80
FFFF80
ENDCHAR
STARTCHAR 0060
ENCODING 96
SWIDTH 327 0
DWIDTH 10 0
BBX 6 5 1 17
BITMAP
F8
78
38
1C
1C
ENDCHAR
STARTCHAR 0061
ENCODING 97
SWIDTH 556 0
DWIDTH 17 0
BBX 15 16 1 0
BITMAP
0FE0
3FF8
7FFC
787C
383C
003C
00FC
0FFC
3FFC
7F3C
F83C
F03C
F87C
7FFC
7FDE
1F1E
ENDCHAR
STARTCHAR 0062
ENCODING 98
SWIDTH 621 0
DWIDTH 19 0
BBX 16 22 2 0
BITMAP
F000
F000
F000
F000
F000
F000
F1F0
F7F8
FFFC
FC3E
F81E
F81E
F01F
F01F
F01F
F01F
F81E
F81E
FC3E
FFFC
F7F8
F3F0
ENDCHAR
STARTCHAR 0063
ENCODING 99
SWIDTH 556 0
DWIDTH 17 0
BBX 15 16 1 0
BITMAP
07E0
1FF8
3FFC
7C3E
781E
7818
F800
F800
F800
F800
7818
781E
7C3E
3FFC
1FF8
07E0
ENDCHAR
STARTCHAR 0064
ENCODING 100
SWIDTH 621 0
DWIDTH 19 0
BBX 16 22 1 0
BITMAP
000F
000F
000F
000F
000F
000F
0F8F
1FEF
3FFF
7C3F
781F
F81F
F80F
F80F
F80F
F80F
781F
781F
7C3F
3FFF
1FEF
07CF
ENDCHAR
STARTCHAR 0065
ENCODING 101
SWIDTH 556 0
DWIDTH 17 0
BBX 15 16 1 0
BITMAP
07C0
1FF0
3FF8
7C7C
783C
F01E
FFFE
FFFE
FFFE
F000
F800
7800
7C38
3FFC
1FF8
07E0
ENDCHAR
STARTCHAR 0066
ENCODING 102
SWIDTH 327 0
DWIDTH 10 0
BBX 11 22 0 0
BITMAP
07E0
0FE0
1FE0
1E00
1E00
1E00
FFC0
FFC0
FFC0
1E00
1E00
1E00
1E00
1E00
1E00
1E00
1E00
1E00
1E00
1E00
1E00
1E00
ENDCHAR
STARTCHAR 0067
ENCODING 103
SWIDTH 621 0
DWIDTH 19 0
BBX 16 22 1 -6
BITMAP
0F8F
1FEF
3FFF
7C3F
781F
781F
F80F
F80F
F80F
F80F
781F
781F
7C3F
3FFF
1FEF
0F8F
000F
600F
7C1E
7FFE
3FFC
0FF0
ENDCHAR
STARTCHAR 0068
ENCODING 104
SWIDTH 621 0
DWIDTH 19 0
BBX 15 22 2 0
BITMAP
F000
F000
F000
F000
F000
F000
F1F0
F7F8
FFFC
FC3E
F83E
F81E
F81E
F01E
F01E
F01E
F01E
F01E
F01E
F01E
F01E
F01E
ENDCHAR
STARTCHAR 0069
ENCODING 105
SWIDTH 294 0
DWIDTH 9 0
BBX 4 22 2 0
BITMAP
F0
F0
F0
00
00
00
F0
F0
F0
F0
F0
F0
F0
F0
F0
F0
F0
F0
F0
F0
F0
F0
ENDCHAR
STARTCHAR 006A
ENCODING 106
SWIDTH 294 0
DWIDTH 9 0
BBX 7 28 -1 -6
BITMAP
1E
1E
1E
00
00
00
1E
1E
1E
1E
1E
1E
1E
1E
1E
1E
1E
1E
1E
1E
1E
1E
1E
1E
1E
FE
FC
F8
ENDCHAR
STARTCHAR 006B
ENCODING 107
SWIDTH 556 0
DWIDTH 17 0
BBX 15 22 2 0
BITMAP
F000
F000
F000
F000
F000
F000
F07C
F0F8
F1F0
F3E0
F7C0
FF80
FF80
FFC0
FFE0
FDE0
F9F0
F0F0
F0F8
F078
F03C
F03E
ENDCHAR
STARTCHAR 006C
ENCODING 108
SWIDTH 294 0
DWIDTH 9 0
BBX 4 22 2 0
BITMAP
F0
F0
F0
F0
F0
F0
F0
F0
F0
F0
F0
F0
F0
F0
F0
F0
F0
F0
F0
F0
F0
F0
ENDCHAR
STARTCHAR 006D
ENCODING 109
SWIDTH 916 0
DWIDTH 28 0
BBX 24 16 2 0
BITMAP
F3E0F8
F7FBFC
FFFFFE
FC7E3E
F87E1E
F03C1F
F03C1F
F03C1F
F03C1F
F03C1F
F03C1F
F03C1F
F03C1F
F03C1F
F03C1F
F03C1F
ENDCHAR
STARTCHAR 006E
ENCODING 110
SWIDTH 621 0
DWIDTH 19 0
BBX 15 16 2 0
BITMAP
F1F0
F7FC
FFFC
FC3E
F83E
F83E
F81E
F01E
F01E
F01E
F01E
F01E
F01E
F01E
F01E
F01E
ENDCHAR
STARTCHAR 006F
ENCODING 111
SWIDTH 621 0
DWIDTH 19 0
BBX 17 16 1 0
BITMAP
07F000
1FFC00
3FFE00
7E3F00
7C1F00
780F00
F80F80
F80F80
F80F80
F80F80
780F00
7C1F00
7E3F00
3FFE00
1FFC00
07F000
ENDCHAR
STARTCHAR 0070
ENCODING 112
SWIDTH 621 0
DWIDTH 19 0
BBX 16 22 2 -6
BITMAP
F3F0
F7F8
FFFC
FC3E
F81E
F81F
F01F
F01F
F01F
F01F
F81F
F81E
FC3E
FFFC
F7F8
F1F0
F000
F000
F000
F000
F000
F000
ENDCHAR
STARTCHAR 0071
ENCODING 113
SWIDTH 621 0
DWIDTH 19 0
BBX 16 22 1 -6
BITMAP
07CF
1FEF
3FFF
7E3F
7C1F
780F
F80F
F80F
F80F
F80F
781F
781F
7C3F
3FFF
1FEF
0F8F
000F
000F
000F
000F
000F
000F
ENDCHAR
STARTCHAR 0072
ENCODING 114
SWIDTH 392 0
DWIDTH 12 0
BBX 10 16 2 0
BITMAP
F3C0
F7C0
FFC0
FC00
F800
F800
F000
F000
F000
F000
F000
F000
F000
F000
F000
F000
ENDCHAR
STARTCHAR 0073
ENCODING 115
SWIDTH 556 0
DWIDTH 17 0
BBX 15 16 1 0
BITMAP
0FE0
3FF8
7FF8
F87C
F030
F800
7F00
3FF0
0FFC
01FC
003E
303E
F83E
7FFC
3FF8
0FE0
ENDCHAR
STARTCHAR 0074
ENCODING 116
SWIDTH 327 0
DWIDTH 10 0
BBX 10 22 0 0
BITMAP
0200
0600
1E00
3E00
3E00
3E00
FFC0
FFC0
FFC0
3E00
3E00
3E00
3E00
3E00
3E00
3E00
3E00
3E00
3E00
1FC0
1FC0
0FC0
ENDCHAR
STARTCHAR 0075
ENCODING 117
SWIDTH 621 0
DWIDTH 19 0
BBX 15 16 2 0
BITMAP
F03E
F03E
F03E
F03E
F03E
F03E
F03E
F03E
F03E
F03E
F03E
F83E
F87E
7FFE
7FDE
1F1E
ENDCHAR
STARTCHAR 0076
ENCODING 118
SWIDTH 556 0
DWIDTH 17 0
BBX 17 16 0 0
BITMAP
F80F80
780F00
7C0F00
3C1E00
3C1E00
3E3E00
1E3C00
1E3C00
0F7800
0F7800
0F7800
07F000
07F000
03E000
03E000
03E000
ENDCHAR
STARTCHAR 0077
ENCODING 119
SWIDTH 785 0
DWIDTH 24 0
BBX 24 16 0 0
BITMAP
F03C0F
783E1F
787E1E
787E1E
3C7E1E
3C7F3C
3CFF3C
1CF73C
1EE778
1EE7F8
1FE7F8
0FE3F0
0FC3F0
0FC3F0
07C3E0
07C1E0
ENDCHAR
STARTCHAR 0078
ENCODING 120
SWIDTH 556 0
DWIDTH 17 0
BBX 16 16 1 0
BITMAP
F83E
FC7C
7C7C
3EF8
1FF0
1FF0
0FE0
07C0
0FE0
0FE0
1FF0
3EF8
3EF8
7C7C
F83E
F83F
ENDCHAR
STARTCHAR 0079
ENCODING 121
SWIDTH 556 0
DWIDTH 17 0
BBX 17 22 0 -6
BITMAP
F80F80
780F00
7C0F00
3C1E00
3C1E00
3E1E00
1E3C00
1E3C00
1F3C00
0F7800
0F7800
07F800
07F000
07F000
03E000
03E000
03E000
03C000
07C000
7F8000
7F8000
3E0000
ENDCHAR
STARTCHAR 007A
ENCODING 122
SWIDTH 523 0
DWIDTH 16 0
BBX 14 16 1 0
BITMAP
FFF8
FFF8
FFF8
01F8
03F0
03E0
07E0
0FC0
1F80
3F00
3E00
7C00
FC00
FFFC
FFFC
FFFC
ENDCHAR
STARTCHAR 007B
ENCODING 123
SWIDTH 392 0
DWIDTH 12 0
BBX 10 28 1 -6
BITMAP
03C0
0FC0
0FC0
1FC0
1F00
1E00
1E00
1E00
1E00
1E00
1E00
1E00
3C00
FC00
F000
FC00
3C00
1E00
1E00
1E00
1E00
1E00
1E00
1F00
1FC0
0FC0
0FC0
03C0
ENDCHAR
STARTCHAR 007C
ENCODING 124
SWIDTH 294 0
DWIDTH 9 0
BBX 3 29 3 -7
BITMAP
E0
E0
E0
E0
E0
E0
E0
E0
E0
E0
E0
E0
E0
E0
E0
E0
E0
E0
E0
E0
E0
E0
E0
E0
E0
E0
E0
E0
E0
ENDCHAR
STARTCHAR 007D
ENCODING 125
SWIDTH 392 0
DWIDTH 12 0
BBX 10 28 1 -6
BITMAP
F000
F800
FC00
FC00
3E00
1E00
1E00
1E00
1E00
1E00
1E00
1E00
0F00
0FC0
03C0
0FC0
1F00
1E00
1E00
1E00
1E00
1E00
1E00
3E00
FE00
FC00
FC00
F000
ENDCHAR
STARTCHAR 007E
ENCODING 126
SWIDTH 589 0
DWIDTH 18 0
BBX 16 6 1 8
BITMAP
3E01
7FC3
FFFF
FFFF
C3FF
807C
ENDCHAR
STARTCHAR 00A0
ENCODING 160
SWIDTH 294 0
DWIDTH 9 0
BBX 0 0 0 0
BITMAP
ENDCHAR
STARTCHAR 00A1
ENCODING 161
SWIDTH 327 0
DWIDTH 10 0
BBX 5 22 3 -6
BITMAP
F0
F0
F0
F0
00
00
60
70
70
70
70
F0
F0
F0
F0
F0
F8
F8
F8
F8
F8
F8
ENDCHAR
STARTCHAR 00A2
ENCODING 162
SWIDTH 556 0
DWIDTH 17 0
BBX 15 28 1 -6
BITMAP
0010
0018
0038
0030
0030
0030
07F0
1FF8
3FFC
7CFE
78DE
78D8
F980
F980
F980
F900
7B18
7B1E
7F3E
3FFC
1FF8
0FE0
0C00
0C00
0C00
1800
1800
0800
ENDCHAR
STARTCHAR 00A3
ENCODING 163
SWIDTH 556 0
DWIDTH 17 0
BBX 16 22 0 0
BITMAP
03F0
0FFC
1FFE
1E3E
3C1F
3C0E
3C00
3C00
3C00
3E00
FFF0
FFF0
FFF0
1F00
1F00
1E00
3E00
3C00
FFC2
7FFF
7FFF
207F
ENDCHAR
STARTCHAR 00A4
ENCODING 164
SWIDTH 556 0
DWIDTH 17 0
BBX 15 15 1 2
BITMAP
2008
77DC
FFFE
7FFC
7C7C
783C
783C
781C
783C
783C
7C7C
7FFC
FFFE
77DC
2008
ENDCHAR
STARTCHAR 00A5
ENCODING 165
SWIDTH 556 0
DWIDTH 17 0
BBX 17 22 0 0
BITMAP
F80F80
780F00
7C1F00
3C1E00
3E3E00
1E3C00
1F7C00
0F7C00
0FF800
0FF800
7FFF00
7FFF00
7FFF00
03E000
03E000
7FFF00
7FFF00
7FFF00
03E000
03E000
03E000
03E000
ENDCHAR
STARTCHAR 00A6
ENCODING 166
SWIDTH 294 0
DWIDTH 9 0
BBX 3 29 3 -7
BITMAP
E0
E0
E0
E0
E0
E0
E0
E0
E0
E0
E0
E0
00
00
00
00
00
E0
E0
E0
E0
E0
E0
E0
E0
E0
E0
E0
E0
ENDCHAR
STARTCHAR 00A7
ENCODING 167
SWIDTH 556 0
DWIDTH 17 0
BBX 15 29 1 -7
BITMAP
0FC0
1FF0
3FF8
7C78
783C
7C00
3E00
3F00
3FC0
7FE0
FBF8
F1FC
F0FC
F03E
F81E
FC1E
7F1E
3F9E
1FFC
07F8
03F8
00FC
007C
783C
783C
7C7C
3FF8
1FF8
07E0
ENDCHAR
STARTCHAR 00A8
ENCODING 168
SWIDTH 327 0
DWIDTH 10 0
BBX 10 3 0 19
BITMAP
F1C0
F1C0
F1C0
ENDCHAR
STARTCHAR 00A9
ENCODING 169
SWIDTH 752 0
DWIDTH 23 0
BBX 23 22 0 0
BITMAP
00FE00
03FF80
0F03E0
1C0070
380038
707C18
61FE0C
E1C70C
E3838E
C38006
C30006
C30006
C38006
E3838E
E1C70C
61FE0C
707C1C
380038
1C0070
0F03E0
03FF80
00FE00
ENDCHAR
STARTCHAR 00AA
ENCODING 170
SWIDTH 360 0
DWIDTH 11 0
BBX 10 11 1 11
BITMAP
3F00
7F80
E380
0380
0F80
7F80
F380
E380
E780
FF80
7DC0
ENDCHAR
STARTCHAR 00AB
ENCODING 171
SWIDTH 556 0
DWIDTH 17 0
BBX 13 14 2 1
BITMAP
0E38
1E78
3CF0
3CF0
79E0
F3C0
F3C0
F3C0
7BC0
79E0
3CF0
1CF0
1E78
0E38
ENDCHAR
STARTCHAR 00AC
ENCODING 172
SWIDTH 589 0
DWIDTH 18 0
BBX 16 11 1 5
BITMAP
FFFF
FFFF
FFFF
FFFF
000F
000F
000F
000F
000F
000F
000F
ENDCHAR
STARTCHAR 00AD
ENCODING 173
SWIDTH 327 0
DWIDTH 10 0
BBX 8 4 2 6
BITMAP
FF
FF
FF
FF
ENDCHAR
STARTCHAR 00AE
ENCODING 174
SWIDTH 752 0
DWIDTH 23 0
BBX 23 22 0 0
BITMAP
00FE00
03FF80
0F03E0
1C0070
380038
73FE18
63FF0C
E3870C
E3830E
C38706
C3FE06
C3FC06
C39C06
E38E0E
E3860C
63870C
73839C
380038
1C0070
0F03E0
03FF80
00FE00
ENDCHAR
STARTCHAR 00AF
ENCODING 175
SWIDTH 556 0
DWIDTH 17 0
BBX 17 3 0 24
BITMAP
FFFF80
FFFF80
FFFF80
ENDCHAR
STARTCHAR 00B0
ENCODING 176
SWIDTH 392 0
DWIDTH 12 0
BBX 10 10 1 12
BITMAP
1E00
3F80
7F80
F1C0
E1C0
E1C0
71C0
7F80
3F80
1E00
ENDCHAR
STARTCHAR 00B1
ENCODING 177
SWIDTH 556 0
DWIDTH 17 0
BBX 15 21 1 0
BITMAP
0380
0380
0380
0380
0380
0380
FFFE
FFFE
FFFE
FFFE
0380
0380
0380
0380
0380
0380
0000
FFFE
FFFE
FFFE
FFFE
ENDCHAR
STARTCHAR 00B2
ENCODING 178
SWIDTH 327 0
DWIDTH 10 0
BBX 10 11 0 11
BITMAP
1F00
7F80
7380
71C0
0380
0780
0F00
3E00
7800
7FC0
FFC0
ENDCHAR
STARTCHAR 00B3
ENCODING 179
SWIDTH 327 0
DWIDTH 10 0
BBX 9 11 1 11
BITMAP
7C00
FF00
E700
0700
1E00
1F00
0700
C380
E780
FF00
3E00
ENDCHAR
STARTCHAR 00B4
ENCODING 180
SWIDTH 327 0
DWIDTH 10 0
BBX 6 5 3 17
BITMAP
3C
78
78
F0
E0
ENDCHAR
STARTCHAR 00B5
ENCODING 181
SWIDTH 589 0
DWIDTH 18 0
BBX 14 22 2 -6
BITMAP
F03C
F03C
F03C
F03C
F03C
F03C
F03C
F03C
F03C
F03C
F03C
F87C
F8FC
FFFC
FFFC
F7BC
F000
F000
F000
F000
F000
F000
ENDCHAR
STARTCHAR 00B6
ENCODING 182
SWIDTH 556 0
DWIDTH 17 0
BBX 17 28 0 -6
BITMAP
0FFF80
3FFF80
7FFF80
FFCE00
FFCE00
FFCE00
FFCE00
FFCE00
FFCE00
7FCE00
3FCE00
1FCE00
03CE00
03CE00
03CE00
03CE00
03CE00
03CE00
03CE00
03CE00
03CE00
03CE00
03CE00
03CE00
03CE00
03CE00
03CE00
03CE00
ENDCHAR
STARTCHAR 00B7
ENCODING 183
SWIDTH 327 0
DWIDTH 10 0
BBX 4 4 3 9
BITMAP
F0
F0
F0
F0
ENDCHAR
STARTCHAR 00B8
ENCODING 184
SWIDTH 327 0
DWIDTH 10 0
BBX 8 6 1 -6
BITMAP
7C
7E
07
07
FE
FC
ENDCHAR
STARTCHAR 00B9
ENCODING 185
SWIDTH 327 0
DWIDTH 10 0
BBX 7 11 1 11
BITMAP
0E
1E
3E
FE
CE
0E
0E
0E
0E
0E
0E
ENDCHAR
STARTCHAR 00BA
ENCODING 186
SWIDTH 360 0
DWIDTH 11 0
BBX 11 11 0 11
BITMAP
1F00
3F80
71C0
71E0
F0E0
F0E0
F0E0
71E0
71C0
3FC0
1F00
ENDCHAR
STARTCHAR 00BB
ENCODING 187
SWIDTH 556 0
DWIDTH 17 0
BBX 13 14 2 1
BITMAP
E380
F3C0
79E0
39E0
3CF0
1E78
1E78
1E78
1E78
3CF0
39E0
79E0
F3C0
E380
ENDCHAR
STARTCHAR 00BC
ENCODING 188
SWIDTH 850 0
DWIDTH 26 0
BBX 25 22 1 0
BITMAP
0E006000
1E00E000
3E00C000
FE01C000
CE018000
0E030000
0E070000
0E060000
0E0E0000
0E0C0000
0E180000
00380E00
00301E00
00703E00
00603E00
00C07E00
01C0EE00
0181CE00
0381FF80
0301FF80
06000E00
0E000E00
ENDCHAR
STARTCHAR 00BD
ENCODING 189
SWIDTH 850 0
DWIDTH 26 0
BBX 24 22 1 0
BITMAP
0E0060
1E00E0
3E00C0
FE01C0
CE0180
0E0300
0E0700
0E0600
0E0E00
0E0C00
0E1800
00387C
0030FE
0071C7
0061C7
00C007
01C01E
01803C
038078
0300F0
0601FF
0E01FF
ENDCHAR
STARTCHAR 00BE
ENCODING 190
SWIDTH 850 0
DWIDTH 26 0
BBX 25 22 1 0
BITMAP
7C007000
FF006000
E700E000
0700C000
1E018000
1F038000
07030000
C3870000
E7860000
FF0C0000
3E1C0000
00180E00
00381E00
00301E00
00603E00
00E07E00
00C0EE00
01C1CE00
0181FF80
0301FF80
07000E00
06000E00
ENDCHAR
STARTCHAR 00BF
ENCODING 191
SWIDTH 621 0
DWIDTH 19 0
BBX 15 22 2 -6
BITMAP
07C0
07C0
07C0
07C0
0000
0000
03C0
03C0
0780
0F80
1F80
3F00
7C00
F800
F000
F000
F01E
F01E
F83E
7FFC
3FF8
0FE0
ENDCHAR
STARTCHAR 00C0
ENCODING 192
SWIDTH 720 0
DWIDTH 22 0
BBX 22 29 0 0
BITMAP
01F000
00F000
007000
003800
003800
000000
000000
00FC00
00FC00
00FC00
01FE00
01FE00
03DF00
03CF00
03CF00
078F80
078780
0787C0
0F03C0
0F03C0
1FFFE0
1FFFE0
1FFFF0
3FFFF0
3C00F0
7C00F8
7C00F8
78007C
F8007C
ENDCHAR
STARTCHAR 00C1
ENCODING 193
SWIDTH 720 0
DWIDTH 22 0
BBX 22 29 0 0
BITMAP
001E00
003C00
003C00
007800
007000
000000
000000
00FC00
00FC00
00FC00
01FE00
01FE00
03DF00
03CF00
03CF00
078F80
078780
0787C0
0F03C0
0F03C0
1FFFE0
1FFFE0
1FFFF0
3FFFF0
3C00F0
7C00F8
7C00F8
78007C
F8007C
ENDCHAR
STARTCHAR 00C2
ENCODING 194
SWIDTH 720 0
DWIDTH 22 0
BBX 22 28 0 0
BITMAP
007C00
00FC00
01EE00
03CF00
000000
000000
00FC00
00FC00
00FC00
01FE00
01FE00
03DF00
03CF00
03CF00
078F80
078780
0787C0
0F03C0
0F03C0
1FFFE0
1FFFE0
1FFFF0
3FFFF0
3C00F0
7C00F8
7C00F8
78007C
F8007C
ENDCHAR
STARTCHAR 00C3
ENCODING 195
SWIDTH 720 0
DWIDTH 22 0
BBX 22 28 0 0
BITMAP
01E300
03FF00
03FF00
031E00
000000
000000
00FC00
00FC00
00FC00
01FE00
01FE00
03DF00
03CF00
03CF00
078F80
078780
0787C0
0F03C0
0F03C0
1FFFE0
1FFFE0
1FFFF0
3FFFF0
3C00F0
7C00F8
7C00F8
78007C
F8007C
ENDCHAR
STARTCHAR 00C4
ENCODING 196
SWIDTH 720 0
DWIDTH 22 0
BBX 22 27 0 0
BITMAP
03C700
03C700
03C700
000000
000000
00FC00
00FC00
00FC00
01FE00
01FE00
03DF00
03CF00
03CF00
078F80
078780
0787C0
0F03C0
0F03C0
1FFFE0
1FFFE0
1FFFF0
3FFFF0
3C00F0
7C00F8
7C00F8
78007C
F8007C
ENDCHAR
STARTCHAR 00C5
ENCODING 197
SWIDTH 720 0
DWIDTH 22 0
BBX 22 26 0 0
BITMAP
003800
007C00
00CC00
00CC00
00FC00
00FC00
00FC00
01FE00
01FE00
03DF00
03CF00
03CF00
078F80
078780
0787C0
0F03C0
0F03C0
1FFFE0
1FFFE0
1FFFF0
3FFFF0
3C00F0
7C00F8
7C00F8
78007C
F8007C
ENDCHAR
STARTCHAR 00C6
ENCODING 198
SWIDTH 1014 0
DWIDTH 31 0
BBX 31 22 -1 0
BITMAP
003FFFFC
007FFFFC
007FFFFC
00F9FFFC
00F1E000
01F1E000
01E1E000
01E1E000
03E1FFF8
03C1FFF8
07C1FFF8
0781FFF8
0F81E000
0FFFE000
1FFFE000
1FFFE000
3FFFE000
3E01E000
7C01FFFE
7C01FFFE
F801FFFE
F801FFFE
ENDCHAR
STARTCHAR 00C7
ENCODING 199
SWIDTH 720 0
DWIDTH 22 0
BBX 20 28 1 -6
BITMAP
01FC00
07FF00
0FFF80
1FFFC0
3F07E0
3E03E0
7C01F0
7C01C0
780000
780000
F80000
F80000
780000
7801C0
7C01F0
7C01E0
7E03E0
3F07C0
1FFFC0
0FFF80
07FF00
01FC00
01F000
01F800
001C00
001C00
03F800
03F000
ENDCHAR
STARTCHAR 00C8
ENCODING 200
SWIDTH 687 0
DWIDTH 21 0
BBX 17 29 2 0
BITMAP
07C000
03C000
01C000
00E000
00E000
000000
000000
FFFF80
FFFF80
FFFF80
FFFF80
F80000
F80000
F80000
F80000
F80000
FFFF00
FFFF00
FFFF00
FFFF00
F80000
F80000
F80000
F80000
F80000
FFFF80
FFFF80
FFFF80
FFFF80
ENDCHAR
STARTCHAR 00C9
ENCODING 201
SWIDTH 687 0
DWIDTH 21 0
BBX 17 29 2 0
BITMAP
00F000
01E000
01E000
03C000
038000
000000
000000
FFFF80
FFFF80
FFFF80
FFFF80
F80000
F80000
F80000
F80000
F80000
FFFF00
FFFF00
FFFF00
FFFF00
F80000
F80000
F80000
F80000
F80000
FFFF80
FFFF80
FFFF80
FFFF80
ENDCHAR
STARTCHAR 00CA
ENCODING 202
SWIDTH 687 0
DWIDTH 21 0
BBX 17 28 2 0
BITMAP
03E000
07E000
0F7000
1E7800
000000
000000
FFFF80
FFFF80
FFFF80
FFFF80
F80000
F80000
F80000
F80000
F80000
FFFF00
FFFF00
FFFF00
FFFF00
F80000
F80000
F80000
F80000
F80000
FFFF80
FFFF80
FFFF80
FFFF80
ENDCHAR
STARTCHAR 00CB
ENCODING 203
SWIDTH 687 0
DWIDTH 21 0
BBX 17 27 2 0
BITMAP
1E3800
1E3800
1E3800
000000
000000
FFFF80
FFFF80
FFFF80
FFFF80
F80000
F80000
F80000
F80000
F80000
FFFF00
FFFF00
FFFF00
FFFF00
F80000
F80000
F80000
F80000
F80000
FFFF80
FFFF80
FFFF80
FFFF80
ENDCHAR
STARTCHAR 00CC
ENCODING 204
SWIDTH 294 0
DWIDTH 9 0
BBX 7 29 0 0
BITMAP
F8
78
38
1C
1C
00
00
3E
3E
3E
3E
3E
3E
3E
3E
3E
3E
3E
3E
3E
3E
3E
3E
3E
3E
3E
3E
3E
3E
ENDCHAR
STARTCHAR 00CD
ENCODING 205
SWIDTH 294 0
DWIDTH 9 0
BBX 6 29 2 0
BITMAP
3C
78
78
F0
E0
00
00
F8
F8
F8
F8
F8
F8
F8
F8
F8
F8
F8
F8
F8
F8
F8
F8
F8
F8
F8
F8
F8
F8
ENDCHAR
STARTCHAR 00CE
ENCODING 206
SWIDTH 294 0
DWIDTH 9 0
BBX 10 28 -1 0
BITMAP
1F00
3F00
7B80
F3C0
0000
0000
1F00
1F00
1F00
1F00
1F00
1F00
1F00
1F00
1F00
1F00
1F00
1F00
1F00
1F00
1F00
1F00
1F00
1F00
1F00
1F00
1F00
1F00
ENDCHAR
STARTCHAR 00CF
ENCODING 207
SWIDTH 294 0
DWIDTH 9 0
BBX 10 27 -1 0
BITMAP
F1C0
F1C0
F1C0
0000
0000
1F00
1F00
1F00
1F00
1F00
1F00
1F00
1F00
1F00
1F00
1F00
1F00
1F00
1F00
1F00
1F00
1F00
1F00
1F00
1F00
1F00
1F00
ENDCHAR
STARTCHAR 00D0
ENCODING 208
SWIDTH 720 0
DWIDTH 22 0
BBX 21 22 0 0
BITMAP
3FFE00
3FFF80
3FFFC0
3FFFE0
3E07E0
3E01F0
3E01F0
3E00F0
3E00F8
FFE0F8
FFE0F8
FFE0F8
3E00F8
3E00F8
3E00F8
3E00F0
3E01F0
3E03F0
3FFFE0
3FFFC0
3FFF80
3FFE00
ENDCHAR
STARTCHAR 00D1
ENCODING 209
SWIDTH 720 0
DWIDTH 22 0
BBX 18 28 2 0
BITMAP
078C00
0FFC00
0FFC00
0C7800
000000
000000
F803C0
FC03C0
FC03C0
FE03C0
FE03C0
FF03C0
FF83C0
F783C0
F7C3C0
F3C3C0
F1E3C0
F1E3C0
F0F3C0
F0FBC0
F07BC0
F03FC0
F03FC0
F01FC0
F01FC0
F00FC0
F007C0
F007C0
ENDCHAR
STARTCHAR 00D2
ENCODING 210
SWIDTH 785 0
DWIDTH 24 0
BBX 22 29 1 0
BITMAP
01F000
00F000
007000
003800
003800
000000
000000
01FE00
07FF80
0FFFC0
1FFFE0
3F03F0
7E01F8
7C00F8
7C0078
78007C
F8007C
F8007C
F8007C
F8007C
78007C
7C0078
7C00F8
7E01F8
3F83F0
1FFFF0
0FFFE0
07FF80
01FE00
ENDCHAR
STARTCHAR 00D3
ENCODING 211
SWIDTH 785 0
DWIDTH 24 0
BBX 22 29 1 0
BITMAP
001E00
003C00
003C00
007800
007000
000000
000000
01FE00
07FF80
0FFFC0
1FFFE0
3F03F0
7E01F8
7C00F8
7C0078
78007C
F8007C
F8007C
F8007C
F8007C
78007C
7C0078
7C00F8
7E01F8
3F83F0
1FFFF0
0FFFE0
07FF80
01FE00
ENDCHAR
STARTCHAR 00D4
ENCODING 212
SWIDTH 785 0
DWIDTH 24 0
BBX 22 28 1 0
BITMAP
007C00
00FC00
01EE00
03CF00
000000
000000
01FE00
07FF80
0FFFC0
1FFFE0
3F03F0
7E01F8
7C00F8
7C0078
78007C
F8007C
F8007C
F8007C
F8007C
78007C
7C0078
7C00F8
7E01F8
3F83F0
1FFFF0
0FFFE0
07FF80
01FE00
ENDCHAR
STARTCHAR 00D5
ENCODING 213
SWIDTH 785 0
DWIDTH 24 0
BBX 22 28 1 0
BITMAP
01E300
03FF00
03FF00
031E00
000000
000000
01FE00
07FF80
0FFFC0
1FFFE0
3F03F0
7E01F8
7C00F8
7C0078
78007C
F8007C
F8007C
F8007C
F8007C
78007C
7C0078
7C00F8
7E01F8
3F83F0
1FFFF0
0FFFE0
07FF80
01FE00
ENDCHAR
STARTCHAR 00D6
ENCODING 214
SWIDTH 785 0
DWIDTH 24 0
BBX 22 27 1 0
BITMAP
03C700
03C700
03C700
000000
000000
01FE00
07FF80
0FFFC0
1FFFE0
3F03F0
7E01F8
7C00F8
7C0078
78007C
F8007C
F8007C
F8007C
F8007C
78007C
7C0078
7C00F8
7E01F8
3F83F0
1FFFF0
0FFFE0
07FF80
01FE00
ENDCHAR
STARTCHAR 00D7
ENCODING 215
SWIDTH 589 0
DWIDTH 18 0
BBX 14 14 2 4
BITMAP
2010
7038
F87C
7CF8
3FF0
1FE0
0FC0
0FC0
1FE0
3FF0
7CF8
F87C
7038
2010
ENDCHAR
STARTCHAR 00D8
ENCODING 216
SWIDTH 785 0
DWIDTH 24 0
BBX 22 22 1 1
BITMAP
01FE18
07FFBC
0FFFF8
1FFFF0
3F03F0
7E03F8
7C03F8
7C0778
F80F7C
F81E7C
F83C7C
F8787C
F8F07C
79E07C
7FC078
7F80F8
7F01F8
3F03F0
3FFFE0
7FFFE0
F7FF80
61FE00
ENDCHAR
STARTCHAR 00D9
ENCODING 217
SWIDTH 720 0
DWIDTH 22 0
BBX 18 29 2 0
BITMAP
07C000
03C000
01C000
00E000
00E000
000000
000000
F807C0
F807C0
F807C0
F807C0
F807C0
F807C0
F807C0
F807C0
F807C0
F807C0
F807C0
F807C0
F807C0
F807C0
F807C0
F807C0
7807C0
7E0F80
7FFF80
3FFF00
1FFE00
07F800
ENDCHAR
STARTCHAR 00DA
ENCODING 218
SWIDTH 720 0
DWIDTH 22 0
BBX 18 29 2 0
BITMAP
007800
00F000
00F000
01E000
01C000
000000
000000
F807C0
F807C0
F807C0
F807C0
F807C0
F807C0
F807C0
F807C0
F807C0
F807C0
F807C0
F807C0
F807C0
F807C0
F807C0
F807C0
7807C0
7E0F80
7FFF80
3FFF00
1FFE00
07F800
ENDCHAR
STARTCHAR 00DB
ENCODING 219
SWIDTH 720 0
DWIDTH 22 0
BBX 18 28 2 0
BITMAP
01F000
03F000
07B800
0F3C00
000000
000000
F807C0
F807C0
F807C0
F807C0
F807C0
F807C0
F807C0
F807C0
F807C0
F807C0
F807C0
F807C0
F807C0
F807C0
F807C0
F807C0
7807C0
7E0F80
7FFF80
3FFF00
1FFE00
07F800
ENDCHAR
STARTCHAR 00DC
ENCODING 220
SWIDTH 720 0
DWIDTH 22 0
BBX 18 27 2 0
BITMAP
0F1C00
0F1C00
0F1C00
000000
000000
F807C0
F807C0
F807C0
F807C0
F807C0
F807C0
F807C0
F807C0
F807C0
F807C0
F807C0
F807C0
F807C0
F807C0
F807C0
F807C0
7807C0
7E0F80
7FFF80
3FFF00
1FFE00
07F800
ENDCHAR
STARTCHAR 00DD
ENCODING 221
SWIDTH 687 0
DWIDTH 21 0
BBX 20 29 0 0
BITMAP
003C00
007800
007800
00F000
00E000
000000
000000
FC01F0
7C01F0
3E03E0
3E07C0
1F07C0
1F0F80
0F8F80
07DF00
07DE00
03FE00
01FC00
01F800
00F800
00F800
00F800
00F800
00F800
00F800
00F800
00F800
00F800
00F800
ENDCHAR
STARTCHAR 00DE
ENCODING 222
SWIDTH 687 0
DWIDTH 21 0
BBX 17 22 2 0
BITMAP
F80000
F80000
F80000
F80000
FFF800
FFFE00
FFFF00
FFFF80
F81F80
F80F80
F80780
F80780
F80F80
F81F80
FFFF00
FFFF00
FFFE00
FFF800
F80000
F80000
F80000
F80000
ENDCHAR
STARTCHAR 00DF
ENCODING 223
SWIDTH 621 0
DWIDTH 19 0
BBX 16 22 2 0
BITMAP
0FC0
3FF0
7FF0
78F8
F878
F0F8
F0F0
F1F0
F1E0
F1E0
F3E0
F1F0
F1F8
F0FC
F07E
F03F
F01F
F08F
F39F
F3FE
F1FC
F0F8
ENDCHAR
STARTCHAR 00E0
ENCODING 224
SWIDTH 556 0
DWIDTH 17 0
BBX 15 24 1 0
BITMAP
1F00
0F00
0700
0380
0380
0000
0000
0000
0FE0
3FF8
7FFC
787C
383C
003C
00FC
0FFC
3FFC
7F3C
F83C
F03C
F87C
7FFC
7FDE
1F1E
ENDCHAR
STARTCHAR 00E1
ENCODING 225
SWIDTH 556 0
DWIDTH 17 0
BBX 15 24 1 0
BITMAP
00F0
01E0
01E0
03C0
0380
0000
0000
0000
0FE0
3FF8
7FFC
787C
383C
003C
00FC
0FFC
3FFC
7F3C
F83C
F03C
F87C
7FFC
7FDE
1F1E
ENDCHAR
STARTCHAR 00E2
ENCODING 226
SWIDTH 556 0
DWIDTH 17 0
BBX 15 23 1 0
BITMAP
07C0
0FC0
1EE0
3CF0
0000
0000
0000
0FE0
3FF8
7FFC
787C
383C
003C
00FC
0FFC
3FFC
7F3C
F83C
F03C
F87C
7FFC
7FDE
1F1E
ENDCHAR
STARTCHAR 00E3
ENCODING 227
SWIDTH 556 0
DWIDTH 17 0
BBX 15 23 1 0
BITMAP
0F18
1FF8
1FF8
18F0
0000
0000
0000
0FE0
3FF8
7FFC
787C
383C
003C
00FC
0FFC
3FFC
7F3C
F83C
F03C
F87C
7FFC
7FDE
1F1E
ENDCHAR
STARTCHAR 00E4
ENCODING 228
SWIDTH 556 0
DWIDTH 17 0
BBX 15 22 1 0
BITMAP
1E38
1E38
1E38
0000
0000
0000
0FE0
3FF8
7FFC
787C
383C
003C
00FC
0FFC
3FFC
7F3C
F83C
F03C
F87C
7FFC
7FDE
1F1E
ENDCHAR
STARTCHAR 00E5
ENCODING 229
SWIDTH 556 0
DWIDTH 17 0
BBX 15 25 1 0
BITMAP
0380
07C0
0CC0
0CC0
07C0
0780
0000
0000
0000
0FE0
3FF8
7FFC
787C
383C
003C
00FC
0FFC
3FFC
7F3C
F83C
F03C
F87C
7FFC
7FDE
1F1E
ENDCHAR
STARTCHAR 00E6
ENCODING 230
SWIDTH 916 0
DWIDTH 28 0
BBX 25 16 1 0
BITMAP
0FE1F000
3FFFFC00
3FFFFE00
7C7F0F00
183E0700
003E0780
00FFFF80
0FFFFF80
3FFFFF80
7F3C0000
F83E0000
F83E0000
F87F0E00
7FFFFF80
7FE7FF00
1F81FC00
ENDCHAR
STARTCHAR 00E7
ENCODING 231
SWIDTH 556 0
DWIDTH 17 0
BBX 15 22 1 -6
BITMAP
07E0
1FF8
3FFC
7C3E
781E
7818
F800
F800
F800
F800
7818
781E
7C3E
3FFC
1FF8
07E0
07C0
07E0
0070
0070
0FE0
0FC0
ENDCHAR
STARTCHAR 00E8
ENCODING 232
SWIDTH 556 0
DWIDTH 17 0
BBX 15 24 1 0
BITMAP
1F00
0F00
0700
0380
0380
0000
0000
0000
07C0
1FF0
3FF8
7C7C
783C
F01E
FFFE
FFFE
FFFE
F000
F800
7800
7C38
3FFC
1FF8
07E0
ENDCHAR
STARTCHAR 00E9
ENCODING 233
SWIDTH 556 0
DWIDTH 17 0
BBX 15 24 1 0
BITMAP
00F0
01E0
01E0
03C0
0380
0000
0000
0000
07C0
1FF0
3FF8
7C7C
783C
F01E
FFFE
FFFE
FFFE
F000
F800
7800
7C38
3FFC
1FF8
07E0
ENDCHAR
STARTCHAR 00EA
ENCODING 234
SWIDTH 556 0
DWIDTH 17 0
BBX 15 23 1 0
BITMAP
07C0
0FC0
1EE0
3CF0
0000
0000
0000
07C0
1FF0
3FF8
7C7C
783C
F01E
FFFE
FFFE
FFFE
F000
F800
7800
7C38
3FFC
1FF8
07E0
ENDCHAR
STARTCHAR 00EB
ENCODING 235
SWIDTH 556 0
DWIDTH 17 0
BBX 15 22 1 0
BITMAP
3C70
3C70
3C70
0000
0000
0000
07C0
1FF0
3FF8
7C7C
783C
F01E
FFFE
FFFE
FFFE
F000
F800
7800
7C38
3FFC
1FF8
07E0
ENDCHAR
STARTCHAR 00EC
ENCODING 236
SWIDTH 294 0
DWIDTH 9 0
BBX 6 24 0 0
BITMAP
F8
78
38
1C
1C
00
00
00
3C
3C
3C
3C
3C
3C
3C
3C
3C
3C
3C
3C
3C
3C
3C
3C
ENDCHAR
STARTCHAR 00ED
ENCODING 237
SWIDTH 294 0
DWIDTH 9 0
BBX 6 24 2 0
BITMAP
3C
78
78
F0
E0
00
00
00
F0
F0
F0
F0
F0
F0
F0
F0
F0
F0
F0
F0
F0
F0
F0
F0
ENDCHAR
STARTCHAR 00EE
ENCODING 238
SWIDTH 294 0
DWIDTH 9 0
BBX 10 23 -1 0
BITMAP
1F00
3F00
7B80
F3C0
0000
0000
0000
1E00
1E00
1E00
1E00
1E00
1E00
1E00
1E00
1E00
1E00
1E00
1E00
1E00
1E00
1E00
1E00
ENDCHAR
STARTCHAR 00EF
ENCODING 239
SWIDTH 294 0
DWIDTH 9 0
BBX 10 22 -1 0
BITMAP
F1C0
F1C0
F1C0
0000
0000
0000
1E00
1E00
1E00
1E00
1E00
1E00
1E00
1E00
1E00
1E00
1E00
1E00
1E00
1E00
1E00
1E00
ENDCHAR
STARTCHAR 00F0
ENCODING 240
SWIDTH 621 0
DWIDTH 19 0
BBX 17 22 1 0
BITMAP
078800
03F800
01F000
07F000
0E7800
003C00
07FE00
1FFE00
3FFF00
7E3F00
7C1F00
780F80
F80F80
F80F80
F80F80
F80F80
780F00
7C1F00
3E3E00
3FFE00
1FFC00
07F000
ENDCHAR
STARTCHAR 00F1
ENCODING 241
SWIDTH 621 0
DWIDTH 19 0
BBX 15 23 2 0
BITMAP
1E30
3FF0
3FF0
31E0
0000
0000
0000
F1F0
F7FC
FFFC
FC3E
F83E
F83E
F81E
F01E
F01E
F01E
F01E
F01E
F01E
F01E
F01E
F01E
ENDCHAR
STARTCHAR 00F2
ENCODING 242
SWIDTH 621 0
DWIDTH 19 0
BBX 17 24 1 0
BITMAP
0F8000
078000
038000
01C000
01C000
000000
000000
000000
07F000
1FFC00
3FFE00
7E3F00
7C1F00
780F00
F80F80
F80F80
F80F80
F80F80
780F00
7C1F00
7E3F00
3FFE00
1FFC00
07F000
ENDCHAR
STARTCHAR 00F3
ENCODING 243
SWIDTH 621 0
DWIDTH 19 0
BBX 17 24 1 0
BITMAP
007800
00F000
00F000
01E000
01C000
000000
000000
000000
07F000
1FFC00
3FFE00
7E3F00
7C1F00
780F00
F80F80
F80F80
F80F80
F80F80
780F00
7C1F00
7E3F00
3FFE00
1FFC00
07F000
ENDCHAR
STARTCHAR 00F4
ENCODING 244
SWIDTH 621 0
DWIDTH 19 0
BBX 17 23 1 0
BITMAP
03E000
07E000
0F7000
1E7800
000000
000000
000000
07F000
1FFC00
3FFE00
7E3F00
7C1F00
780F00
F80F80
F80F80
F80F80
F80F80
780F00
7C1F00
7E3F00
3FFE00
1FFC00
07F000
ENDCHAR
STARTCHAR 00F5
ENCODING 245
SWIDTH 621 0
DWIDTH 19 0
BBX 17 23 1 0
BITMAP
078C00
0FFC00
0FFC00
0C7800
000000
000000
000000
07F000
1FFC00
3FFE00
7E3F00
7C1F00
780F00
F80F80
F80F80
F80F80
F80F80
780F00
7C1F00
7E3F00
3FFE00
1FFC00
07F000
ENDCHAR
STARTCHAR 00F6
ENCODING 246
SWIDTH 621 0
DWIDTH 19 0
BBX 17 22 1 0
BITMAP
1E3800
1E3800
1E3800
000000
000000
000000
07F000
1FFC00
3FFE00
7E3F00
7C1F00
780F00
F80F80
F80F80
F80F80
F80F80
780F00
7C1F00
7E3F00
3FFE00
1FFC00
07F000
ENDCHAR
STARTCHAR 00F7
ENCODING 247
SWIDTH 556 0
DWIDTH 17 0
BBX 15 16 1 3
BITMAP
07C0
07C0
07C0
07C0
0000
0000
FFFE
FFFE
FFFE
FFFE
0000
0000
07C0
07C0
07C0
07C0
ENDCHAR
STARTCHAR 00F8
ENCODING 248
SWIDTH 621 0
DWIDTH 19 0
BBX 17 16 1 1
BITMAP
07F300
1FFF80
3FFE00
3E1F00
7C3F00
787F00
F8FF80
F9E780
F9C780
FB8780
7F0F80
7E0F00
3E1F00
3FFE00
7FFC00
67F000
ENDCHAR
STARTCHAR 00F9
ENCODING 249
SWIDTH 621 0
DWIDTH 19 0
BBX 15 24 2 0
BITMAP
1F00
0F00
0700
0380
0380
0000
0000
0000
F03E
F03E
F03E
F03E
F03E
F03E
F03E
F03E
F03E
F03E
F03E
F83E
F87E
7FFE
7FDE
1F1E
ENDCHAR
STARTCHAR 00FA
ENCODING 250
SWIDTH 621 0
DWIDTH 19 0
BBX 15 24 2 0
BITMAP
01E0
03C0
03C0
0780
0700
0000
0000
0000
F03E
F03E
F03E
F03E
F03E
F03E
F03E
F03E
F03E
F03E
F03E
F83E
F87E
7FFE
7FDE
1F1E
ENDCHAR
STARTCHAR 00FB
ENCODING 251
SWIDTH 621 0
DWIDTH 19 0
BBX 15 23 2 0
BITMAP
07C0
0FC0
1EE0
3CF0
0000
0000
0000
F03E
F03E
F03E
F03E
F03E
F03E
F03E
F03E
F03E
F03E
F03E
F83E
F87E
7FFE
7FDE
1F1E
ENDCHAR
STARTCHAR 00FC
ENCODING 252
SWIDTH 621 0
DWIDTH 19 0
BBX 15 22 2 0
BITMAP
3C70
3C70
3C70
0000
0000
0000
F03E
F03E
F03E
F03E
F03E
F03E
F03E
F03E
F03E
F03E
F03E
F83E
F87E
7FFE
7FDE
1F1E
ENDCHAR
STARTCHAR 00FD
ENCODING 253
SWIDTH 556 0
DWIDTH 17 0
BBX 17 30 0 -6
BITMAP
007800
00F000
00F000
01E000
01C000
000000
000000
000000
F80F80
780F00
7C0F00
3C1E00
3C1E00
3E1E00
1E3C00
1E3C00
1F3C00
0F7800
0F7800
07F800
07F000
07F000
03E000
03E000
03E000
03C000
07C000
7F8000
7F8000
3E0000
ENDCHAR
STARTCHAR 00FE
ENCODING 254
SWIDTH 621 0
DWIDTH 19 0
BBX 16 28 2 -6
BITMAP
F000
F000
F000
F000
F000
F000
F1F0
F7F8
FFFC
FC3E
F81E
F81F
F01F
F01F
F01F
F01F
F81F
F81E
FC3E
FFFC
F7F8
F1F0
F000
F000
F000
F000
F000
F000
ENDCHAR
STARTCHAR 00FF
ENCODING 255
SWIDTH 556 0
DWIDTH 17 0
BBX 17 28 0 -6
BITMAP
1E3800
1E3800
1E3800
000000
000000
000000
F80F80
780F00
7C0F00
3C1E00
3C1E00
3E1E00
1E3C00
1E3C00
1F3C00
0F7800
0F7800
07F800
07F000
07F000
03E000
03E000
03E000
03C000
07C000
7F8000
7F8000
3E0000
ENDCHAR
STARTCHAR 0100
ENCODING 256
SWIDTH 720 0
DWIDTH 22 0
BBX 22 27 0 0
BITMAP
03FF00
03FF00
03FF00
000000
000000
00FC00
00FC00
00FC00
01FE00
01FE00
03DF00
03CF00
03CF00
078F80
078780
0787C0
0F03C0
0F03C0
1FFFE0
1FFFE0
1FFFF0
3FFFF0
3C00F0
7C00F8
7C00F8
78007C
F8007C
ENDCHAR
STARTCHAR 0101
ENCODING 257
SWIDTH 556 0
DWIDTH 17 0
BBX 15 22 1 0
BITMAP
3FF0
3FF0
3FF0
0000
0000
0000
0FE0
3FF8
7FFC
787C
383C
003C
00FC
0FFC
3FFC
7F3C
F83C
F03C
F87C
7FFC
7FDE
1F1E
ENDCHAR
STARTCHAR 0102
ENCODING 258
SWIDTH 720 0
DWIDTH 22 0
BBX 22 28 0 0
BITMAP
038300
018600
01FE00
007800
000000
000000
00FC00
00FC00
00FC00
01FE00
01FE00
03DF00
03CF00
03CF00
078F80
078780
0787C0
0F03C0
0F03C0
1FFFE0
1FFFE0
1FFFF0
3FFFF0
3C00F0
7C00F8
7C00F8
78007C
F8007C
ENDCHAR
STARTCHAR 0103
ENCODING 259
SWIDTH 556 0
DWIDTH 17 0
BBX 15 23 1 0
BITMAP
3830
1860
1FE0
0780
0000
0000
0000
0FE0
3FF8
7FFC
787C
383C
003C
00FC
0FFC
3FFC
7F3C
F83C
F03C
F87C
7FFC
7FDE
1F1E
ENDCHAR
STARTCHAR 0104
ENCODING 260
SWIDTH 720 0
DWIDTH 22 0
BBX 22 28 0 -6
BITMAP
00FC00
00FC00
00FC00
01FE00
01FE00
03DF00
03CF00
03CF00
078F80
078780
0787C0
0F03C0
0F03C0
1FFFE0
1FFFE0
1FFFF0
3FFFF0
3C00F0
7C00F8
7C00F8
78007C
F8007C
000038
000070
000070
000070
00007C
00003C
ENDCHAR
STARTCHAR 0105
ENCODING 261
SWIDTH 556 0
DWIDTH 17 0
BBX 15 22 1 -6
BITMAP
0FE0
3FF8
7FFC
787C
383C
003C
00FC
0FFC
3FFC
7F3C
F83C
F03C
F87C
7FFC
7FDE
1F1E
001C
0038
0038
0038
003E
001E
ENDCHAR
STARTCHAR 0106
ENCODING 262
SWIDTH 720 0
DWIDTH 22 0
BBX 20 29 1 0
BITMAP
003C00
007800
007800
00F000
00E000
000000
000000
01FC00
07FF00
0FFF80
1FFFC0
3F07E0
3E03E0
7C01F0
7C01C0
780000
780000
F80000
F80000
780000
7801C0
7C01F0
7C01E0
7E03E0
3F07C0
1FFFC0
0FFF80
07FF00
01FC00
ENDCHAR
STARTCHAR 0107
ENCODING 263
SWIDTH 556 0
DWIDTH 17 0
BBX 15 24 1 0
BITMAP
00F0
01E0
01E0
03C0
0380
0000
0000
0000
07E0
1FF8
3FFC
7C3E
781E
7818
F800
F800
F800
F800
7818
781E
7C3E
3FFC
1FF8
07E0
ENDCHAR
STARTCHAR 0108
ENCODING 264
SWIDTH 720 0
DWIDTH 22 0
BBX 20 28 1 0
BITMAP
00F800
01F800
03DC00
079E00
000000
000000
01FC00
07FF00
0FFF80
1FFFC0
3F07E0
3E03E0
7C01F0
7C01C0
780000
780000
F80000
F80000
780000
7801C0
7C01F0
7C01E0
7E03E0
3F07C0
1FFFC0
0FFF80
07FF00
01FC00
ENDCHAR
STARTCHAR 0109
ENCODING 265
SWIDTH 556 0
DWIDTH 17 0
BBX 15 23 1 0
BITMAP
07C0
0FC0
1EE0
3CF0
0000
0000
0000
07E0
1FF8
3FFC
7C3E
781E
7818
F800
F800
F800
F800
7818
781E
7C3E
3FFC
1FF8
07E0
ENDCHAR
STARTCHAR 010A
ENCODING 266
SWIDTH 720 0
DWIDTH 22 0
BBX 20 28 1 0
BITMAP
00F000
00F000
00F000
00F000
000000
000000
01FC00
07FF00
0FFF80
1FFFC0
3F07E0
3E03E0
7C01F0
7C01C0
780000
780000
F80000
F80000
780000
7801C0
7C01F0
7C01E0
7E03E0
3F07C0
1FFFC0
0FFF80
07FF00
01FC00
ENDCHAR
STARTCHAR 010B
ENCODING 267
SWIDTH 556 0
DWIDTH 17 0
BBX 15 23 1 0
BITMAP
0780
0780
0780
0780
0000
0000
0000
07E0
1FF8
3FFC
7C3E
781E
7818
F800
F800
F800
F800
7818
781E
7C3E
3FFC
1FF8
07E0
ENDCHAR
STARTCHAR 010C
ENCODING 268
SWIDTH 720 0
DWIDTH 22 0
BBX 20 28 1 0
BITMAP
079E00
03DC00
01F800
00F800
000000
000000
01FC00
07FF00
0FFF80
1FFFC0
3F07E0
3E03E0
7C01F0
7C01C0
780000
780000
F80000
F80000
780000
7801C0
7C01F0
7C01E0
7E03E0
3F07C0
1FFFC0
0FFF80
07FF00
01FC00
ENDCHAR
STARTCHAR 010D
ENCODING 269
SWIDTH 556 0
DWIDTH 17 0
BBX 15 23 1 0
BITMAP
1E78
0F70
07E0
03E0
0000
0000
0000
07E0
1FF8
3FFC
7C3E
781E
7818
F800
F800
F800
F800
7818
781E
7C3E
3FFC
1FF8
07E0
ENDCHAR
STARTCHAR 010E
ENCODING 270
SWIDTH 720 0
DWIDTH 22 0
BBX 19 28 2 0
BITMAP
3CF000
1EE000
0FC000
07C000
000000
000000
FFF800
FFFE00
FFFF00
FFFF80
F81F80
F807C0
F807C0
F803C0
F803E0
F803E0
F803E0
F803E0
F803E0
F803E0
F803E0
F803C0
F807C0
F80F80
FFFF80
FFFF00
FFFE00
FFF800
ENDCHAR
STARTCHAR 010F
ENCODING 271
SWIDTH 720 0
DWIDTH 22 0
BBX 21 22 1 0
BITMAP
000F78
000F78
000F78
000F78
000F18
000F38
0F8F70
1FEF20
3FFF00
7C3F00
781F00
F81F00
F80F00
F80F00
F80F00
F80F00
F81F00
781F00
7C3F00
3FFF00
1FEF00
0FCF00
ENDCHAR
STARTCHAR 0110
ENCODING 272
SWIDTH 720 0
DWIDTH 22 0
BBX 21 22 0 0
BITMAP
3FFE00
3FFF80
3FFFC0
3FFFE0
3E07E0
3E01F0
3E01F0
3E00F0
3E00F8
FFE0F8
FFE0F8
FFE0F8
3E00F8
3E00F8
3E00F8
3E00F0
3E01F0
3E03F0
3FFFE0
3FFFC0
3FFF80
3FFE00
ENDCHAR
STARTCHAR 0111
ENCODING 273
SWIDTH 621 0
DWIDTH 19 0
BBX 18 22 1 0
BITMAP
000F00
000F00
01FFC0
01FFC0
01FFC0
000F00
0F8F00
1FEF00
3FFF00
7C3F00
781F00
F81F00
F80F00
F80F00
F80F00
F80F00
781F00
781F00
7C3F00
3FFF00
1FEF00
07CF00
ENDCHAR
STARTCHAR 0112
ENCODING 274
SWIDTH 687 0
DWIDTH 21 0
BBX 17 27 2 0
BITMAP
1FF800
1FF800
1FF800
000000
000000
FFFF80
FFFF80
FFFF80
FFFF80
F80000
F80000
F80000
F80000
F80000
FFFF00
FFFF00
FFFF00
FFFF00
F80000
F80000
F80000
F80000
F80000
FFFF80
FFFF80
FFFF80
FFFF80
ENDCHAR
STARTCHAR 0113
ENCODING 275
SWIDTH 556 0
DWIDTH 17 0
BBX 15 22 1 0
BITMAP
3FF0
3FF0
3FF0
0000
0000
0000
07C0
1FF0
3FF8
7C7C
783C
F01E
FFFE
FFFE
FFFE
F000
F800
7800
7C38
3FFC
1FF8
07E0
ENDCHAR
STARTCHAR 0114
ENCODING 276
SWIDTH 687 0
DWIDTH 21 0
BBX 17 28 2 0
BITMAP
1C1800
0C3000
0FF000
03C000
000000
000000
FFFF80
FFFF80
FFFF80
FFFF80
F80000
F80000
F80000
F80000
F80000
FFFF00
FFFF00
FFFF00
FFFF00
F80000
F80000
F80000
F80000
F80000
FFFF80
FFFF80
FFFF80
FFFF80
ENDCHAR
STARTCHAR 0115
ENCODING 277
SWIDTH 556 0
DWIDTH 17 0
BBX 15 23 1 0
BITMAP
3830
1860
1FE0
0780
0000
0000
0000
07C0
1FF0
3FF8
7C7C
783C
F01E
FFFE
FFFE
FFFE
F000
F800
7800
7C38
3FFC
1FF8
07E0
ENDCHAR
STARTCHAR 0116
ENCODING 278
SWIDTH 687 0
DWIDTH 21 0
BBX 17 28 2 0
BITMAP
03C000
03C000
03C000
03C000
000000
000000
FFFF80
FFFF80
FFFF80
FFFF80
F80000
F80000
F80000
F80000
F80000
FFFF00
FFFF00
FFFF00
FFFF00
F80000
F80000
F80000
F80000
F80000
FFFF80
FFFF80
FFFF80
FFFF80
ENDCHAR
STARTCHAR 0117
ENCODING 279
SWIDTH 556 0
DWIDTH 17 0
BBX 15 23 1 0
BITMAP
0780
0780
0780
0780
0000
0000
0000
07C0
1FF0
3FF8
7C7C
783C
F01E
FFFE
FFFE
FFFE
F000
F800
7800
7C38
3FFC
1FF8
07E0
ENDCHAR
STARTCHAR 0118
ENCODING 280
SWIDTH 687 0
DWIDTH 21 0
BBX 17 28 2 -6
BITMAP
FFFF80
FFFF80
FFFF80
FFFF80
F80000
F80000
F80000
F80000
F80000
FFFF00
FFFF00
FFFF00
FFFF00
F80000
F80000
F80000
F80000
F80000
FFFF80
FFFF80
FFFF80
FFFF80
000700
000E00
000E00
000E00
000F80
000780
ENDCHAR
STARTCHAR 0119
ENCODING 281
SWIDTH 556 0
DWIDTH 17 0
BBX 15 22 1 -6
BITMAP
07C0
1FF0
3FF8
7C7C
783C
F01E
FFFE
FFFE
FFFE
F000
F800
7800
7C38
3FFC
1FF8
07E0
01C0
0380
0380
0380
03E0
01E0
ENDCHAR
STARTCHAR 011A
ENCODING 282
SWIDTH 687 0
DWIDTH 21 0
BBX 17 28 2 0
BITMAP
1E7800
0F7000
07E000
03E000
000000
000000
FFFF80
FFFF80
FFFF80
FFFF80
F80000
F80000
F80000
F80000
F80000
FFFF00
FFFF00
FFFF00
FFFF00
F80000
F80000
F80000
F80000
F80000
FFFF80
FFFF80
FFFF80
FFFF80
ENDCHAR
STARTCHAR 011B
ENCODING 283
SWIDTH 556 0
DWIDTH 17 0
BBX 15 23 1 0
BITMAP
3CF0
1EE0
0FC0
07C0
0000
0000
0000
07C0
1FF0
3FF8
7C7C
783C
F01E
FFFE
FFFE
FFFE
F000
F800
7800
7C38
3FFC
1FF8
07E0
ENDCHAR
STARTCHAR 011C
ENCODING 284
SWIDTH 785 0
DWIDTH 24 0
BBX 21 28 1 0
BITMAP
007C00
00FC00
01EE00
03CF00
000000
000000
00FE00
07FF80
0FFFE0
1FFFE0
3F83F0
3E01F8
7C00F8
7C00E0
780000
780000
F80FF8
F80FF8
780FF8
780FF8
7C0078
7C0078
3E0078
3F83F8
1FFFF8
0FFFF0
07FFC0
00FE00
ENDCHAR
STARTCHAR 011D
ENCODING 285
SWIDTH 621 0
DWIDTH 19 0
BBX 16 29 1 -6
BITMAP
03E0
07E0
0F70
1E78
0000
0000
0000
0F8F
1FEF
3FFF
7C3F
781F
781F
F80F
F80F
F80F
F80F
781F
781F
7C3F
3FFF
1FEF
0F8F
000F
600F
7C1E
7FFE
3FFC
0FF0
ENDCHAR
STARTCHAR 011E
ENCODING 286
SWIDTH 785 0
DWIDTH 24 0
BBX 21 28 1 0
BITMAP
01C180
00C300
00FF00
003C00
000000
000000
00FE00
07FF80
0FFFE0
1FFFE0
3F83F0
3E01F8
7C00F8
7C00E0
780000
780000
F80FF8
F80FF8
780FF8
780FF8
7C0078
7C0078
3E0078
3F83F8
1FFFF8
0FFFF0
07FFC0
00FE00
ENDCHAR
STARTCHAR 011F
ENCODING 287
SWIDTH 621 0
DWIDTH 19 0
BBX 16 29 1 -6
BITMAP
1C18
0C30
0FF0
03C0
0000
0000
0000
0F8F
1FEF
3FFF
7C3F
781F
781F
F80F
F80F
F80F
F80F
781F
781F
7C3F
3FFF
1FEF
0F8F
000F
600F
7C1E
7FFE
3FFC
0FF0
ENDCHAR
STARTCHAR 0120
ENCODING 288
SWIDTH 785 0
DWIDTH 24 0
BBX 21 28 1 0
BITMAP
007800
007800
007800
007800
000000
000000
00FE00
07FF80
0FFFE0
1FFFE0
3F83F0
3E01F8
7C00F8
7C00E0
780000
780000
F80FF8
F80FF8
780FF8
780FF8
7C0078
7C0078
3E0078
3F83F8
1FFFF8
0FFFF0
07FFC0
00FE00
ENDCHAR
STARTCHAR 0121
ENCODING 289
SWIDTH 621 0
DWIDTH 19 0
BBX 16 29 1 -6
BITMAP
03C0
03C0
03C0
03C0
0000
0000
0000
0F8F
1FEF
3FFF
7C3F
781F
781F
F80F
F80F
F80F
F80F
781F
781F
7C3F
3FFF
1FEF
0F8F
000F
600F
7C1E
7FFE
3FFC
0FF0
ENDCHAR
STARTCHAR 0122
ENCODING 290
SWIDTH 785 0
DWIDTH 24 0
BBX 21 28 1 -6
BITMAP
00FE00
07FF80
0FFFE0
1FFFE0
3F83F0
3E01F8
7C00F8
7C00E0
780000
780000
F80FF8
F80FF8
780FF8
780FF8
7C0078
7C0078
3E0078
3F83F8
1FFFF8
0FFFF0
07FFC0
01FE00
00F800
00FC00
000E00
000E00
03FC00
03F000
ENDCHAR
STARTCHAR 0123
ENCODING 291
SWIDTH 621 0
DWIDTH 19 0
BBX 16 32 1 -6
BITMAP
00C0
01C0
0380
0300
07C0
07C0
07C0
0000
0000
0000
0F8F
1FEF
3FFF
7C3F
781F
781F
F80F
F80F
F80F
F80F
781F
781F
7C3F
3FFF
1FEF
0F8F
000F
600F
7C1E
7FFE
3FFC
0FF0
ENDCHAR
STARTCHAR 0124
ENCODING 292
SWIDTH 720 0
DWIDTH 22 0
BBX 18 28 2 0
BITMAP
01F000
03F000
07B800
0F3C00
000000
000000
F803C0
F803C0
F803C0
F803C0
F803C0
F803C0
F803C0
F803C0
F803C0
FFFFC0
FFFFC0
FFFFC0
FFFFC0
F803C0
F803C0
F803C0
F803C0
F803C0
F803C0
F803C0
F803C0
F803C0
ENDCHAR
STARTCHAR 0125
ENCODING 293
SWIDTH 621 0
DWIDTH 19 0
BBX 15 28 2 0
BITMAP
07C0
0FC0
1EE0
3CF0
0000
0000
F000
F000
F000
F000
F000
F000
F1F0
F7F8
FFFC
FC3E
F83E
F81E
F81E
F01E
F01E
F01E
F01E
F01E
F01E
F01E
F01E
F01E
ENDCHAR
STARTCHAR 0126
ENCODING 294
SWIDTH 720 0
DWIDTH 22 0
BBX 22 22 0 0
BITMAP
3E00F0
3E00F0
3E00F0
FFFFFC
FFFFFC
FFFFFC
3E00F0
3E00F0
3E00F0
3FFFF0
3FFFF0
3FFFF0
3FFFF0
3E00F0
3E00F0
3E00F0
3E00F0
3E00F0
3E00F0
3E00F0
3E00F0
3E00F0
ENDCHAR
STARTCHAR 0127
ENCODING 295
SWIDTH 621 0
DWIDTH 19 0
BBX 17 22 0 0
BITMAP
3C0000
3C0000
FFE000
FFE000
FFE000
3C0000
3C7C00
3DFE00
3FFF00
3F0F80
3E0F80
3E0780
3E0780
3C0780
3C0780
3C0780
3C0780
3C0780
3C0780
3C0780
3C0780
3C0780
ENDCHAR
STARTCHAR 0128
ENCODING 296
SWIDTH 294 0
DWIDTH 9 0
BBX 10 28 -1 0
BITMAP
78C0
FFC0
FFC0
C780
0000
0000
1F00
1F00
1F00
1F00
1F00
1F00
1F00
1F00
1F00
1F00
1F00
1F00
1F00
1F00
1F00
1F00
1F00
1F00
1F00
1F00
1F00
1F00
ENDCHAR
STARTCHAR 0129
ENCODING 297
SWIDTH 294 0
DWIDTH 9 0
BBX 10 23 -1 0
BITMAP
78C0
FFC0
FFC0
C780
0000
0000
0000
1E00
1E00
1E00
1E00
1E00
1E00
1E00
1E00
1E00
1E00
1E00
1E00
1E00
1E00
1E00
1E00
ENDCHAR
STARTCHAR 012A
ENCODING 298
SWIDTH 294 0
DWIDTH 9 0
BBX 10 27 -1 0
BITMAP
FFC0
FFC0
FFC0
0000
0000
1F00
1F00
1F00
1F00
1F00
1F00
1F00
1F00
1F00
1F00
1F00
1F00
1F00
1F00
1F00
1F00
1F00
1F00
1F00
1F00
1F00
1F00
ENDCHAR
STARTCHAR 012B
ENCODING 299
SWIDTH 294 0
DWIDTH 9 0
BBX 10 22 -1 0
BITMAP
FFC0
FFC0
FFC0
0000
0000
0000
1E00
1E00
1E00
1E00
1E00
1E00
1E00
1E00
1E00
1E00
1E00
1E00
1E00
1E00
1E00
1E00
ENDCHAR
STARTCHAR 012C
ENCODING 300
SWIDTH 294 0
DWIDTH 9 0
BBX 10 28 -1 0
BITMAP
E0C0
6180
7F80
1E00
0000
0000
1F00
1F00
1F00
1F00
1F00
1F00
1F00
1F00
1F00
1F00
1F00
1F00
1F00
1F00
1F00
1F00
1F00
1F00
1F00
1F00
1F00
1F00
ENDCHAR
STARTCHAR 012D
ENCODING 301
SWIDTH 294 0
DWIDTH 9 0
BBX 10 23 -1 0
BITMAP
E0C0
6180
7F80
1E00
0000
0000
0000
1E00
1E00
1E00
1E00
1E00
1E00
1E00
1E00
1E00
1E00
1E00
1E00
1E00
1E00
1E00
1E00
ENDCHAR
STARTCHAR 012E
ENCODING 302
SWIDTH 294 0
DWIDTH 9 0
BBX 6 28 1 -6
BITMAP
7C
7C
7C
7C
7C
7C
7C
7C
7C
7C
7C
7C
7C
7C
7C
7C
7C
7C
7C
7C
7C
7C
70
E0
E0
E0
F8
78
ENDCHAR
STARTCHAR 012F
ENCODING 303
SWIDTH 294 0
DWIDTH 9 0
BBX 5 28 1 -6
BITMAP
78
78
78
00
00
00
78
78
78
78
78
78
78
78
78
78
78
78
78
78
78
78
70
E0
E0
E0
F8
78
ENDCHAR
STARTCHAR 0130
ENCODING 304
SWIDTH 294 0
DWIDTH 9 0
BBX 5 28 2 0
BITMAP
F0
F0
F0
F0
00
00
F8
F8
F8
F8
F8
F8
F8
F8
F8
F8
F8
F8
F8
F8
F8
F8
F8
F8
F8
F8
F8
F8
ENDCHAR
STARTCHAR 0131
ENCODING 305
SWIDTH 294 0
DWIDTH 9 0
BBX 4 16 2 0
BITMAP
F0
F0
F0
F0
F0
F0
F0
F0
F0
F0
F0
F0
F0
F0
F0
F0
ENDCHAR
STARTCHAR 0132
ENCODING 306
SWIDTH 785 0
DWIDTH 24 0
BBX 20 22 2 0
BITMAP
F801F0
F801F0
F801F0
F801F0
F801F0
F801F0
F801F0
F801F0
F801F0
F801F0
F801F0
F801F0
F801F0
F801F0
FBC1F0
FBC1F0
FBC1F0
FBE3E0
FBFFE0
F9FFC0
F8FF80
F87F00
ENDCHAR
STARTCHAR 0133
ENCODING 307
SWIDTH 556 0
DWIDTH 17 0
BBX 12 28 2 -6
BITMAP
F0F0
F0F0
F0F0
0000
0000
0000
F0F0
F0F0
F0F0
F0F0
F0F0
F0F0
F0F0
F0F0
F0F0
F0F0
F0F0
F0F0
F0F0
F0F0
F0F0
F0F0
00F0
00F0
00F0
07F0
07E0
07C0
ENDCHAR
STARTCHAR 0134
ENCODING 308
SWIDTH 556 0
DWIDTH 17 0
BBX 16 28 1 0
BITMAP
007C
00FC
01EE
03CF
0000
0000
007C
007C
007C
007C
007C
007C
007C
007C
007C
007C
007C
007C
007C
007C
F07C
F07C
F07C
F8F8
FFF8
7FF0
3FE0
1FC0
ENDCHAR
STARTCHAR 0135
ENCODING 309
SWIDTH 294 0
DWIDTH 9 0
BBX 10 29 -1 -6
BITMAP
1F00
3F00
7B80
71C0
0000
0000
0000
1E00
1E00
1E00
1E00
1E00
1E00
1E00
1E00
1E00
1E00
1E00
1E00
1E00
1E00
1E00
1E00
1E00
1E00
1E00
FE00
FC00
F800
ENDCHAR
STARTCHAR 0136
ENCODING 310
SWIDTH 720 0
DWIDTH 22 0
BBX 20 28 2 -6
BITMAP
F807E0
F80FC0
F81F80
F83F00
F87E00
F8FC00
F9FC00
FBF800
FFF000
FFF000
FFF800
FFF800
FF7C00
FE7E00
FC3E00
F81F00
F81F80
F80F80
F80FC0
F807E0
F803E0
F803F0
01E000
01F800
003800
007800
07F000
07E000
ENDCHAR
STARTCHAR 0137
ENCODING 311
SWIDTH 556 0
DWIDTH 17 0
BBX 15 28 2 -6
BITMAP
F000
F000
F000
F000
F000
F000
F07C
F0F8
F1F0
F3E0
F7C0
FF80
FF80
FFC0
FFE0
FDE0
F9F0
F0F0
F0F8
F078
F03C
F03E
0780
07E0
00E0
01E0
1FC0
1F80
ENDCHAR
STARTCHAR 0138
ENCODING 312
SWIDTH 556 0
DWIDTH 17 0
BBX 15 16 2 0
BITMAP
F07C
F0F8
F1F0
F3E0
F7C0
F780
FF80
FFC0
FFE0
FDE0
F9F0
F0F0
F0F8
F07C
F03C
F03E
ENDCHAR
STARTCHAR 0139
ENCODING 313
SWIDTH 621 0
DWIDTH 19 0
BBX 16 29 2 0
BITMAP
01E0
03C0
03C0
0780
0700
0000
0000
F800
F800
F800
F800
F800
F800
F800
F800
F800
F800
F800
F800
F800
F800
F800
F800
F800
F800
FFFF
FFFF
FFFF
FFFF
ENDCHAR
STARTCHAR 013A
ENCODING 314
SWIDTH 294 0
DWIDTH 9 0
BBX 6 29 2 0
BITMAP
3C
78
78
F0
E0
00
00
F0
F0
F0
F0
F0
F0
F0
F0
F0
F0
F0
F0
F0
F0
F0
F0
F0
F0
F0
F0
F0
F0
ENDCHAR
STARTCHAR 013B
ENCODING 315
SWIDTH 621 0
DWIDTH 19 0
BBX 16 28 2 -6
BITMAP
F800
F800
F800
F800
F800
F800
F800
F800
F800
F800
F800
F800
F800
F800
F800
F800
F800
F800
FFFF
FFFF
FFFF
FFFF
0780
07E0
00E0
01E0
1FC0
1F80
ENDCHAR
STARTCHAR 013C
ENCODING 316
SWIDTH 294 0
DWIDTH 9 0
BBX 8 28 0 -6
BITMAP
3C
3C
3C
3C
3C
3C
3C
3C
3C
3C
3C
3C
3C
3C
3C
3C
3C
3C
3C
3C
3C
3C
3C
3F
07
0F
FE
FC
ENDCHAR
STARTCHAR 013D
ENCODING 317
SWIDTH 621 0
DWIDTH 19 0
BBX 16 22 2 0
BITMAP
F81E
F81E
F81E
F81E
F806
F80E
F81C
F81C
F810
F800
F800
F800
F800
F800
F800
F800
F800
F800
FFFF
FFFF
FFFF
FFFF
ENDCHAR
STARTCHAR 013E
ENCODING 318
SWIDTH 392 0
DWIDTH 12 0
BBX 10 22 2 0
BITMAP
FBC0
FBC0
FBC0
FBC0
F8C0
F980
FB80
FB00
F800
F800
F800
F800
F800
F800
F800
F800
F800
F800
F800
F800
F800
F800
ENDCHAR
STARTCHAR 013F
ENCODING 319
SWIDTH 621 0
DWIDTH 19 0
BBX 16 22 2 0
BITMAP
F800
F800
F800
F800
F800
F800
F800
FF80
FF80
FF80
FF80
F800
F800
F800
F800
F800
F800
F800
FFFF
FFFF
FFFF
FFFF
ENDCHAR
STARTCHAR 0140
ENCODING 320
SWIDTH 490 0
DWIDTH 15 0
BBX 10 22 2 0
BITMAP
F000
F000
F000
F000
F000
F000
F000
F000
F3C0
F3C0
F3C0
F3C0
F000
F000
F000
F000
F000
F000
F000
F000
F000
F000
ENDCHAR
STARTCHAR 0141
ENCODING 321
SWIDTH 621 0
DWIDTH 19 0
BBX 18 22 0 0
BITMAP
3E0000
3E0000
3E0000
3E0000
3E1000
3E7000
3EE000
3FC000
3F0000
3E0000
3E0000
7E0000
FE0000
FE0000
BE0000
3E0000
3E0000
3E0000
3FFFC0
3FFFC0
3FFFC0
3FFFC0
ENDCHAR
STARTCHAR 0142
ENCODING 322
SWIDTH 294 0
DWIDTH 9 0
BBX 9 22 0 0
BITMAP
3C00
3C00
3C00
3C00
3C00
3C00
3D80
3F80
3F00
3E00
3C00
7C00
FC00
FC00
BC00
3C00
3C00
3C00
3C00
3C00
3C00
3C00
ENDCHAR
STARTCHAR 0143
ENCODING 323
SWIDTH 720 0
DWIDTH 22 0
BBX 18 29 2 0
BITMAP
007800
00F000
00F000
01E000
01C000
000000
000000
F803C0
FC03C0
FC03C0
FE03C0
FE03C0
FF03C0
FF83C0
F783C0
F7C3C0
F3C3C0
F1E3C0
F1E3C0
F0F3C0
F0FBC0
F07BC0
F03FC0
F03FC0
F01FC0
F01FC0
F00FC0
F007C0
F007C0
ENDCHAR
STARTCHAR 0144
ENCODING 324
SWIDTH 621 0
DWIDTH 19 0
BBX 15 24 2 0
BITMAP
01E0
03C0
03C0
0780
0700
0000
0000
0000
F1F0
F7FC
FFFC
FC3E
F83E
F83E
F81E
F01E
F01E
F01E
F01E
F01E
F01E
F01E
F01E
F01E
ENDCHAR
STARTCHAR 0145
ENCODING 325
SWIDTH 720 0
DWIDTH 22 0
BBX 18 28 2 -6
BITMAP
F803C0
FC03C0
FC03C0
FE03C0
FE03C0
FF03C0
FF83C0
F783C0
F7C3C0
F3C3C0
F1E3C0
F1E3C0
F0F3C0
F0FBC0
F07BC0
F03FC0
F03FC0
F01FC0
F01FC0
F00FC0
F007C0
F007C0
01E000
01F800
003800
007800
07F000
07E000
ENDCHAR
STARTCHAR 0146
ENCODING 326
SWIDTH 621 0
DWIDTH 19 0
BBX 15 22 2 -6
BITMAP
F1F0
F7FC
FFFC
FC3E
F83E
F83E
F81E
F01E
F01E
F01E
F01E
F01E
F01E
F01E
F01E
F01E
0780
07E0
00E0
01E0
1FC0
1F80
ENDCHAR
STARTCHAR 0147
ENCODING 327
SWIDTH 720 0
DWIDTH 22 0
BBX 18 28 2 0
BITMAP
0F3C00
07B800
03F000
01F000
000000
000000
F803C0
FC03C0
FC03C0
FE03C0
FE03C0
FF03C0
FF83C0
F783C0
F7C3C0
F3C3C0
F1E3C0
F1E3C0
F0F3C0
F0FBC0
F07BC0
F03FC0
F03FC0
F01FC0
F01FC0
F00FC0
F007C0
F007C0
ENDCHAR
STARTCHAR 0148
ENCODING 328
SWIDTH 621 0
DWIDTH 19 0
BBX 15 23 2 0
BITMAP
3CF0
1EE0
0FC0
07C0
0000
0000
0000
F1F0
F7FC
FFFC
FC3E
F83E
F83E
F81E
F01E
F01E
F01E
F01E
F01E
F01E
F01E
F01E
F01E
ENDCHAR
STARTCHAR 0149
ENCODING 329
SWIDTH 720 0
DWIDTH 22 0
BBX 21 22 -1 0
BITMAP
F00000
F00000
F00000
F00000
300000
300000
73C7C0
E3DFF0
C3FFF0
03F0F8
03E0F8
03E0F8
03E078
03C078
03C078
03C078
03C078
03C078
03C078
03C078
03C078
03C078
ENDCHAR
STARTCHAR 014A
ENCODING 330
SWIDTH 720 0
DWIDTH 22 0
BBX 19 22 2 0
BITMAP
F87E00
F9FF00
FBFF80
FFFFC0
FF0FC0
FC07C0
FC03E0
F803E0
F803E0
F803E0
F803E0
F803E0
F803E0
F803E0
F803E0
F803E0
F803E0
F847C0
F87FC0
F87FC0
F8FF80
F87E00
ENDCHAR
STARTCHAR 014B
ENCODING 331
SWIDTH 621 0
DWIDTH 19 0
BBX 15 23 2 -7
BITMAP
F1F0
F7F8
FFFC
FC7C
F83E
F83E
F83E
F01E
F01E
F01E
F01E
F01E
F01E
F01E
F01E
F01E
001E
003E
003E
00FE
01FC
01FC
00F0
ENDCHAR
STARTCHAR 014C
ENCODING 332
SWIDTH 785 0
DWIDTH 24 0
BBX 22 27 1 0
BITMAP
03FF00
03FF00
03FF00
000000
000000
01FE00
07FF80
0FFFC0
1FFFE0
3F03F0
7E01F8
7C00F8
7C0078
78007C
F8007C
F8007C
F8007C
F8007C
78007C
7C0078
7C00F8
7E01F8
3F83F0
1FFFF0
0FFFE0
07FF80
01FE00
ENDCHAR
STARTCHAR 014D
ENCODING 333
SWIDTH 621 0
DWIDTH 19 0
BBX 17 22 1 0
BITMAP
1FF800
1FF800
1FF800
000000
000000
000000
07F000
1FFC00
3FFE00
7E3F00
7C1F00
780F00
F80F80
F80F80
F80F80
F80F80
780F00
7C1F00
7E3F00
3FFE00
1FFC00
07F000
ENDCHAR
STARTCHAR 014E
ENCODING 334
SWIDTH 785 0
DWIDTH 24 0
BBX 22 28 1 0
BITMAP
038300
018600
01FE00
007800
000000
000000
01FE00
07FF80
0FFFC0
1FFFE0
3F03F0
7E01F8
7C00F8
7C0078
78007C
F8007C
F8007C
F8007C
F8007C
78007C
7C0078
7C00F8
7E01F8
3F83F0
1FFFF0
0FFFE0
07FF80
01FE00
ENDCHAR
STARTCHAR 014F
ENCODING 335
SWIDTH 621 0
DWIDTH 19 0
BBX 17 23 1 0
BITMAP
1C1800
0C3000
0FF000
03C000
000000
000000
000000
07F000
1FFC00
3FFE00
7E3F00
7C1F00
780F00
F80F80
F80F80
F80F80
F80F80
780F00
7C1F00
7E3F00
3FFE00
1FFC00
07F000
ENDCHAR
STARTCHAR 0150
ENCODING 336
SWIDTH 785 0
DWIDTH 24 0
BBX 22 29 1 0
BITMAP
00FBC0
00F3C0
00E780
01C700
01CE00
000000
000000
01FE00
07FF80
0FFFC0
1FFFE0
3F03F0
7E01F8
7C00F8
7C0078
78007C
F8007C
F8007C
F8007C
F8007C
78007C
7C0078
7C00F8
7E01F8
3F83F0
1FFFF0
0FFFE0
07FF80
01FE00
ENDCHAR
STARTCHAR 0151
ENCODING 337
SWIDTH 621 0
DWIDTH 19 0
BBX 17 24 1 0
BITMAP
07DE00
079E00
073C00
0E3800
0E7000
000000
000000
000000
07F000
1FFC00
3FFE00
7E3F00
7C1F00
780F00
F80F80
F80F80
F80F80
F80F80
780F00
7C1F00
7E3F00
3FFE00
1FFC00
07F000
ENDCHAR
STARTCHAR 0152
ENCODING 338
SWIDTH 1014 0
DWIDTH 31 0
BBX 29 22 1 0
BITMAP
03F1FFF8
0FFDFFF8
1FFFFFF8
3FFFFFF8
7E0FE000
7C07E000
7803E000
F803E000
F803FFF0
F803FFF0
F801FFF0
F803FFF0
F803E000
F803E000
F803E000
7803E000
7C07E000
7E0FE000
3FFFFFF8
1FFFFFF8
0FFDFFF8
03F1FFF8
ENDCHAR
STARTCHAR 0153
ENCODING 339
SWIDTH 949 0
DWIDTH 29 0
BBX 27 16 1 0
BITMAP
07E07C00
1FF9FF00
3FFFFF80
3E3FC7C0
7C1F83C0
780F81E0
F80FFFE0
F80FFFE0
F80FFFE0
F80F0000
780F8000
7C1F8000
3E3FC380
3FFFFFC0
0FFDFF80
07F07E00
ENDCHAR
STARTCHAR 0154
ENCODING 340
SWIDTH 720 0
DWIDTH 22 0
BBX 20 29 2 0
BITMAP
01E000
03C000
03C000
078000
070000
000000
000000
FFFC00
FFFF00
FFFF80
FFFFC0
F807C0
F803C0
F803C0
F803C0
F807C0
FFFFC0
FFFF80
FFFE00
FFF800
F8FC00
F83E00
F83F00
F81F80
F80F80
F807C0
F807E0
F803E0
F801F0
ENDCHAR
STARTCHAR 0155
ENCODING 341
SWIDTH 392 0
DWIDTH 12 0
BBX 10 24 2 0
BITMAP
0F00
1E00
1E00
3C00
3800
0000
0000
0000
F3C0
F7C0
FFC0
FC00
F800
F800
F000
F000
F000
F000
F000
F000
F000
F000
F000
F000
ENDCHAR
STARTCHAR 0156
ENCODING 342
SWIDTH 720 0
DWIDTH 22 0
BBX 20 28 2 -6
BITMAP
FFFC00
FFFF00
FFFF80
FFFFC0
F807C0
F803C0
F803C0
F803C0
F807C0
FFFFC0
FFFF80
FFFE00
FFF800
F8FC00
F83E00
F83F00
F81F80
F80F80
F807C0
F807E0
F803E0
F801F0
01E000
01F800
003800
007800
07F000
07E000
ENDCHAR
STARTCHAR 0157
ENCODING 343
SWIDTH 392 0
DWIDTH 12 0
BBX 11 22 1 -6
BITMAP
79E0
7BE0
7FE0
7E00
7C00
7C00
7800
7800
7800
7800
7800
7800
7800
7800
7800
7800
3C00
3F00
0700
0F00
FE00
FC00
ENDCHAR
STARTCHAR 0158
ENCODING 344
SWIDTH 720 0
DWIDTH 22 0
BBX 20 28 2 0
BITMAP
3CF000
1EE000
0FC000
07C000
000000
000000
FFFC00
FFFF00
FFFF80
FFFFC0
F807C0
F803C0
F803C0
F803C0
F807C0
FFFFC0
FFFF80
FFFE00
FFF800
F8FC00
F83E00
F83F00
F81F80
F80F80
F807C0
F807E0
F803E0
F801F0
ENDCHAR
STARTCHAR 0159
ENCODING 345
SWIDTH 392 0
DWIDTH 12 0
BBX 11 23 1 0
BITMAP
F3C0
7B80
3F00
1F00
0000
0000
0000
79E0
7BE0
7FE0
7E00
7C00
7C00
7800
7800
7800
7800
7800
7800
7800
7800
7800
7800
ENDCHAR
STARTCHAR 015A
ENCODING 346
SWIDTH 687 0
DWIDTH 21 0
BBX 18 29 1 0
BITMAP
003C00
007800
007800
00F000
00E000
000000
000000
07F800
1FFE00
3FFF00
3FFF80
7C0F80
780780
7C0000
7F0000
7FE000
3FF800
1FFE00
07FF80
01FF80
001FC0
0007C0
F803C0
F807C0
7E0FC0
7FFF80
3FFF80
1FFF00
07F800
ENDCHAR
STARTCHAR 015B
ENCODING 347
SWIDTH 556 0
DWIDTH 17 0
BBX 15 24 1 0
BITMAP
00F0
01E0
01E0
03C0
0380
0000
0000
0000
0FE0
3FF8
7FF8
F87C
F030
F800
7F00
3FF0
0FFC
01FC
003E
303E
F83E
7FFC
3FF8
0FE0
ENDCHAR
STARTCHAR 015C
ENCODING 348
SWIDTH 687 0
DWIDTH 21 0
BBX 18 28 1 0
BITMAP
01F000
03F000
07B800
0F3C00
000000
000000
07F800
1FFE00
3FFF00
3FFF80
7C0F80
780780
7C0000
7F0000
7FE000
3FF800
1FFE00
07FF80
01FF80
001FC0
0007C0
F803C0
F807C0
7E0FC0
7FFF80
3FFF80
1FFF00
07F800
ENDCHAR
STARTCHAR 015D
ENCODING 349
SWIDTH 556 0
DWIDTH 17 0
BBX 15 23 1 0
BITMAP
07C0
0FC0
1EE0
3CF0
0000
0000
0000
0FE0
3FF8
7FF8
F87C
F030
F800
7F00
3FF0
0FFC
01FC
003E
303E
F83E
7FFC
3FF8
0FE0
ENDCHAR
STARTCHAR 015E
ENCODING 350
SWIDTH 687 0
DWIDTH 21 0
BBX 18 28 1 -6
BITMAP
07F800
1FFE00
3FFF00
3FFF80
7C0F80
780780
7C0000
7F0000
7FE000
3FF800
1FFE00
07FF80
01FF80
001FC0
0007C0
F803C0
F807C0
7E0FC0
7FFF80
3FFF80
1FFF00
07F800
01F000
01F800
001C00
001C00
03F800
03F000
ENDCHAR
STARTCHAR 015F
ENCODING 351
SWIDTH 556 0
DWIDTH 17 0
BBX 15 22 1 -6
BITMAP
0FE0
3FF8
7FF8
F87C
F030
F800
7F00
3FF0
0FFC
01FC
003E
303E
F83E
7FFC
3FF8
0FE0
07C0
07E0
0070
0070
0FE0
0FC0
ENDCHAR
STARTCHAR 0160
ENCODING 352
SWIDTH 687 0
DWIDTH 21 0
BBX 18 28 1 0
BITMAP
0F3C00
07B800
03F000
01F000
000000
000000
07F800
1FFE00
3FFF00
3FFF80
7C0F80
780780
7C0000
7F0000
7FE000
3FF800
1FFE00
07FF80
01FF80
001FC0
0007C0
F803C0
F807C0
7E0FC0
7FFF80
3FFF80
1FFF00
07F800
ENDCHAR
STARTCHAR 0161
ENCODING 353
SWIDTH 556 0
DWIDTH 17 0
BBX 15 23 1 0
BITMAP
3CF0
1EE0
0FC0
07C0
0000
0000
0000
0FE0
3FF8
7FF8
F87C
F030
F800
7F00
3FF0
0FFC
01FC
003E
303E
F83E
7FFC
3FF8
0FE0
ENDCHAR
STARTCHAR 0162
ENCODING 354
SWIDTH 621 0
DWIDTH 19 0
BBX 17 28 1 -6
BITMAP
FFFF80
FFFF80
FFFF80
FFFF80
03E000
03E000
03E000
03E000
03E000
03E000
03E000
03E000
03E000
03E000
03E000
03E000
03E000
03E000
03E000
03E000
03E000
03E000
03E000
03F000
003800
003800
07F000
07E000
ENDCHAR
STARTCHAR 0163
ENCODING 355
SWIDTH 327 0
DWIDTH 10 0
BBX 10 28 0 -6
BITMAP
0200
0600
1E00
3E00
3E00
3E00
FFC0
FFC0
FFC0
3E00
3E00
3E00
3E00
3E00
3E00
3E00
3E00
3E00
3E00
1FC0
1FC0
0FC0
1F00
1F80
01C0
01C0
3F80
3F00
ENDCHAR
STARTCHAR 0164
ENCODING 356
SWIDTH 621 0
DWIDTH 19 0
BBX 17 28 1 0
BITMAP
1E7800
0F7000
07E000
03E000
000000
000000
FFFF80
FFFF80
FFFF80
FFFF80
03E000
03E000
03E000
03E000
03E000
03E000
03E000
03E000
03E000
03E000
03E000
03E000
03E000
03E000
03E000
03E000
03E000
03E000
ENDCHAR
STARTCHAR 0165
ENCODING 357
SWIDTH 490 0
DWIDTH 15 0
BBX 15 22 0 0
BITMAP
021E
061E
1E1E
3E1E
3E06
3E0C
FFDC
FFD8
FFC0
3E00
3E00
3E00
3E00
3E00
3E00
3E00
3E00
3E00
3E00
1FC0
1FC0
0FC0
ENDCHAR
STARTCHAR 0166
ENCODING 358
SWIDTH 621 0
DWIDTH 19 0
BBX 17 22 1 0
BITMAP
FFFF80
FFFF80
FFFF80
FFFF80
03E000
03E000
03E000
03E000
03E000
03E000
03E000
7FFE00
7FFE00
7FFE00
03E000
03E000
03E000
03E000
03E000
03E000
03E000
03E000
ENDCHAR
STARTCHAR 0167
ENCODING 359
SWIDTH 327 0
DWIDTH 10 0
BBX 10 22 0 0
BITMAP
0400
0C00
1C00
3C00
3C00
3C00
FF80
FF80
FF80
3C00
3C00
3C00
3C00
FF80
FF80
FF80
3C00
3C00
3E00
3F80
1FC0
0FC0
ENDCHAR
STARTCHAR 0168
ENCODING 360
SWIDTH 720 0
DWIDTH 22 0
BBX 18 28 2 0
BITMAP
078C00
0FFC00
0FFC00
0C7800
000000
000000
F807C0
F807C0
F807C0
F807C0
F807C0
F807C0
F807C0
F807C0
F807C0
F807C0
F807C0
F807C0
F807C0
F807C0
F807C0
F807C0
7807C0
7E0F80
7FFF80
3FFF00
1FFE00
07F800
ENDCHAR
STARTCHAR 0169
ENCODING 361
SWIDTH 621 0
DWIDTH 19 0
BBX 15 23 2 0
BITMAP
1E30
3FF0
3FF0
31E0
0000
0000
0000
F03E
F03E
F03E
F03E
F03E
F03E
F03E
F03E
F03E
F03E
F03E
F83E
F87E
7FFE
7FDE
1F1E
ENDCHAR
STARTCHAR 016A
ENCODING 362
SWIDTH 720 0
DWIDTH 22 0
BBX 18 27 2 0
BITMAP
0FFC00
0FFC00
0FFC00
000000
000000
F807C0
F807C0
F807C0
F807C0
F807C0
F807C0
F807C0
F807C0
F807C0
F807C0
F807C0
F807C0
F807C0
F807C0
F807C0
F807C0
7807C0
7E0F80
7FFF80
3FFF00
1FFE00
07F800
ENDCHAR
STARTCHAR 016B
ENCODING 363
SWIDTH 621 0
DWIDTH 19 0
BBX 15 22 2 0
BITMAP
3FF0
3FF0
3FF0
0000
0000
0000
F03E
F03E
F03E
F03E
F03E
F03E
F03E
F03E
F03E
F03E
F03E
F83E
F87E
7FFE
7FDE
1F1E
ENDCHAR
STARTCHAR 016C
ENCODING 364
SWIDTH 720 0
DWIDTH 22 0
BBX 18 28 2 0
BITMAP
0E0C00
061800
07F800
01E000
000000
000000
F807C0
F807C0
F807C0
F807C0
F807C0
F807C0
F807C0
F807C0
F807C0
F807C0
F807C0
F807C0
F807C0
F807C0
F807C0
F807C0
7807C0
7E0F80
7FFF80
3FFF00
1FFE00
07F800
ENDCHAR
STARTCHAR 016D
ENCODING 365
SWIDTH 621 0
DWIDTH 19 0
BBX 15 23 2 0
BITMAP
3830
1860
1FE0
0780
0000
0000
0000
F03E
F03E
F03E
F03E
F03E
F03E
F03E
F03E
F03E
F03E
F03E
F83E
F87E
7FFE
7FDE
1F1E
ENDCHAR
STARTCHAR 016E
ENCODING 366
SWIDTH 720 0
DWIDTH 22 0
BBX 18 28 2 0
BITMAP
00E000
01F000
033000
033000
01F000
01E000
F807C0
F807C0
F807C0
F807C0
F807C0
F807C0
F807C0
F807C0
F807C0
F807C0
F807C0
F807C0
F807C0
F807C0
F807C0
F807C0
7807C0
7E0F80
7FFF80
3FFF00
1FFE00
07F800
ENDCHAR
STARTCHAR 016F
ENCODING 367
SWIDTH 621 0
DWIDTH 19 0
BBX 15 25 2 0
BITMAP
0380
07C0
0CC0
0CC0
07C0
0780
0000
0000
0000
F03E
F03E
F03E
F03E
F03E
F03E
F03E
F03E
F03E
F03E
F03E
F83E
F87E
7FFE
7FDE
1F1E
ENDCHAR
STARTCHAR 0170
ENCODING 368
SWIDTH 720 0
DWIDTH 22 0
BBX 18 29 2 0
BITMAP
03EF00
03CF00
039E00
071C00
073800
000000
000000
F807C0
F807C0
F807C0
F807C0
F807C0
F807C0
F807C0
F807C0
F807C0
F807C0
F807C0
F807C0
F807C0
F807C0
F807C0
F807C0
7807C0
7E0F80
7FFF80
3FFF00
1FFE00
07F800
ENDCHAR
STARTCHAR 0171
ENCODING 369
SWIDTH 621 0
DWIDTH 19 0
BBX 15 24 2 0
BITMAP
0FBC
0F3C
0E78
1C70
1CE0
0000
0000
0000
F03E
F03E
F03E
F03E
F03E
F03E
F03E
F03E
F03E
F03E
F03E
F83E
F87E
7FFE
7FDE
1F1E
ENDCHAR
STARTCHAR 0172
ENCODING 370
SWIDTH 720 0
DWIDTH 22 0
BBX 18 28 2 -6
BITMAP
F807C0
F807C0
F807C0
F807C0
F807C0
F807C0
F807C0
F807C0
F807C0
F807C0
F807C0
F807C0
F807C0
F807C0
F807C0
F807C0
7807C0
7E0F80
7FFF80
3FFF00
1FFE00
07F800
007000
00E000
00E000
00E000
00F800
007800
ENDCHAR
STARTCHAR 0173
ENCODING 371
SWIDTH 621 0
DWIDTH 19 0
BBX 15 22 2 -6
BITMAP
F03E
F03E
F03E
F03E
F03E
F03E
F03E
F03E
F03E
F03E
F03E
F83E
F87E
7FFE
7FDE
1F1E
001C
0038
0038
0038
003E
001E
ENDCHAR
STARTCHAR 0174
ENCODING 372
SWIDTH 949 0
DWIDTH 29 0
BBX 29 28 0 0
BITMAP
000F8000
001F8000
003DC000
0079E000
00000000
00000000
F80FC078
F80FC0F8
781FC0F8
781FC0F0
7C1FE0F0
7C1FE1F0
3C3DE1F0
3C3DE1E0
3E3DF1E0
3E3CF1E0
1E78F3E0
1E78F3C0
1E787BC0
1FF87BC0
0FF07FC0
0FF07F80
0FF03F80
0FE03F80
07E03F80
07E03F00
07E01F00
07C01F00
ENDCHAR
STARTCHAR 0175
ENCODING 373
SWIDTH 785 0
DWIDTH 24 0
BBX 24 23 0 0
BITMAP
003E00
007E00
00F700
01E780
000000
000000
000000
F03C0F
783E1F
787E1E
787E1E
3C7E1E
3C7F3C
3CFF3C
1CF73C
1EE778
1EE7F8
1FE7F8
0FE3F0
0FC3F0
0FC3F0
07C3E0
07C1E0
ENDCHAR
STARTCHAR 0176
ENCODING 374
SWIDTH 687 0
DWIDTH 21 0
BBX 20 28 0 0
BITMAP
00F800
01F800
03DC00
079E00
000000
000000
FC01F0
7C01F0
3E03E0
3E07C0
1F07C0
1F0F80
0F8F80
07DF00
07DE00
03FE00
01FC00
01F800
00F800
00F800
00F800
00F800
00F800
00F800
00F800
00F800
00F800
00F800
ENDCHAR
STARTCHAR 0177
ENCODING 375
SWIDTH 556 0
DWIDTH 17 0
BBX 17 29 0 -6
BITMAP
03E000
07E000
0F7000
1E7800
000000
000000
000000
F80F80
780F00
7C0F00
3C1E00
3C1E00
3E1E00
1E3C00
1E3C00
1F3C00
0F7800
0F7800
07F800
07F000
07F000
03E000
03E000
03E000
03C000
07C000
7F8000
7F8000
3E0000
ENDCHAR
STARTCHAR 0178
ENCODING 376
SWIDTH 687 0
DWIDTH 21 0
BBX 20 27 0 0
BITMAP
078E00
078E00
078E00
000000
000000
FC01F0
7C01F0
3E03E0
3E07C0
1F07C0
1F0F80
0F8F80
07DF00
07DE00
03FE00
01FC00
01F800
00F800
00F800
00F800
00F800
00F800
00F800
00F800
00F800
00F800
00F800
ENDCHAR
STARTCHAR 0179
ENCODING 377
SWIDTH 621 0
DWIDTH 19 0
BBX 18 29 0 0
BITMAP
007800
00F000
00F000
01E000
01C000
000000
000000
3FFFC0
3FFFC0
3FFFC0
3FFF80
000F80
001F00
003E00
007C00
00F800
01F800
01F000
03E000
07C000
0F8000
1F8000
3F0000
3E0000
7C0000
FFFFC0
FFFFC0
FFFFC0
FFFFC0
ENDCHAR
STARTCHAR 017A
ENCODING 378
SWIDTH 523 0
DWIDTH 16 0
BBX 14 24 1 0
BITMAP
03C0
0780
0780
0F00
0E00
0000
0000
0000
FFF8
FFF8
FFF8
01F8
03F0
03E0
07E0
0FC0
1F80
3F00
3E00
7C00
FC00
FFFC
FFFC
FFFC
ENDCHAR
STARTCHAR 017B
ENCODING 379
SWIDTH 621 0
DWIDTH 19 0
BBX 18 28 0 0
BITMAP
00F000
00F000
00F000
00F000
000000
000000
3FFFC0
3FFFC0
3FFFC0
3FFF80
000F80
001F00
003E00
007C00
00F800
01F800
01F000
03E000
07C000
0F8000
1F8000
3F0000
3E0000
7C0000
FFFFC0
FFFFC0
FFFFC0
FFFFC0
ENDCHAR
STARTCHAR 017C
ENCODING 380
SWIDTH 523 0
DWIDTH 16 0
BBX 14 23 1 0
BITMAP
0F00
0F00
0F00
0F00
0000
0000
0000
FFF8
FFF8
FFF8
01F8
03F0
03E0
07E0
0FC0
1F80
3F00
3E00
7C00
FC00
FFFC
FFFC
FFFC
ENDCHAR
STARTCHAR 017D
ENCODING 381
SWIDTH 621 0
DWIDTH 19 0
BBX 18 28 0 0
BITMAP
0F3C00
07B800
03F000
01F000
000000
000000
3FFFC0
3FFFC0
3FFFC0
3FFF80
000F80
001F00
003E00
007C00
00F800
01F800
01F000
03E000
07C000
0F8000
1F8000
3F0000
3E0000
7C0000
FFFFC0
FFFFC0
FFFFC0
FFFFC0
ENDCHAR
STARTCHAR 017E
ENCODING 382
SWIDTH 523 0
DWIDTH 16 0
BBX 14 23 1 0
BITMAP
3CF0
1EE0
0FC0
07C0
0000
0000
0000
FFF8
FFF8
FFF8
01F8
03F0
03E0
07E0
0FC0
1F80
3F00
3E00
7C00
FC00
FFFC
FFFC
FFFC
ENDCHAR
STARTCHAR 017F
ENCODING 383
SWIDTH 294 0
DWIDTH 9 0
BBX 9 22 2 0
BITMAP
3F80
7F00
FF00
F800
F000
F000
F000
F000
F000
F000
F000
F000
F000
F000
F000
F000
F000
F000
F000
F000
F000
F000
ENDCHAR
STARTCHAR 0180
ENCODING 384
SWIDTH 621 0
DWIDTH 19 0
BBX 18 22 0 0
BITMAP
3C0000
3C0000
FFE000
FFE000
FFE000
3C0000
3CFC00
3DFE00
3FFF00
3F0F80
3E0780
3E0780
3C07C0
3C07C0
3C07C0
3C07C0
3E0780
3E0780
3F0F80
3FFF00
3DFE00
3CFC00
ENDCHAR
STARTCHAR 0181
ENCODING 385
SWIDTH 850 0
DWIDTH 26 0
BBX 24 22 0 0
BITMAP
1FFFF0
7FFFF8
7FFFFC
7FFFFE
F3C03E
F3C01E
73C01E
73C01E
03C03E
03FFFC
03FFF8
03FFFC
03FFFE
03C03F
03C00F
03C00F
03C00F
03C01F
03FFFF
03FFFE
03FFFC
03FFF0
ENDCHAR
STARTCHAR 0182
ENCODING 386
SWIDTH 720 0
DWIDTH 22 0
BBX 19 22 2 0
BITMAP
FFFF80
FFFF80
FFFF80
FFFF80
F80000
F80000
F80000
F80000
F80000
FFFE00
FFFF80
FFFF80
FFFFC0
F807E0
F803E0
F803E0
F803E0
F807E0
FFFFC0
FFFFC0
FFFF80
FFFE00
ENDCHAR
STARTCHAR 0183
ENCODING 387
SWIDTH 621 0
DWIDTH 19 0
BBX 16 22 2 0
BITMAP
FFE0
FFE0
FFE0
F000
F000
F000
F3F0
F7F8
FFFC
FC3E
F81E
F81E
F01F
F01F
F01F
F01F
F81E
F81E
FC3E
FFFC
F7F8
F3F0
ENDCHAR
STARTCHAR 0184
ENCODING 388
SWIDTH 720 0
DWIDTH 22 0
BBX 21 22 0 0
BITMAP
060000
0E0000
3E0000
7E0000
FE0000
7E0000
3E0000
3E0000
3E0000
3FFF00
3FFFC0
3FFFF0
3FFFF0
3E01F8
3E00F8
3E00F8
3E00F8
3E01F8
3FFFF0
3FFFF0
3FFFE0
3FFF80
ENDCHAR
STARTCHAR 0185
ENCODING 389
SWIDTH 621 0
DWIDTH 19 0
BBX 18 22 0 0
BITMAP
040000
1C0000
7C0000
FC0000
7C0000
3C0000
3CFC00
3DFE00
3FFF00
3F0F80
3E0780
3E0780
3C07C0
3C07C0
3C07C0
3C07C0
3E0780
3E0780
3F0F80
3FFF00
3DFE00
3CFC00
ENDCHAR
STARTCHAR 0186
ENCODING 390
SWIDTH 720 0
DWIDTH 22 0
BBX 19 22 2 0
BITMAP
07F000
1FFC00
3FFF00
7FFF80
7E1F80
F807C0
F807C0
3003C0
0003E0
0003E0
0003E0
0003E0
0003E0
3003E0
F003E0
F807C0
F807C0
7E1F80
7FFF80
3FFF00
1FFC00
07F000
ENDCHAR
STARTCHAR 0187
ENCODING 391
SWIDTH 720 0
DWIDTH 22 0
BBX 24 25 1 0
BITMAP
00003F
0000FF
0000FF
01FCF0
07FFF0
0FFFF0
1FFFF0
3F07F0
3E03F0
7C01F0
7C0180
780000
780000
F80000
F80000
780000
780180
7C01F0
7C01E0
3E03E0
3F07E0
1FFFC0
0FFF80
07FF00
01FC00
ENDCHAR
STARTCHAR 0188
ENCODING 392
SWIDTH 556 0
DWIDTH 17 0
BBX 20 19 1 0
BITMAP
0007F0
000FE0
001FE0
07FF00
1FFE00
3FFE00
7C3E00
781E00
781C00
F80000
F80000
F80000
F80000
780000
781E00
7C3E00
3FFE00
1FFC00
07F000
ENDCHAR
STARTCHAR 0189
ENCODING 393
SWIDTH 720 0
DWIDTH 22 0
BBX 21 22 0 0
BITMAP
3FFE00
3FFF80
3FFFC0
3FFFE0
3E07E0
3E01F0
3E01F0
3E00F0
3E00F8
FFE0F8
FFE0F8
FFE0F8
3E00F8
3E00F8
3E00F8
3E00F0
3E01F0
3E03F0
3FFFE0
3FFFC0
3FFF80
3FFE00
ENDCHAR
STARTCHAR 018A
ENCODING 394
SWIDTH 850 0
DWIDTH 26 0
BBX 24 22 0 0
BITMAP
1FFFC0
7FFFF0
7FFFFC
7FFFFC
F3C07E
F3C03E
73C01F
73C01F
03C00F
03C00F
03C00F
03C00F
03C00F
03C00F
03C01F
03C01F
03C01F
03C07E
03FFFC
03FFFC
03FFF0
03FFC0
ENDCHAR
STARTCHAR 018B
ENCODING 395
SWIDTH 720 0
DWIDTH 22 0
BBX 19 22 1 0
BITMAP
3FFFE0
3FFFE0
3FFFE0
3FFFE0
0003E0
0003E0
0003E0
0003E0
0003E0
07FFE0
1FFFE0
3FFFE0
7FFFE0
7C03E0
F803E0
F803E0
F803E0
7C03E0
7FFFE0
3FFFE0
1FFFE0
0FFFE0
ENDCHAR
STARTCHAR 018C
ENCODING 396
SWIDTH 621 0
DWIDTH 19 0
BBX 16 22 1 0
BITMAP
07FF
07FF
07FF
000F
000F
000F
0FCF
1FEF
3FFF
7C3F
781F
781F
F80F
F80F
F80F
F80F
781F
781F
7C3F
3FFF
1FEF
0FCF
ENDCHAR
STARTCHAR 018D
ENCODING 397
SWIDTH 621 0
DWIDTH 19 0
BBX 17 22 1 -6
BITMAP
07E000
1FF800
3FFC00
7E3E00
780F00
780F00
F00F00
F00780
F00F80
F00F80
780F00
781F00
7C3F00
3FFE00
1FFC00
07F000
03E000
01F800
007C00
3FFE00
3FFE00
3FFE00
ENDCHAR
STARTCHAR 018E
ENCODING 398
SWIDTH 687 0
DWIDTH 21 0
BBX 16 22 2 0
BITMAP
FFFF
FFFF
FFFF
FFFF
000F
000F
000F
000F
000F
7FFF
7FFF
7FFF
7FFF
000F
000F
000F
000F
000F
FFFF
FFFF
FFFF
FFFF
ENDCHAR
STARTCHAR 018F
ENCODING 399
SWIDTH 752 0
DWIDTH 23 0
BBX 20 22 1 0
BITMAP
03F800
0FFF00
1FFF80
3FFFC0
7F07E0
7C03E0
1C01F0
0001F0
0001F0
FFFFF0
FFFFF0
FFFFF0
FFFFF0
7801F0
7801F0
7C01F0
7E03E0
3F07E0
1FFFC0
0FFF80
07FF00
01FC00
ENDCHAR
STARTCHAR 0190
ENCODING 400
SWIDTH 621 0
DWIDTH 19 0
BBX 17 22 2 0
BITMAP
07F000
1FFC00
7FFE00
7FFE00
FC3F00
F81F00
780C00
780000
3E0000
1FC000
1FC000
7FC000
FC0000
F80000
F00000
F00C00
F80F80
FC1F00
FFFF00
7FFE00
3FFC00
07F000
ENDCHAR
STARTCHAR 0191
ENCODING 401
SWIDTH 621 0
DWIDTH 19 0
BBX 19 28 -1 -6
BITMAP
1FFFE0
1FFFE0
1FFFE0
1FFFE0
1F0000
1F0000
1F0000
1F0000
1F0000
1FFF80
1FFF80
1FFF80
1FFF80
1F0000
1F0000
1F0000
1F0000
1F0000
1F0000
1F0000
1F0000
1F0000
1F0000
1F0000
FF0000
FE0000
FE0000
F80000
ENDCHAR
STARTCHAR 0192
ENCODING 402
SWIDTH 556 0
DWIDTH 17 0
BBX 17 28 0 -6
BITMAP
003F00
007F80
007F80
00FF80
00F880
00F000
07FE00
0FFE00
0FFE00
0FFE00
01E000
01E000
01E000
03E000
03E000
03C000
03C000
03C000
03C000
07C000
07C000
078000
078000
8F8000
FF8000
FF0000
FF0000
7E0000
ENDCHAR
STARTCHAR 0193
ENCODING 403
SWIDTH 785 0
DWIDTH 24 0
BBX 25 25 1 0
BITMAP
00001F80
00003F80
00007F80
00FE7800
07FFF800
0FFFF800
1FFFF800
3F83F800
3E01F800
7C00F800
7C00E000
78000000
78000000
F80FF800
F80FF800
780FF800
780FF800
7C007800
7C007800
3E007800
3F83F800
1FFFF800
0FFFF000
07FFC000
00FE0000
ENDCHAR
STARTCHAR 0194
ENCODING 404
SWIDTH 654 0
DWIDTH 20 0
BBX 19 28 0 -6
BITMAP
F801E0
7C03E0
7C03E0
3E07C0
3E07C0
1E0780
1F0F80
0F0F00
0F9F00
0F9E00
07FE00
07FC00
03FC00
03F800
01F800
01F800
00F000
01F000
01F800
01F800
03FC00
03FC00
07BC00
079E00
07FE00
07FC00
03FC00
01F800
ENDCHAR
STARTCHAR 0195
ENCODING 405
SWIDTH 949 0
DWIDTH 29 0
BBX 25 22 2 0
BITMAP
F0000000
F0000000
F0000000
F0000000
F0000000
F0000000
F1F00780
F7F80780
FFFC0780
FC3C0780
F83E0780
F81E0780
F81E0780
F01E0780
F01E0780
F01E0780
F01E0780
F01E0F80
F01F0F00
F00FFF00
F007FE00
F001F800
ENDCHAR
STARTCHAR 0196
ENCODING 406
SWIDTH 294 0
DWIDTH 9 0
BBX 4 22 2 0
BITMAP
F0
F0
F0
F0
F0
F0
F0
F0
F0
F0
F0
F0
F0
F0
F0
F0
F0
F0
F0
F0
F0
F0
ENDCHAR
STARTCHAR 0197
ENCODING 407
SWIDTH 294 0
DWIDTH 9 0
BBX 9 22 0 0
BITMAP
3E00
3E00
3E00
3E00
3E00
3E00
3E00
3E00
3E00
FF80
FF80
FF80
3E00
3E00
3E00
3E00
3E00
3E00
3E00
3E00
3E00
3E00
ENDCHAR
STARTCHAR 0198
ENCODING 408
SWIDTH 720 0
DWIDTH 22 0
BBX 20 22 2 0
BITMAP
1F87E0
7F87C0
7F8F80
F81F00
F83E00
F87E00
F8FC00
F8F800
F9F000
FBF000
FFF800
FFF800
FF7C00
FE3E00
FC3E00
F81F00
F81F80
F80F80
F80FC0
F807E0
F803E0
F803F0
ENDCHAR
STARTCHAR 0199
ENCODING 409
SWIDTH 556 0
DWIDTH 17 0
BBX 15 22 2 0
BITMAP
3F80
7F00
FF00
F800
F000
F000
F07C
F0F8
F1F0
F1E0
F3C0
F780
FF80
FFC0
FFE0
FDE0
F9F0
F0F0
F0F8
F078
F03C
F03E
ENDCHAR
STARTCHAR 019A
ENCODING 410
SWIDTH 294 0
DWIDTH 9 0
BBX 8 22 0 0
BITMAP
3C
3C
3C
3C
3C
3C
3C
3C
3C
FF
FF
FF
3C
3C
3C
3C
3C
3C
3C
3C
3C
3C
ENDCHAR
STARTCHAR 019B
ENCODING 411
SWIDTH 556 0
DWIDTH 17 0
BBX 17 22 0 0
BITMAP
0F3000
07F000
07F000
1FC000
7FC000
7BC000
23E000
03E000
07F000
07F000
07F000
0F7800
0F7800
0F7C00
1E3C00
1E3C00
3E3E00
3C1E00
3C1F00
7C0F00
780F00
F80F80
ENDCHAR
STARTCHAR 019C
ENCODING 412
SWIDTH 1014 0
DWIDTH 31 0
BBX 26 22 2 0
BITMAP
F81F03C0
F81F03C0
F81F03C0
F81F03C0
F81F03C0
F81F03C0
F81F03C0
F81F03C0
F81F03C0
F81F03C0
F81F03C0
F81F03C0
F81F03C0
F81F03C0
F81F03C0
F81F03C0
F83F07C0
FC7F8FC0
7FFFFFC0
7FFFFFC0
3FEFFFC0
1FC3F3C0
ENDCHAR
STARTCHAR 019D
ENCODING 413
SWIDTH 720 0
DWIDTH 22 0
BBX 21 28 -1 -6
BITMAP
1F0078
1F8078
1F8078
1FC078
1FC078
1FE078
1FF078
1EF078
1EF878
1E7878
1E3C78
1E3C78
1E1E78
1E1F78
1E0F78
1E07F8
1E07F8
1E03F8
1E03F8
1E01F8
1E00F8
1E00F8
1E0000
1E0000
1E0000
FE0000
FC0000
F80000
ENDCHAR
STARTCHAR 019E
ENCODING 414
SWIDTH 621 0
DWIDTH 19 0
BBX 15 22 2 -6
BITMAP
F1F0
F7F8
FFFC
FC3E
F83E
F83E
F81E
F01E
F01E
F01E
F01E
F01E
F01E
F01E
F01E
F01E
001E
001E
001E
001E
001E
001E
ENDCHAR
STARTCHAR 019F
ENCODING 415
SWIDTH 785 0
DWIDTH 24 0
BBX 22 22 1 0
BITMAP
01FE00
07FF80
0FFFC0
1FFFE0
3F03F0
7E01F8
7C00F8
780078
F8007C
FFFFFC
FFFFFC
FFFFFC
FFFFFC
F8007C
780078
7C00F8
7E01F8
3F03F0
1FFFE0
0FFFE0
07FF80
01FE00
ENDCHAR
STARTCHAR 01A0
ENCODING 416
SWIDTH 850 0
DWIDTH 26 0
BBX 25 22 1 0
BITMAP
01FE0780
07FF8780
0FFFE780
1FFFF780
3F03F180
7E01F980
7C00FB80
7C007F00
78007E00
F8007C00
F8007C00
F8007C00
F8007C00
78007C00
7C007800
7C00F800
7E01F800
3F03F000
1FFFE000
0FFFC000
07FF8000
01FE0000
ENDCHAR
STARTCHAR 01A1
ENCODING 417
SWIDTH 720 0
DWIDTH 22 0
BBX 21 16 1 0
BITMAP
07F078
1FFC78
3FFE78
7E3F78
7C1F18
780FB8
F80FB0
F80FF0
F80FC0
F80F80
780F00
7C1F00
7E3E00
3FFE00
1FF800
07E000
ENDCHAR
STARTCHAR 01A2
ENCODING 418
SWIDTH 883 0
DWIDTH 27 0
BBX 24 28 1 -6
BITMAP
01FC03
07FF1F
0FFFFF
1FFFFF
3F078F
7E078F
7C078F
7C078F
78078F
F8078F
F8078F
F8078F
F8078F
78078F
7C078F
7C078F
7E078F
3F078F
1FFF8F
0FFF8F
07FF8F
01FE0F
00000F
00000F
00000F
00000F
00000F
00000F
ENDCHAR
STARTCHAR 01A3
ENCODING 419
SWIDTH 752 0
DWIDTH 23 0
BBX 20 22 1 -6
BITMAP
07F0F0
1FFFF0
3FFFF0
7C7CF0
787CF0
787CF0
F87CF0
F87CF0
F87CF0
F87CF0
787CF0
787CF0
7C7CF0
3FFCF0
1FFCF0
07F0F0
0000F0
0000F0
0000F0
0000F0
0000F0
0000F0
ENDCHAR
STARTCHAR 01A4
ENCODING 420
SWIDTH 785 0
DWIDTH 24 0
BBX 23 22 0 0
BITMAP
1FFFE0
7FFFF8
7FFFF8
7FFFFC
F3C07C
F3C03E
73C03E
73C03E
03C03E
03C07C
03FFFC
03FFF8
03FFF0
03FFC0
03C000
03C000
03C000
03C000
03C000
03C000
03C000
03C000
ENDCHAR
STARTCHAR 01A5
ENCODING 421
SWIDTH 621 0
DWIDTH 19 0
BBX 16 28 2 -6
BITMAP
3F80
7F00
FF00
F800
F000
F000
F1F0
F7F8
FFFC
FC3E
F81E
F81F
F01F
F01F
F01F
F01F
F81E
F81E
FC3E
FFFC
F7F8
F3F0
F000
F000
F000
F000
F000
F000
ENDCHAR
STARTCHAR 01A6
ENCODING 422
SWIDTH 687 0
DWIDTH 21 0
BBX 19 27 2 -5
BITMAP
F80000
F80000
F80000
FFF800
FFFE00
FFFF00
FFFF80
F81F80
F80F80
F80780
F80F80
F81F80
FFFF80
FFFF00
FFFE00
FFF800
F9F000
F8F800
F8F800
F87C00
F87E00
F83E00
001F00
001F80
000F80
000FC0
0007E0
ENDCHAR
STARTCHAR 01A7
ENCODING 423
SWIDTH 687 0
DWIDTH 21 0
BBX 18 22 2 0
BITMAP
07F000
1FFC00
7FFF00
7FFF00
FC1F80
F80F80
000F80
001F80
00FF00
0FFE00
3FFC00
7FF000
FF8000
F80000
F00000
F007C0
F00F80
FC1F80
FFFF80
7FFF00
3FFE00
0FF000
ENDCHAR
STARTCHAR 01A8
ENCODING 424
SWIDTH 556 0
DWIDTH 17 0
BBX 14 16 2 0
BITMAP
1FE0
3FF0
7FF8
F87C
703C
007C
03FC
3FF8
7FE0
FF00
F000
F03C
F07C
FFFC
7FF8
1FE0
ENDCHAR
STARTCHAR 01A9
ENCODING 425
SWIDTH 621 0
DWIDTH 19 0
BBX 16 22 1 0
BITMAP
7FFF
7FFF
7FFF
7FFF
7E00
3E00
1F00
0F80
0FC0
07E0
03F0
03E0
07C0
0F80
1F80
3F00
3E00
7C00
FFFF
FFFF
FFFF
FFFF
ENDCHAR
STARTCHAR 01AA
ENCODING 426
SWIDTH 360 0
DWIDTH 11 0
BBX 13 28 0 -6
BITMAP
3C00
7F00
4F00
C780
4F80
7F80
3F80
0780
0780
0780
0780
0780
0780
0780
0780
0780
0780
0780
0780
0780
0780
0780
0780
0780
07F0
07F0
03F0
01F8
ENDCHAR
STARTCHAR 01AB
ENCODING 427
SWIDTH 327 0
DWIDTH 10 0
BBX 10 28 0 -6
BITMAP
0200
0600
1E00
3E00
3E00
3E00
FFC0
FFC0
FFC0
3E00
3E00
3E00
3E00
3E00
3E00
3E00
3E00
3E00
1E00
1FC0
1FC0
0FC0
03C0
03C0
07C0
1F80
3F80
3F00
ENDCHAR
STARTCHAR 01AC
ENCODING 428
SWIDTH 621 0
DWIDTH 19 0
BBX 18 22 0 0
BITMAP
1FFFC0
7FFFC0
7FFFC0
FFFFC0
F1F000
F1F000
71F000
71F000
01F000
01F000
01F000
01F000
01F000
01F000
01F000
01F000
01F000
01F000
01F000
01F000
01F000
01F000
ENDCHAR
STARTCHAR 01AD
ENCODING 429
SWIDTH 327 0
DWIDTH 10 0
BBX 11 22 0 0
BITMAP
07E0
1FE0
1FE0
3E00
3E00
3E00
FFC0
FFC0
FFC0
3E00
3E00
3E00
3E00
3E00
3E00
3E00
3E00
3E00
3E00
1FC0
1FC0
0FC0
ENDCHAR
STARTCHAR 01AE
ENCODING 430
SWIDTH 621 0
DWIDTH 19 0
BBX 17 29 1 -7
BITMAP
FFFF80
FFFF80
FFFF80
FFFF80
03E000
03E000
03E000
03E000
03E000
03E000
03E000
03E000
03E000
03E000
03E000
03E000
03E000
03E000
03E000
03E000
03E000
03E000
03E000
03E000
03E000
03FC00
01FC00
01FC00
007C00
ENDCHAR
STARTCHAR 01AF
ENCODING 431
SWIDTH 850 0
DWIDTH 26 0
BBX 24 22 2 0
BITMAP
F807DF
F807DF
F807DF
F807DF
F807C7
F807C7
F807C6
F807DE
F807FC
F807F0
F807C0
F807C0
F807C0
F807C0
F807C0
F807C0
7807C0
7E0F80
7FFF80
3FFF00
1FFE00
07F800
ENDCHAR
STARTCHAR 01B0
ENCODING 432
SWIDTH 720 0
DWIDTH 22 0
BBX 20 16 2 0
BITMAP
F03EF0
F03EF0
F03EF0
F03EF0
F03E30
F03E30
F03E30
F03EF0
F03FE0
F03F80
F03E00
F83E00
F87E00
7FFE00
7FDE00
1F1E00
ENDCHAR
STARTCHAR 01B1
ENCODING 433
SWIDTH 818 0
DWIDTH 25 0
BBX 22 22 1 0
BITMAP
FFEFFC
FFEFFC
FFEFFC
FFEFFC
0F83E0
1F01E0
1E00F0
3C0078
3C0078
7C007C
7C007C
78007C
7C007C
7C007C
7C007C
7E00FC
3E01F8
3F83F8
1FFFF0
0FFFE0
07FFC0
00FE00
ENDCHAR
STARTCHAR 01B2
ENCODING 434
SWIDTH 720 0
DWIDTH 22 0
BBX 18 22 2 0
BITMAP
F87E00
F87F80
F83F80
F807C0
F807C0
F807C0
F807C0
F807C0
F807C0
F807C0
F807C0
F807C0
F80780
F80780
F80F80
F80F80
781F00
7C3F00
7FFE00
3FFE00
1FF800
07F000
ENDCHAR
STARTCHAR 01B3
ENCODING 435
SWIDTH 785 0
DWIDTH 24 0
BBX 24 22 0 0
BITMAP
F800F0
7C01FC
3E03FE
3E03FF
1F07CE
1F0FC0
0F8F80
079F00
07DF00
03FE00
01FC00
01FC00
00F800
00F800
00F800
00F800
00F800
00F800
00F800
00F800
00F800
00F800
ENDCHAR
STARTCHAR 01B4
ENCODING 436
SWIDTH 556 0
DWIDTH 17 0
BBX 22 28 0 -6
BITMAP
0000F0
0003FC
0003FC
0007F8
000780
000780
F80F80
780F00
7C0F00
3C1E00
3C1E00
3E1E00
1E3C00
1E3C00
1F3C00
0F7800
0F7800
07F000
07F000
07F000
03E000
03E000
03E000
03C000
07C000
7F8000
7F0000
3E0000
ENDCHAR
STARTCHAR 01B5
ENCODING 437
SWIDTH 621 0
DWIDTH 19 0
BBX 18 22 0 0
BITMAP
3FFFC0
3FFFC0
3FFFC0
3FFFC0
001F80
001F00
003E00
007C00
00F800
FFFFC0
FFFFC0
FFFFC0
07C000
0F8000
1F8000
3F0000
7E0000
7C0000
FFFFC0
FFFFC0
FFFFC0
FFFFC0
ENDCHAR
STARTCHAR 01B6
ENCODING 438
SWIDTH 523 0
DWIDTH 16 0
BBX 14 16 1 0
BITMAP
FFF8
FFF8
FFF8
01F8
03F0
07E0
FFF8
FFF8
FFF8
3E00
7E00
7C00
F800
FFFC
FFFC
FFFC
ENDCHAR
STARTCHAR 01B7
ENCODING 439
SWIDTH 621 0
DWIDTH 19 0
BBX 17 28 1 -6
BITMAP
FFFF00
FFFF00
FFFF00
FFFF00
003E00
007E00
007C00
00F800
01F000
03E000
07C000
07F000
07F800
07FE00
003E00
001F00
000F00
000F00
000F80
000F80
000F80
700F00
F81F00
FC3F00
7FFE00
3FFC00
1FF800
07E000
ENDCHAR
STARTCHAR 01B8
ENCODING 440
SWIDTH 621 0
DWIDTH 19 0
BBX 17 28 1 -6
BITMAP
7FFF80
7FFF80
7FFF80
7FFF80
3E0000
3E0000
1F0000
0F8000
07C000
03E000
01F000
07F000
1FF000
3FF000
3E0000
7C0000
780000
F80000
F80000
F80000
F80000
780700
7C0F80
7E1F00
3FFF00
1FFE00
0FFC00
03F000
ENDCHAR
STARTCHAR 01B9
ENCODING 441
SWIDTH 523 0
DWIDTH 16 0
BBX 15 22 1 -6
BITMAP
FFF8
FFF8
FFF8
7C00
3E00
1E00
0F00
0F80
1FC0
3FC0
7C00
F800
F000
F000
F000
F000
F03C
F83E
7C7C
7FF8
3FF8
0FE0
ENDCHAR
STARTCHAR 01BA
ENCODING 442
SWIDTH 523 0
DWIDTH 16 0
BBX 15 22 1 -6
BITMAP
7FFC
7FFC
7FFC
00F8
01E0
03C0
07E0
07F8
07F8
007C
003C
007C
07FC
3FF8
7FF0
FF80
F81C
F03E
F87C
FFFC
7FF8
1FE0
ENDCHAR
STARTCHAR 01BB
ENCODING 443
SWIDTH 556 0
DWIDTH 17 0
BBX 15 22 1 0
BITMAP
0FE0
1FF8
3FFC
7FFC
7C7E
F83E
F83E
003C
003C
007C
FFFE
FFFE
FFFE
07C0
0F80
1F00
3E00
7E00
7FFE
FFFE
FFFE
FFFE
ENDCHAR
STARTCHAR 01BC
ENCODING 444
SWIDTH 556 0
DWIDTH 17 0
BBX 15 22 1 0
BITMAP
FFFC
FFFC
FFFC
FFFC
1E00
1E00
1E00
1FE0
1FF8
1FFC
1FFC
003E
003E
001E
001E
F81E
783E
7C7E
7FFC
3FF8
1FF0
07E0
ENDCHAR
STARTCHAR 01BD
ENCODING 445
SWIDTH 490 0
DWIDTH 15 0
BBX 14 16 0 0
BITMAP
FFF8
FFF8
FFF8
1E00
1E00
1E00
1FE0
1FF8
1FFC
007C
003C
383C
7C7C
7FFC
3FF8
0FE0
ENDCHAR
STARTCHAR 01BE
ENCODING 446
SWIDTH 589 0
DWIDTH 18 0
BBX 17 22 0 0
BITMAP
020000
060000
1E0000
3E0000
3E0000
3E0000
FFC000
FFC000
FFC000
3E0000
3E0000
1F8000
1FF000
0FFE00
03FF00
007F80
1C0F80
3E0780
3F0F80
1FFF00
0FFE00
03F800
ENDCHAR
STARTCHAR 01BF
ENCODING 447
SWIDTH 621 0
DWIDTH 19 0
BBX 16 22 2 -6
BITMAP
F1F0
F7FC
FFFC
FC3E
F81E
F81F
F01F
F01F
F01F
F01E
F01E
F03E
F07C
F0F8
F1F0
F7E0
FF80
FE00
F800
F000
F000
F000
ENDCHAR
STARTCHAR 01C0
ENCODING 448
SWIDTH 294 0
DWIDTH 9 0
BBX 3 22 3 0
BITMAP
E0
E0
E0
E0
E0
E0
E0
E0
E0
E0
E0
E0
E0
E0
E0
E0
E0
E0
E0
E0
E0
E0
ENDCHAR
STARTCHAR 01C1
ENCODING 449
SWIDTH 490 0
DWIDTH 15 0
BBX 10 22 3 0
BITMAP
E3C0
E3C0
E3C0
E3C0
E3C0
E3C0
E3C0
E3C0
E3C0
E3C0
E3C0
E3C0
E3C0
E3C0
E3C0
E3C0
E3C0
E3C0
E3C0
E3C0
E3C0
E3C0
ENDCHAR
STARTCHAR 01C2
ENCODING 450
SWIDTH 589 0
DWIDTH 18 0
BBX 16 22 1 0
BITMAP
03C0
03C0
03C0
03C0
03C0
03C0
FFFF
FFFF
FFFF
FFFF
03C0
03C0
03C0
FFFF
FFFF
FFFF
FFFF
03C0
03C0
03C0
03C0
03C0
ENDCHAR
STARTCHAR 01C3
ENCODING 451
SWIDTH 327 0
DWIDTH 10 0
BBX 4 22 3 0
BITMAP
F0
F0
F0
F0
F0
F0
F0
F0
F0
F0
F0
F0
70
70
60
60
00
00
F0
F0
F0
F0
ENDCHAR
STARTCHAR 01C4
ENCODING 452
SWIDTH 1341 0
DWIDTH 41 0
BBX 38 28 2 0
BITMAP
00000079E0
0000003DC0
0000001F80
0000000F80
0000000000
0000000000
FFF803FFFC
FFFE03FFFC
FFFF03FFFC
FFFF83FFF8
F81F8000F8
F807C001F0
F807C003E0
F803C007C0
F803E00F80
F803E01F80
F803E01F00
F803E03E00
F803E07C00
F803E0F800
F803E1F800
F803C3F000
F807C3E000
F80F87C000
FFFF8FFFFC
FFFF0FFFFC
FFFE0FFFFC
FFF80FFFFC
ENDCHAR
STARTCHAR 01C5
ENCODING 453
SWIDTH 1243 0
DWIDTH 38 0
BBX 35 23 2 0
BITMAP
000001E780
FFF800F700
FFFE007E00
FFFF003E00
FFFF800000
F81F800000
F807C00000
F807C7FFC0
F803C7FFC0
F803E7FFC0
F803E00FC0
F803E01F80
F803E01F00
F803E03F00
F803E07E00
F803E0FC00
F803C1F800
F807C1F000
F80F83E000
FFFF87E000
FFFF07FFE0
FFFE07FFE0
FFF807FFE0
ENDCHAR
STARTCHAR 01C6
ENCODING 454
SWIDTH 1112 0
DWIDTH 34 0
BBX 33 23 1 0
BITMAP
0000079E00
000F03DC00
000F01F800
000F00F800
000F000000
000F000000
000F000000
0F8F1FFF00
1FEF1FFF00
3FFF1FFF00
7C3F003F00
781F007E00
F81F007C00
F80F00FC00
F80F01F800
F80F03F000
F80F07E000
781F07C000
781F0F8000
7C3F1F8000
3FFF1FFF80
1FEF1FFF80
07CF1FFF80
ENDCHAR
STARTCHAR 01C7
ENCODING 455
SWIDTH 1178 0
DWIDTH 36 0
BBX 32 22 2 0
BITMAP
F800001F
F800001F
F800001F
F800001F
F800001F
F800001F
F800001F
F800001F
F800001F
F800001F
F800001F
F800001F
F800001F
F800001F
F8003C1F
F8003C1F
F8003C1F
F8003E3E
FFFF3FFE
FFFF1FFC
FFFF0FF8
FFFF07F0
ENDCHAR
STARTCHAR 01C8
ENCODING 456
SWIDTH 916 0
DWIDTH 28 0
BBX 23 28 2 -6
BITMAP
F8001E
F8001E
F8001E
F80000
F80000
F80000
F8001E
F8001E
F8001E
F8001E
F8001E
F8001E
F8001E
F8001E
F8001E
F8001E
F8001E
F8001E
FFFF1E
FFFF1E
FFFF1E
FFFF1E
00001E
00001E
00001E
0000FE
0000FC
0000F8
ENDCHAR
STARTCHAR 01C9
ENCODING 457
SWIDTH 556 0
DWIDTH 17 0
BBX 13 28 2 -6
BITMAP
F078
F078
F078
F000
F000
F000
F078
F078
F078
F078
F078
F078
F078
F078
F078
F078
F078
F078
F078
F078
F078
F078
0078
0078
0078
03F8
03F0
03E0
ENDCHAR
STARTCHAR 01CA
ENCODING 458
SWIDTH 1309 0
DWIDTH 40 0
BBX 35 22 2 0
BITMAP
F803C003E0
FC03C003E0
FC03C003E0
FE03C003E0
FE03C003E0
FF03C003E0
FF83C003E0
F783C003E0
F7C3C003E0
F3C3C003E0
F1E3C003E0
F1E3C003E0
F0F3C003E0
F0FBC003E0
F07BC783E0
F03FC783E0
F03FC783E0
F01FC7C7C0
F01FC7FFC0
F00FC3FF80
F007C1FF00
F007C0FE00
ENDCHAR
STARTCHAR 01CB
ENCODING 459
SWIDTH 1014 0
DWIDTH 31 0
BBX 26 28 2 -6
BITMAP
F803C3C0
FC03C3C0
FC03C3C0
FE03C000
FE03C000
FF03C000
FF83C3C0
F783C3C0
F7C3C3C0
F3C3C3C0
F1E3C3C0
F1E3C3C0
F0F3C3C0
F0FBC3C0
F07BC3C0
F03FC3C0
F03FC3C0
F01FC3C0
F01FC3C0
F00FC3C0
F007C3C0
F007C3C0
000003C0
000003C0
000003C0
00001FC0
00001F80
00001F00
ENDCHAR
STARTCHAR 01CC
ENCODING 460
SWIDTH 916 0
DWIDTH 28 0
BBX 23 28 2 -6
BITMAP
00001E
00001E
00001E
000000
000000
000000
F1F01E
F7FC1E
FFFC1E
FC3E1E
F83E1E
F83E1E
F81E1E
F01E1E
F01E1E
F01E1E
F01E1E
F01E1E
F01E1E
F01E1E
F01E1E
F01E1E
00001E
00001E
00001E
0000FE
0000FC
0000F8
ENDCHAR
STARTCHAR 01CD
ENCODING 461
SWIDTH 720 0
DWIDTH 22 0
BBX 22 28 0 0
BITMAP
03CF00
01EE00
00FC00
007C00
000000
000000
00FC00
00FC00
00FC00
01FE00
01FE00
03DF00
03CF00
03CF00
078F80
078780
0787C0
0F03C0
0F03C0
1FFFE0
1FFFE0
1FFFF0
3FFFF0
3C00F0
7C00F8
7C00F8
78007C
F8007C
ENDCHAR
STARTCHAR 01CE
ENCODING 462
SWIDTH 556 0
DWIDTH 17 0
BBX 15 23 1 0
BITMAP
3CF0
1EE0
0FC0
07C0
0000
0000
0000
0FE0
3FF8
7FFC
787C
383C
003C
00FC
0FFC
3FFC
7F3C
F83C
F03C
F87C
7FFC
7FDE
1F1E
ENDCHAR
STARTCHAR 01CF
ENCODING 463
SWIDTH 294 0
DWIDTH 9 0
BBX 10 28 -1 0
BITMAP
F3C0
7B80
3F00
1F00
0000
0000
1F00
1F00
1F00
1F00
1F00
1F00
1F00
1F00
1F00
1F00
1F00
1F00
1F00
1F00
1F00
1F00
1F00
1F00
1F00
1F00
1F00
1F00
ENDCHAR
STARTCHAR 01D0
ENCODING 464
SWIDTH 294 0
DWIDTH 9 0
BBX 10 23 -1 0
BITMAP
F3C0
7B80
3F00
1F00
0000
0000
0000
1E00
1E00
1E00
1E00
1E00
1E00
1E00
1E00
1E00
1E00
1E00
1E00
1E00
1E00
1E00
1E00
ENDCHAR
STARTCHAR 01D1
ENCODING 465
SWIDTH 785 0
DWIDTH 24 0
BBX 22 28 1 0
BITMAP
03CF00
01EE00
00FC00
007C00
000000
000000
01FE00
07FF80
0FFFC0
1FFFE0
3F03F0
7E01F8
7C00F8
7C0078
78007C
F8007C
F8007C
F8007C
F8007C
78007C
7C0078
7C00F8
7E01F8
3F83F0
1FFFF0
0FFFE0
07FF80
01FE00
ENDCHAR
STARTCHAR 01D2
ENCODING 466
SWIDTH 621 0
DWIDTH 19 0
BBX 17 23 1 0
BITMAP
1E7800
0F7000
07E000
03E000
000000
000000
000000
07F000
1FFC00
3FFE00
7E3F00
7C1F00
780F00
F80F80
F80F80
F80F80
F80F80
780F00
7C1F00
7E3F00
3FFE00
1FFC00
07F000
ENDCHAR
STARTCHAR 01D3
ENCODING 467
SWIDTH 720 0
DWIDTH 22 0
BBX 18 28 2 0
BITMAP
0F3C00
07B800
03F000
01F000
000000
000000
F807C0
F807C0
F807C0
F807C0
F807C0
F807C0
F807C0
F807C0
F807C0
F807C0
F807C0
F807C0
F807C0
F807C0
F807C0
F807C0
7807C0
7E0F80
7FFF80
3FFF00
1FFE00
07F800
ENDCHAR
STARTCHAR 01D4
ENCODING 468
SWIDTH 621 0
DWIDTH 19 0
BBX 15 23 2 0
BITMAP
3CF0
1EE0
0FC0
07C0
0000
0000
0000
F03E
F03E
F03E
F03E
F03E
F03E
F03E
F03E
F03E
F03E
F03E
F83E
F87E
7FFE
7FDE
1F1E
ENDCHAR
STARTCHAR 01D5
ENCODING 469
SWIDTH 720 0
DWIDTH 22 0
BBX 18 28 2 0
BITMAP
07F800
07F800
000000
061800
061800
000000
F807C0
F807C0
F807C0
F807C0
F807C0
F807C0
F807C0
F807C0
F807C0
F807C0
F807C0
F807C0
F807C0
F807C0
F807C0
F807C0
7807C0
7E0F80
7FFF80
3FFF00
1FFE00
07F800
ENDCHAR
STARTCHAR 01D6
ENCODING 470
SWIDTH 621 0
DWIDTH 19 0
BBX 15 28 2 0
BITMAP
3FF0
3FF0
3FF0
0000
0000
0000
3C70
3C70
3C70
0000
0000
0000
F03E
F03E
F03E
F03E
F03E
F03E
F03E
F03E
F03E
F03E
F03E
F83E
F87E
7FFE
7FDE
1F1E
ENDCHAR
STARTCHAR 01D7
ENCODING 471
SWIDTH 720 0
DWIDTH 22 0
BBX 18 28 2 0
BITMAP
007800
00E000
00C000
061800
061800
000000
F807C0
F807C0
F807C0
F807C0
F807C0
F807C0
F807C0
F807C0
F807C0
F807C0
F807C0
F807C0
F807C0
F807C0
F807C0
F807C0
7807C0
7E0F80
7FFF80
3FFF00
1FFE00
07F800
ENDCHAR
STARTCHAR 01D8
ENCODING 472
SWIDTH 621 0
DWIDTH 19 0
BBX 15 28 2 0
BITMAP
01E0
03C0
03C0
0780
0700
0000
3C70
3C70
3C70
0000
0000
0000
F03E
F03E
F03E
F03E
F03E
F03E
F03E
F03E
F03E
F03E
F03E
F83E
F87E
7FFE
7FDE
1F1E
ENDCHAR
STARTCHAR 01D9
ENCODING 473
SWIDTH 720 0
DWIDTH 22 0
BBX 18 28 2 0
BITMAP
073800
03F000
01E000
061800
061800
000000
F807C0
F807C0
F807C0
F807C0
F807C0
F807C0
F807C0
F807C0
F807C0
F807C0
F807C0
F807C0
F807C0
F807C0
F807C0
F807C0
7807C0
7E0F80
7FFF80
3FFF00
1FFE00
07F800
ENDCHAR
STARTCHAR 01DA
ENCODING 474
SWIDTH 621 0
DWIDTH 19 0
BBX 15 27 2 0
BITMAP
3CF0
1EE0
0FC0
07C0
0000
3C70
3C70
3C70
0000
0000
0000
F03E
F03E
F03E
F03E
F03E
F03E
F03E
F03E
F03E
F03E
F03E
F83E
F87E
7FFE
7FDE
1F1E
ENDCHAR
STARTCHAR 01DB
ENCODING 475
SWIDTH 720 0
DWIDTH 22 0
BBX 18 28 2 0
BITMAP
078000
01C000
00C000
061800
061800
000000
F807C0
F807C0
F807C0
F807C0
F807C0
F807C0
F807C0
F807C0
F807C0
F807C0
F807C0
F807C0
F807C0
F807C0
F807C0
F807C0
7807C0
7E0F80
7FFF80
3FFF00
1FFE00
07F800
ENDCHAR
STARTCHAR 01DC
ENCODING 476
SWIDTH 621 0
DWIDTH 19 0
BBX 15 28 2 0
BITMAP
1F00
0F00
0700
0380
0380
0000
3C70
3C70
3C70
0000
0000
0000
F03E
F03E
F03E
F03E
F03E
F03E
F03E
F03E
F03E
F03E
F03E
F83E
F87E
7FFE
7FDE
1F1E
ENDCHAR
STARTCHAR 01DD
ENCODING 477
SWIDTH 556 0
DWIDTH 17 0
BBX 15 16 1 0
BITMAP
0FE0
3FF8
7FFC
7C7C
783E
001E
001E
FFFE
FFFE
FFFE
701E
783E
7C3C
3FF8
1FF0
07E0
ENDCHAR
STARTCHAR 01DE
ENCODING 478
SWIDTH 720 0
DWIDTH 22 0
BBX 22 28 0 0
BITMAP
01FE00
01FE00
000000
018600
018600
000000
00FC00
00FC00
00FC00
01FE00
01FE00
03DF00
03CF00
03CF00
078F80
078780
0787C0
0F03C0
0F03C0
1FFFE0
1FFFE0
1FFFF0
3FFFF0
3C00F0
7C00F8
7C00F8
78007C
F8007C
ENDCHAR
STARTCHAR 01DF
ENCODING 479
SWIDTH 556 0
DWIDTH 17 0
BBX 15 27 1 0
BITMAP
3FF0
3FF0
3FF0
0000
0000
3C70
3C70
3C70
0000
0000
0000
0FE0
3FF8
7FFC
787C
383C
003C
00FC
0FFC
3FFC
7F3C
F83C
F03C
F87C
7FFC
7FDE
1F1E
ENDCHAR
STARTCHAR 01E0
ENCODING 480
SWIDTH 720 0
DWIDTH 22 0
BBX 22 28 0 0
BITMAP
01FE00
01FE00
000000
003000
003000
000000
00FC00
00FC00
00FC00
01FE00
01FE00
03DF00
03CF00
03CF00
078F80
078780
0787C0
0F03C0
0F03C0
1FFFE0
1FFFE0
1FFFF0
3FFFF0
3C00F0
7C00F8
7C00F8
78007C
F8007C
ENDCHAR
STARTCHAR 01E1
ENCODING 481
SWIDTH 556 0
DWIDTH 17 0
BBX 15 27 1 0
BITMAP
3FF0
3FF0
3FF0
0000
0000
0780
0780
0780
0780
0000
0000
0FE0
3FF8
7FFC
787C
383C
003C
00FC
0FFC
3FFC
7F3C
F83C
F03C
F87C
7FFC
7FDE
1F1E
ENDCHAR
STARTCHAR 01E2
ENCODING 482
SWIDTH 1014 0
DWIDTH 31 0
BBX 31 27 -1 0
BITMAP
0001FF80
0001FF80
0001FF80
00000000
00000000
003FFFFC
007FFFFC
007FFFFC
00F9FFFC
00F1E000
01F1E000
01E1E000
01E1E000
03E1FFF8
03C1FFF8
07C1FFF8
0781FFF8
0F81E000
0FFFE000
1FFFE000
1FFFE000
3FFFE000
3E01E000
7C01FFFE
7C01FFFE
F801FFFE
F801FFFE
ENDCHAR
STARTCHAR 01E3
ENCODING 483
SWIDTH 916 0
DWIDTH 28 0
BBX 25 22 1 0
BITMAP
00FFC000
00FFC000
00FFC000
00000000
00000000
00000000
0FE1F000
3FFFFC00
3FFFFE00
7C7F0F00
183E0700
003E0780
00FFFF80
0FFFFF80
3FFFFF80
7F3C0000
F83E0000
F83E0000
F87F0E00
7FFFFF80
7FE7FF00
1F81FC00
ENDCHAR
STARTCHAR 01E4
ENCODING 484
SWIDTH 785 0
DWIDTH 24 0
BBX 23 22 1 0
BITMAP
00FE00
07FFC0
0FFFE0
1FFFF0
3F83F0
3E00F8
7C00E0
7C0000
780000
780FF8
F80FF8
F80FF8
780FF8
780078
7C0FFE
7C0FFE
3E00F8
3F83F8
1FFFF8
0FFFF0
07FFC0
00FE00
ENDCHAR
STARTCHAR 01E5
ENCODING 485
SWIDTH 621 0
DWIDTH 19 0
BBX 17 22 1 -6
BITMAP
0F8F00
1FEF00
3FFF00
7C3F00
781F00
F80F00
F80F00
F80F00
F80F00
F80F00
781F00
7C3F00
3FFF00
1FEF00
0F8F00
000F00
FFFF80
001F00
7C3E00
7FFE00
3FFC00
0FF000
ENDCHAR
STARTCHAR 01E6
ENCODING 486
SWIDTH 785 0
DWIDTH 24 0
BBX 21 28 1 0
BITMAP
03CF00
01EE00
00FC00
007C00
000000
000000
00FE00
07FF80
0FFFE0
1FFFE0
3F83F0
3E01F8
7C00F8
7C00E0
780000
780000
F80FF8
F80FF8
780FF8
780FF8
7C0078
7C0078
3E0078
3F83F8
1FFFF8
0FFFF0
07FFC0
00FE00
ENDCHAR
STARTCHAR 01E7
ENCODING 487
SWIDTH 621 0
DWIDTH 19 0
BBX 16 29 1 -6
BITMAP
3CF0
1EE0
0FC0
07C0
0000
0000
0000
0F8F
1FEF
3FFF
7C3F
781F
781F
F80F
F80F
F80F
F80F
781F
781F
7C3F
3FFF
1FEF
0F8F
000F
600F
7C1E
7FFE
3FFC
0FF0
ENDCHAR
STARTCHAR 01E8
ENCODING 488
SWIDTH 720 0
DWIDTH 22 0
BBX 20 28 2 0
BITMAP
1E7800
0F7000
07E000
03E000
000000
000000
F807E0
F80FC0
F81F80
F83F00
F87E00
F8FC00
F9FC00
FBF800
FFF000
FFF000
FFF800
FFF800
FF7C00
FE7E00
FC3E00
F81F00
F81F80
F80F80
F80FC0
F807E0
F803E0
F803F0
ENDCHAR
STARTCHAR 01E9
ENCODING 489
SWIDTH 556 0
DWIDTH 17 0
BBX 15 28 2 0
BITMAP
79E0
3DC0
1F80
0F80
0000
0000
F000
F000
F000
F000
F000
F000
F07C
F0F8
F1F0
F3E0
F7C0
FF80
FF80
FFC0
FFE0
FDE0
F9F0
F0F0
F0F8
F078
F03C
F03E
ENDCHAR
STARTCHAR 01EA
ENCODING 490
SWIDTH 785 0
DWIDTH 24 0
BBX 22 28 1 -6
BITMAP
01FE00
07FF80
0FFFC0
1FFFE0
3F03F0
7E01F8
7C00F8
7C0078
78007C
F8007C
F8007C
F8007C
F8007C
78007C
7C0078
7C00F8
7E01F8
3F83F0
1FFFF0
0FFFE0
07FF80
01FE00
001C00
003800
003800
003800
003E00
001E00
ENDCHAR
STARTCHAR 01EB
ENCODING 491
SWIDTH 621 0
DWIDTH 19 0
BBX 17 22 1 -6
BITMAP
07F000
1FFC00
3FFE00
7E3F00
7C1F00
780F00
F80F80
F80F80
F80F80
F80F80
780F00
7C1F00
7E3F00
3FFE00
1FFC00
07F000
00E000
01C000
01C000
01C000
01F000
00F000
ENDCHAR
STARTCHAR 01EC
ENCODING 492
SWIDTH 785 0
DWIDTH 24 0
BBX 22 33 1 -6
BITMAP
03FF00
03FF00
03FF00
000000
000000
01FE00
07FF80
0FFFC0
1FFFE0
3F03F0
7E01F8
7C00F8
7C0078
78007C
F8007C
F8007C
F8007C
F8007C
78007C
7C0078
7C00F8
7E01F8
3F83F0
1FFFF0
0FFFE0
07FF80
01FE00
001C00
003800
003800
003800
003E00
001E00
ENDCHAR
STARTCHAR 01ED
ENCODING 493
SWIDTH 621 0
DWIDTH 19 0
BBX 17 28 1 -6
BITMAP
1FF800
1FF800
1FF800
000000
000000
000000
07F000
1FFC00
3FFE00
7E3F00
7C1F00
780F00
F80F80
F80F80
F80F80
F80F80
780F00
7C1F00
7E3F00
3FFE00
1FFC00
07F000
00E000
01C000
01C000
01C000
01F000
00F000
ENDCHAR
STARTCHAR 01EE
ENCODING 494
SWIDTH 621 0
DWIDTH 19 0
BBX 17 34 1 -6
BITMAP
1E7800
0F7000
07E000
03E000
000000
000000
FFFF00
FFFF00
FFFF00
FFFF00
003E00
007E00
007C00
00F800
01F000
03E000
07C000
07F000
07F800
07FE00
003E00
001F00
000F00
000F00
000F80
000F80
000F80
700F00
F81F00
FC3F00
7FFE00
3FFC00
1FF800
07E000
ENDCHAR
STARTCHAR 01EF
ENCODING 495
SWIDTH 523 0
DWIDTH 16 0
BBX 15 29 1 -6
BITMAP
1E78
0F70
07E0
03E0
0000
0000
0000
7FFC
7FFC
7FFC
0078
00F8
01F0
03E0
07C0
07E0
07F8
00FC
003C
003C
003E
003E
003E
703C
F03C
F87C
7FF8
3FF0
0FC0
ENDCHAR
STARTCHAR 01F0
ENCODING 496
SWIDTH 294 0
DWIDTH 9 0
BBX 10 29 -1 -6
BITMAP
F3C0
7B80
3F00
1F00
0000
0000
0000
1E00
1E00
1E00
1E00
1E00
1E00
1E00
1E00
1E00
1E00
1E00
1E00
1E00
1E00
1E00
1E00
1E00
1E00
1E00
FE00
FC00
F800
ENDCHAR
STARTCHAR 01F1
ENCODING 497
SWIDTH 1341 0
DWIDTH 41 0
BBX 38 22 2 0
BITMAP
FFF803FFFC
FFFE03FFFC
FFFF03FFFC
FFFF83FFF8
F81F8000F8
F807C001F0
F807C003E0
F803C007C0
F803E00F80
F803E01F80
F803E01F00
F803E03E00
F803E07C00
F803E0F800
F803E1F800
F803C3F000
F807C3E000
F80F87C000
FFFF8FFFFC
FFFF0FFFFC
FFFE0FFFFC
FFF80FFFFC
ENDCHAR
STARTCHAR 01F2
ENCODING 498
SWIDTH 1243 0
DWIDTH 38 0
BBX 35 22 2 0
BITMAP
FFF8000000
FFFE000000
FFFF000000
FFFF800000
F81F800000
F807C00000
F807C7FFC0
F803C7FFC0
F803E7FFC0
F803E00FC0
F803E01F80
F803E01F00
F803E03F00
F803E07E00
F803E0FC00
F803C1F800
F807C1F000
F80F83E000
FFFF87E000
FFFF07FFE0
FFFE07FFE0
FFF807FFE0
ENDCHAR
STARTCHAR 01F3
ENCODING 499
SWIDTH 1112 0
DWIDTH 34 0
BBX 33 22 1 0
BITMAP
000F000000
000F000000
000F000000
000F000000
000F000000
000F000000
0F8F1FFF00
1FEF1FFF00
3FFF1FFF00
7C3F003F00
781F007E00
F81F007C00
F80F00FC00
F80F01F800
F80F03F000
F80F07E000
781F07C000
781F0F8000
7C3F1F8000
3FFF1FFF80
1FEF1FFF80
07CF1FFF80
ENDCHAR
STARTCHAR 01F4
ENCODING 500
SWIDTH 785 0
DWIDTH 24 0
BBX 21 29 1 0
BITMAP
001E00
003C00
003C00
007800
007000
000000
000000
00FE00
07FF80
0FFFE0
1FFFE0
3F83F0
3E01F8
7C00F8
7C00E0
780000
780000
F80FF8
F80FF8
780FF8
780FF8
7C0078
7C0078
3E0078
3F83F8
1FFFF8
0FFFF0
07FFC0
00FE00
ENDCHAR
STARTCHAR 01F5
ENCODING 501
SWIDTH 621 0
DWIDTH 19 0
BBX 16 30 1 -6
BITMAP
00F0
01E0
01E0
03C0
0380
0000
0000
0000
0F8F
1FEF
3FFF
7C3F
781F
781F
F80F
F80F
F80F
F80F
781F
781F
7C3F
3FFF
1FEF
0F8F
000F
600F
7C1E
7FFE
3FFC
0FF0
ENDCHAR
STARTCHAR 01F6
ENCODING 502
SWIDTH 1047 0
DWIDTH 32 0
BBX 28 22 2 0
BITMAP
F803C000
F803C000
F803C000
F803C000
F803C000
F803C000
F803C0F0
F803C0F0
F803C0F0
FFFFC0F0
FFFFC0F0
FFFFC0F0
FFFFC0F0
F803C0F0
F803C0F0
F803C0F0
F803C0F0
F803C1F0
F803E1E0
F801FFE0
F800FFC0
F8003F00
ENDCHAR
STARTCHAR 01F7
ENCODING 503
SWIDTH 687 0
DWIDTH 21 0
BBX 17 28 2 -6
BITMAP
F1F800
F3FC00
F7FE00
FFFF00
FE1F80
FC0F80
F80F80
F80F80
F80780
F80F80
F80F80
F80F80
F80F80
F80F00
F81F00
F81E00
F83E00
F87C00
F87800
F8F800
F9F000
FFE000
FFC000
FF8000
FE0000
FC0000
F80000
F80000
ENDCHAR
STARTCHAR 01F8
ENCODING 504
SWIDTH 720 0
DWIDTH 22 0
BBX 18 29 2 0
BITMAP
07C000
03C000
01C000
00E000
00E000
000000
000000
F803C0
FC03C0
FC03C0
FE03C0
FE03C0
FF03C0
FF83C0
F783C0
F7C3C0
F3C3C0
F1E3C0
F1E3C0
F0F3C0
F0FBC0
F07BC0
F03FC0
F03FC0
F01FC0
F01FC0
F00FC0
F007C0
F007C0
ENDCHAR
STARTCHAR 01F9
ENCODING 505
SWIDTH 621 0
DWIDTH 19 0
BBX 15 24 2 0
BITMAP
1F00
0F00
0700
0380
0380
0000
0000
0000
F1F0
F7FC
FFFC
FC3E
F83E
F83E
F81E
F01E
F01E
F01E
F01E
F01E
F01E
F01E
F01E
F01E
ENDCHAR
STARTCHAR 01FA
ENCODING 506
SWIDTH 720 0
DWIDTH 22 0
BBX 22 31 0 0
BITMAP
001E00
003C00
003C00
007800
007000
003800
007C00
00CC00
00CC00
00FC00
00FC00
00FC00
01FE00
01FE00
03DF00
03CF00
03CF00
078F80
078780
0787C0
0F03C0
0F03C0
1FFFE0
1FFFE0
1FFFF0
3FFFF0
3C00F0
7C00F8
7C00F8
78007C
F8007C
ENDCHAR
STARTCHAR 01FB
ENCODING 507
SWIDTH 556 0
DWIDTH 17 0
BBX 15 29 1 0
BITMAP
01E0
03C0
03C0
0780
0700
0000
0380
07C0
0CC0
0CC0
07C0
0780
0000
0FE0
3FF8
7FFC
787C
383C
003C
00FC
0FFC
3FFC
7F3C
F83C
F03C
F87C
7FFC
7FDE
1F1E
ENDCHAR
STARTCHAR 01FC
ENCODING 508
SWIDTH 1014 0
DWIDTH 31 0
BBX 31 29 -1 0
BITMAP
0000F000
0001E000
0001E000
0003C000
00038000
00000000
00000000
003FFFFC
007FFFFC
007FFFFC
00F9FFFC
00F1E000
01F1E000
01E1E000
01E1E000
03E1FFF8
03C1FFF8
07C1FFF8
0781FFF8
0F81E000
0FFFE000
1FFFE000
1FFFE000
3FFFE000
3E01E000
7C01FFFE
7C01FFFE
F801FFFE
F801FFFE
ENDCHAR
STARTCHAR 01FD
ENCODING 509
SWIDTH 916 0
DWIDTH 28 0
BBX 25 24 1 0
BITMAP
00078000
000F0000
000F0000
001E0000
001C0000
00000000
00000000
00000000
0FE1F000
3FFFFC00
3FFFFE00
7C7F0F00
183E0700
003E0780
00FFFF80
0FFFFF80
3FFFFF80
7F3C0000
F83E0000
F83E0000
F87F0E00
7FFFFF80
7FE7FF00
1F81FC00
ENDCHAR
STARTCHAR 01FE
ENCODING 510
SWIDTH 785 0
DWIDTH 24 0
BBX 22 29 1 0
BITMAP
001E00
003C00
003C00
007800
007000
000000
000000
01FE18
07FFBC
0FFFF8
1FFFF0
3F03F0
7E03F8
7C03F8
7C0778
F80F7C
F81E7C
F83C7C
F8787C
F8F07C
79E07C
7FC078
7F80F8
7F01F8
3F03F0
3FFFE0
7FFFE0
F7FF80
61FE00
ENDCHAR
STARTCHAR 01FF
ENCODING 511
SWIDTH 621 0
DWIDTH 19 0
BBX 17 24 1 0
BITMAP
00F000
01E000
01E000
03C000
038000
000000
000000
000000
07F300
1FFF80
3FFE00
3E1F00
7C3F00
787F00
F8FF80
F9E780
F9C780
FB8780
7F0F80
7E0F00
3E1F00
3FFE00
7FFC00
67F000
ENDCHAR
STARTCHAR 0200
ENCODING 512
SWIDTH 720 0
DWIDTH 22 0
BBX 22 29 0 0
BITMAP
1E7800
0F3C00
073C00
039C00
038E00
000000
000000
00FC00
00FC00
00FC00
01FE00
01FE00
03DF00
03CF00
03CF00
078F80
078780
0787C0
0F03C0
0F03C0
1FFFE0
1FFFE0
1FFFF0
3FFFF0
3C00F0
7C00F8
7C00F8
78007C
F8007C
ENDCHAR
STARTCHAR 0201
ENCODING 513
SWIDTH 556 0
DWIDTH 17 0
BBX 15 24 1 0
BITMAP
79E0
3CF0
1CF0
0E70
0E38
0000
0000
0000
0FE0
3FF8
7FFC
787C
383C
003C
00FC
0FFC
3FFC
7F3C
F83C
F03C
F87C
7FFC
7FDE
1F1E
ENDCHAR
STARTCHAR 0202
ENCODING 514
SWIDTH 720 0
DWIDTH 22 0
BBX 22 28 0 0
BITMAP
007800
01FE00
018600
030300
000000
000000
00FC00
00FC00
00FC00
01FE00
01FE00
03DF00
03CF00
03CF00
078F80
078780
0787C0
0F03C0
0F03C0
1FFFE0
1FFFE0
1FFFF0
3FFFF0
3C00F0
7C00F8
7C00F8
78007C
F8007C
ENDCHAR
STARTCHAR 0203
ENCODING 515
SWIDTH 556 0
DWIDTH 17 0
BBX 15 23 1 0
BITMAP
03C0
0FF0
0C30
1818
0000
0000
0000
0FE0
3FF8
7FFC
787C
383C
003C
00FC
0FFC
3FFC
7F3C
F83C
F03C
F87C
7FFC
7FDE
1F1E
ENDCHAR
STARTCHAR 0204
ENCODING 516
SWIDTH 687 0
DWIDTH 21 0
BBX 17 29 2 0
BITMAP
79E000
3CF000
1CF000
0E7000
0E3800
000000
000000
FFFF80
FFFF80
FFFF80
FFFF80
F80000
F80000
F80000
F80000
F80000
FFFF00
FFFF00
FFFF00
FFFF00
F80000
F80000
F80000
F80000
F80000
FFFF80
FFFF80
FFFF80
FFFF80
ENDCHAR
STARTCHAR 0205
ENCODING 517
SWIDTH 556 0
DWIDTH 17 0
BBX 15 24 1 0
BITMAP
79E0
3CF0
1CF0
0E70
0E38
0000
0000
0000
07C0
1FF0
3FF8
7C7C
783C
F01E
FFFE
FFFE
FFFE
F000
F800
7800
7C38
3FFC
1FF8
07E0
ENDCHAR
STARTCHAR 0206
ENCODING 518
SWIDTH 687 0
DWIDTH 21 0
BBX 17 28 2 0
BITMAP
01E000
07F800
061800
0C0C00
000000
000000
FFFF80
FFFF80
FFFF80
FFFF80
F80000
F80000
F80000
F80000
F80000
FFFF00
FFFF00
FFFF00
FFFF00
F80000
F80000
F80000
F80000
F80000
FFFF80
FFFF80
FFFF80
FFFF80
ENDCHAR
STARTCHAR 0207
ENCODING 519
SWIDTH 556 0
DWIDTH 17 0
BBX 15 23 1 0
BITMAP
03C0
0FF0
0C30
1818
0000
0000
0000
07C0
1FF0
3FF8
7C7C
783C
F01E
FFFE
FFFE
FFFE
F000
F800
7800
7C38
3FFC
1FF8
07E0
ENDCHAR
STARTCHAR 0208
ENCODING 520
SWIDTH 294 0
DWIDTH 9 0
BBX 12 29 -3 0
BITMAP
F3C0
79E0
39E0
1CE0
1C70
0000
0000
07C0
07C0
07C0
07C0
07C0
07C0
07C0
07C0
07C0
07C0
07C0
07C0
07C0
07C0
07C0
07C0
07C0
07C0
07C0
07C0
07C0
07C0
ENDCHAR
STARTCHAR 0209
ENCODING 521
SWIDTH 294 0
DWIDTH 9 0
BBX 12 24 -3 0
BITMAP
F3C0
79E0
39E0
1CE0
1C70
0000
0000
0000
0780
0780
0780
0780
0780
0780
0780
0780
0780
0780
0780
0780
0780
0780
0780
0780
ENDCHAR
STARTCHAR 020A
ENCODING 522
SWIDTH 294 0
DWIDTH 9 0
BBX 10 28 0 0
BITMAP
1E00
7F80
6180
C0C0
0000
0000
3E00
3E00
3E00
3E00
3E00
3E00
3E00
3E00
3E00
3E00
3E00
3E00
3E00
3E00
3E00
3E00
3E00
3E00
3E00
3E00
3E00
3E00
ENDCHAR
STARTCHAR 020B
ENCODING 523
SWIDTH 294 0
DWIDTH 9 0
BBX 10 23 -1 0
BITMAP
1E00
7F80
6180
C0C0
0000
0000
0000
1E00
1E00
1E00
1E00
1E00
1E00
1E00
1E00
1E00
1E00
1E00
1E00
1E00
1E00
1E00
1E00
ENDCHAR
STARTCHAR 020C
ENCODING 524
SWIDTH 785 0
DWIDTH 24 0
BBX 22 29 1 0
BITMAP
0F3C00
079E00
039E00
01CE00
01C700
000000
000000
01FE00
07FF80
0FFFC0
1FFFE0
3F03F0
7E01F8
7C00F8
7C0078
78007C
F8007C
F8007C
F8007C
F8007C
78007C
7C0078
7C00F8
7E01F8
3F83F0
1FFFF0
0FFFE0
07FF80
01FE00
ENDCHAR
STARTCHAR 020D
ENCODING 525
SWIDTH 621 0
DWIDTH 19 0
BBX 17 24 1 0
BITMAP
79E000
3CF000
1CF000
0E7000
0E3800
000000
000000
000000
07F000
1FFC00
3FFE00
7E3F00
7C1F00
780F00
F80F80
F80F80
F80F80
F80F80
780F00
7C1F00
7E3F00
3FFE00
1FFC00
07F000
ENDCHAR
STARTCHAR 020E
ENCODING 526
SWIDTH 785 0
DWIDTH 24 0
BBX 22 28 1 0
BITMAP
007800
01FE00
018600
030300
000000
000000
01FE00
07FF80
0FFFC0
1FFFE0
3F03F0
7E01F8
7C00F8
7C0078
78007C
F8007C
F8007C
F8007C
F8007C
78007C
7C0078
7C00F8
7E01F8
3F83F0
1FFFF0
0FFFE0
07FF80
01FE00
ENDCHAR
STARTCHAR 020F
ENCODING 527
SWIDTH 621 0
DWIDTH 19 0
BBX 17 23 1 0
BITMAP
03C000
0FF000
0C3000
181800
000000
000000
000000
07F000
1FFC00
3FFE00
7E3F00
7C1F00
780F00
F80F80
F80F80
F80F80
F80F80
780F00
7C1F00
7E3F00
3FFE00
1FFC00
07F000
ENDCHAR
STARTCHAR 0210
ENCODING 528
SWIDTH 720 0
DWIDTH 22 0
BBX 20 29 2 0
BITMAP
79E000
3CF000
1CF000
0E7000
0E3800
000000
000000
FFFC00
FFFF00
FFFF80
FFFFC0
F807C0
F803C0
F803C0
F803C0
F807C0
FFFFC0
FFFF80
FFFE00
FFF800
F8FC00
F83E00
F83F00
F81F80
F80F80
F807C0
F807E0
F803E0
F801F0
ENDCHAR
STARTCHAR 0211
ENCODING 529
SWIDTH 392 0
DWIDTH 12 0
BBX 13 24 -1 0
BITMAP
F3C0
79E0
39E0
1CE0
1C70
0000
0000
0000
1E78
1EF8
1FF8
1F80
1F00
1F00
1E00
1E00
1E00
1E00
1E00
1E00
1E00
1E00
1E00
1E00
ENDCHAR
STARTCHAR 0212
ENCODING 530
SWIDTH 720 0
DWIDTH 22 0
BBX 20 28 2 0
BITMAP
01E000
07F800
061800
0C0C00
000000
000000
FFFC00
FFFF00
FFFF80
FFFFC0
F807C0
F803C0
F803C0
F803C0
F807C0
FFFFC0
FFFF80
FFFE00
FFF800
F8FC00
F83E00
F83F00
F81F80
F80F80
F807C0
F807E0
F803E0
F801F0
ENDCHAR
STARTCHAR 0213
ENCODING 531
SWIDTH 392 0
DWIDTH 12 0
BBX 10 23 2 0
BITMAP
1E00
7F80
6180
C0C0
0000
0000
0000
F3C0
F7C0
FFC0
FC00
F800
F800
F000
F000
F000
F000
F000
F000
F000
F000
F000
F000
ENDCHAR
STARTCHAR 0214
ENCODING 532
SWIDTH 720 0
DWIDTH 22 0
BBX 18 29 2 0
BITMAP
3CF000
1E7800
0E7800
073800
071C00
000000
000000
F807C0
F807C0
F807C0
F807C0
F807C0
F807C0
F807C0
F807C0
F807C0
F807C0
F807C0
F807C0
F807C0
F807C0
F807C0
F807C0
7807C0
7E0F80
7FFF80
3FFF00
1FFE00
07F800
ENDCHAR
STARTCHAR 0215
ENCODING 533
SWIDTH 621 0
DWIDTH 19 0
BBX 15 24 2 0
BITMAP
F3C0
79E0
39E0
1CE0
1C70
0000
0000
0000
F03E
F03E
F03E
F03E
F03E
F03E
F03E
F03E
F03E
F03E
F03E
F83E
F87E
7FFE
7FDE
1F1E
ENDCHAR
STARTCHAR 0216
ENCODING 534
SWIDTH 720 0
DWIDTH 22 0
BBX 18 28 2 0
BITMAP
01E000
07F800
061800
0C0C00
000000
000000
F807C0
F807C0
F807C0
F807C0
F807C0
F807C0
F807C0
F807C0
F807C0
F807C0
F807C0
F807C0
F807C0
F807C0
F807C0
F807C0
7807C0
7E0F80
7FFF80
3FFF00
1FFE00
07F800
ENDCHAR
STARTCHAR 0217
ENCODING 535
SWIDTH 621 0
DWIDTH 19 0
BBX 15 23 2 0
BITMAP
0780
1FE0
1860
3030
0000
0000
0000
F03E
F03E
F03E
F03E
F03E
F03E
F03E
F03E
F03E
F03E
F03E
F83E
F87E
7FFE
7FDE
1F1E
ENDCHAR
STARTCHAR 0218
ENCODING 536
SWIDTH 687 0
DWIDTH 21 0
BBX 18 31 1 -9
BITMAP
07F800
1FFE00
3FFF00
3FFF80
7C0F80
780780
7C0000
7F0000
7FE000
3FF800
1FFE00
07FF80
01FF80
001FC0
0007C0
F803C0
F807C0
7E0FC0
7FFF80
3FFF80
1FFF00
07F800
000000
000000
01E000
01E000
01E000
006000
00E000
01C000
018000
ENDCHAR
STARTCHAR 0219
ENCODING 537
SWIDTH 556 0
DWIDTH 17 0
BBX 15 25 1 -9
BITMAP
0FE0
3FF8
7FF8
F87C
F030
F800
7F00
3FF0
0FFC
01FC
003E
303E
F83E
7FFC
3FF8
0FE0
0000
0000
0780
0780
0780
0180
0380
0700
0600
ENDCHAR
STARTCHAR 021A
ENCODING 538
SWIDTH 621 0
DWIDTH 19 0
BBX 17 31 1 -9
BITMAP
FFFF80
FFFF80
FFFF80
FFFF80
03E000
03E000
03E000
03E000
03E000
03E000
03E000
03E000
03E000
03E000
03E000
03E000
03E000
03E000
03E000
03E000
03E000
03E000
000000
000000
03C000
03C000
03C000
00C000
01C000
038000
030000
ENDCHAR
STARTCHAR 021B
ENCODING 539
SWIDTH 327 0
DWIDTH 10 0
BBX 10 31 0 -9
BITMAP
0200
0600
1E00
3E00
3E00
3E00
FFC0
FFC0
FFC0
3E00
3E00
3E00
3E00
3E00
3E00
3E00
3E00
3E00
3E00
1FC0
1FC0
0FC0
0000
0000
0F00
0F00
0F00
0300
0700
0E00
0C00
ENDCHAR
STARTCHAR 021C
ENCODING 540
SWIDTH 589 0
DWIDTH 18 0
BBX 15 28 1 -6
BITMAP
0FE0
3FF8
FFFC
FFFE
787E
203E
001E
001E
001E
003E
007E
00FC
07FC
3FFC
FFFE
FF3E
F81E
C01E
001E
003E
007E
01FC
07F8
3FF0
FFE0
FF00
FC00
C000
ENDCHAR
STARTCHAR 021D
ENCODING 541
SWIDTH 523 0
DWIDTH 16 0
BBX 14 22 1 -6
BITMAP
0FC0
3FF0
7FF8
F87C
307C
003C
007C
00FC
01F8
1FF0
FFF8
FE7C
E07C
003C
007C
007C
00F8
03F0
1FE0
FFC0
FE00
E000
ENDCHAR
STARTCHAR 021E
ENCODING 542
SWIDTH 720 0
DWIDTH 22 0
BBX 18 28 2 0
BITMAP
0F3C00
07B800
03F000
01F000
000000
000000
F803C0
F803C0
F803C0
F803C0
F803C0
F803C0
F803C0
F803C0
F803C0
FFFFC0
FFFFC0
FFFFC0
FFFFC0
F803C0
F803C0
F803C0
F803C0
F803C0
F803C0
F803C0
F803C0
F803C0
ENDCHAR
STARTCHAR 021F
ENCODING 543
SWIDTH 621 0
DWIDTH 19 0
BBX 15 28 2 0
BITMAP
79E0
3DC0
1F80
0F80
0000
0000
F000
F000
F000
F000
F000
F000
F1F0
F7F8
FFFC
FC3E
F83E
F81E
F81E
F01E
F01E
F01E
F01E
F01E
F01E
F01E
F01E
F01E
ENDCHAR
STARTCHAR 0220
ENCODING 544
SWIDTH 720 0
DWIDTH 22 0
BBX 18 28 2 -6
BITMAP
FBFC00
FFFF00
FFFF80
FFFF80
FC0FC0
F807C0
F807C0
F807C0
F807C0
F807C0
F807C0
F807C0
F807C0
F807C0
F807C0
F807C0
F807C0
F807C0
F807C0
F807C0
F807C0
F807C0
0007C0
0007C0
0007C0
0007C0
0007C0
0007C0
ENDCHAR
STARTCHAR 0221
ENCODING 545
SWIDTH 850 0
DWIDTH 26 0
BBX 25 28 1 -6
BITMAP
000F0000
000F0000
000F0000
000F0000
000F0000
000F0000
0FCF0000
1FEF0000
3FFF0000
7C3F0000
781F0000
781F0000
F80F0000
F80F0000
F80F0000
F80F0000
781F0000
781F0000
7C3F0000
3FFF3C00
1FEFFF00
0F8FFF00
000FE780
000FC780
000FC780
001FFF00
000FFF00
00047C00
ENDCHAR
STARTCHAR 0222
ENCODING 546
SWIDTH 654 0
DWIDTH 20 0
BBX 17 22 1 0
BITMAP
007800
077E00
3F7F00
7F7F00
7F1F80
7C0F80
7C0F00
7C1F00
3FFE00
0FFC00
1FFE00
7FFF00
7C1F80
F80F80
F80780
F80780
F80F80
7C1F80
7FFF80
3FFF00
1FFE00
07F800
ENDCHAR
STARTCHAR 0223
ENCODING 547
SWIDTH 654 0
DWIDTH 20 0
BBX 17 22 1 0
BITMAP
0C0800
1E1E00
3E1F00
7C0F00
780F80
780F80
7C0F00
7E1F00
3FFE00
0FFC00
1FFE00
7FFF00
7C1F80
F80F80
F80780
F80780
F80F80
7C1F80
7FFF80
3FFF00
1FFE00
07F800
ENDCHAR
STARTCHAR 0224
ENCODING 548
SWIDTH 621 0
DWIDTH 19 0
BBX 18 26 0 -4
BITMAP
3FFFC0
3FFFC0
3FFFC0
3FFFC0
000F80
001F80
003F00
007E00
00FC00
01F800
01F000
03E000
07E000
0FC000
1F8000
3F0000
3E0000
7C0000
FFFF00
FFFF80
FFFFC0
FFFFC0
0001C0
0001C0
0001C0
0001C0
ENDCHAR
STARTCHAR 0225
ENCODING 549
SWIDTH 523 0
DWIDTH 16 0
BBX 14 20 1 -4
BITMAP
FFF8
FFF8
FFF8
01F8
03F0
03E0
07C0
0FC0
1F80
1F00
3E00
7C00
FC00
FFF0
FFF8
FFFC
003C
001C
001C
001C
ENDCHAR
STARTCHAR 0226
ENCODING 550
SWIDTH 720 0
DWIDTH 22 0
BBX 22 28 0 0
BITMAP
007800
007800
007800
007800
000000
000000
00FC00
00FC00
00FC00
01FE00
01FE00
03DF00
03CF00
03CF00
078F80
078780
0787C0
0F03C0
0F03C0
1FFFE0
1FFFE0
1FFFF0
3FFFF0
3C00F0
7C00F8
7C00F8
78007C
F8007C
ENDCHAR
STARTCHAR 0227
ENCODING 551
SWIDTH 556 0
DWIDTH 17 0
BBX 15 23 1 0
BITMAP
03C0
03C0
03C0
03C0
0000
0000
0000
0FE0
3FF8
7FFC
787C
383C
003C
00FC
0FFC
3FFC
7F3C
F83C
F03C
F87C
7FFC
7FDE
1F1E
ENDCHAR
STARTCHAR 0228
ENCODING 552
SWIDTH 687 0
DWIDTH 21 0
BBX 17 28 2 -6
BITMAP
FFFF80
FFFF80
FFFF80
FFFF80
F80000
F80000
F80000
F80000
F80000
FFFF00
FFFF00
FFFF00
FFFF00
F80000
F80000
F80000
F80000
F80000
FFFF80
FFFF80
FFFF80
FFFF80
03E000
03F000
003800
003800
07F000
07E000
ENDCHAR
STARTCHAR 0229
ENCODING 553
SWIDTH 556 0
DWIDTH 17 0
BBX 15 22 1 -6
BITMAP
07C0
1FF0
3FF8
7C7C
783C
F01E
FFFE
FFFE
FFFE
F000
F800
7800
7C38
3FFC
1FF8
07E0
07C0
07E0
0070
0070
0FE0
0FC0
ENDCHAR
STARTCHAR 022A
ENCODING 554
SWIDTH 785 0
DWIDTH 24 0
BBX 22 28 1 0
BITMAP
01FE00
01FE00
000000
018600
018600
000000
01FE00
07FF80
0FFFC0
1FFFE0
3F03F0
7E01F8
7C00F8
7C0078
78007C
F8007C
F8007C
F8007C
F8007C
78007C
7C0078
7C00F8
7E01F8
3F83F0
1FFFF0
0FFFE0
07FF80
01FE00
ENDCHAR
STARTCHAR 022B
ENCODING 555
SWIDTH 621 0
DWIDTH 19 0
BBX 17 27 1 0
BITMAP
1FF800
1FF800
1FF800
000000
000000
1E3800
1E3800
1E3800
000000
000000
000000
07F000
1FFC00
3FFE00
7E3F00
7C1F00
780F00
F80F80
F80F80
F80F80
F80F80
780F00
7C1F00
7E3F00
3FFE00
1FFC00
07F000
ENDCHAR
STARTCHAR 022C
ENCODING 556
SWIDTH 785 0
DWIDTH 24 0
BBX 22 29 1 0
BITMAP
01FE00
01FE00
000000
00E600
01B600
018C00
000000
01FE00
07FF80
0FFFC0
1FFFE0
3F03F0
7E01F8
7C00F8
7C0078
78007C
F8007C
F8007C
F8007C
F8007C
78007C
7C0078
7C00F8
7E01F8
3F83F0
1FFFF0
0FFFE0
07FF80
01FE00
ENDCHAR
STARTCHAR 022D
ENCODING 557
SWIDTH 621 0
DWIDTH 19 0
BBX 17 27 1 0
BITMAP
1FF800
1FF800
1FF800
000000
000000
0F1800
1FF800
1FF800
18F000
000000
000000
07F000
1FFC00
3FFE00
7E3F00
7C1F00
780F00
F80F80
F80F80
F80F80
F80F80
780F00
7C1F00
7E3F00
3FFE00
1FFC00
07F000
ENDCHAR
STARTCHAR 022E
ENCODING 558
SWIDTH 785 0
DWIDTH 24 0
BBX 22 28 1 0
BITMAP
007800
007800
007800
007800
000000
000000
01FE00
07FF80
0FFFC0
1FFFE0
3F03F0
7E01F8
7C00F8
7C0078
78007C
F8007C
F8007C
F8007C
F8007C
78007C
7C0078
7C00F8
7E01F8
3F83F0
1FFFF0
0FFFE0
07FF80
01FE00
ENDCHAR
STARTCHAR 022F
ENCODING 559
SWIDTH 621 0
DWIDTH 19 0
BBX 17 23 1 0
BITMAP
03C000
03C000
03C000
03C000
000000
000000
000000
07F000
1FFC00
3FFE00
7E3F00
7C1F00
780F00
F80F80
F80F80
F80F80
F80F80
780F00
7C1F00
7E3F00
3FFE00
1FFC00
07F000
ENDCHAR
STARTCHAR 0230
ENCODING 560
SWIDTH 785 0
DWIDTH 24 0
BBX 22 28 1 0
BITMAP
01FE00
01FE00
000000
003000
003000
000000
01FE00
07FF80
0FFFC0
1FFFE0
3F03F0
7E01F8
7C00F8
7C0078
78007C
F8007C
F8007C
F8007C
F8007C
78007C
7C0078
7C00F8
7E01F8
3F83F0
1FFFF0
0FFFE0
07FF80
01FE00
ENDCHAR
STARTCHAR 0231
ENCODING 561
SWIDTH 621 0
DWIDTH 19 0
BBX 17 27 1 0
BITMAP
1FF800
1FF800
1FF800
000000
000000
03C000
03C000
03C000
03C000
000000
000000
07F000
1FFC00
3FFE00
7E3F00
7C1F00
780F00
F80F80
F80F80
F80F80
F80F80
780F00
7C1F00
7E3F00
3FFE00
1FFC00
07F000
ENDCHAR
STARTCHAR 0232
ENCODING 562
SWIDTH 687 0
DWIDTH 21 0
BBX 20 27 0 0
BITMAP
07FE00
07FE00
07FE00
000000
000000
FC01F0
7C01F0
3E03E0
3E07C0
1F07C0
1F0F80
0F8F80
07DF00
07DE00
03FE00
01FC00
01F800
00F800
00F800
00F800
00F800
00F800
00F800
00F800
00F800
00F800
00F800
ENDCHAR
STARTCHAR 0233
ENCODING 563
SWIDTH 556 0
DWIDTH 17 0
BBX 17 28 0 -6
BITMAP
1FF800
1FF800
1FF800
000000
000000
000000
F80F80
780F00
7C0F00
3C1E00
3C1E00
3E1E00
1E3C00
1E3C00
1F3C00
0F7800
0F7800
07F800
07F000
07F000
03E000
03E000
03E000
03C000
07C000
7F8000
7F8000
3E0000
ENDCHAR
STARTCHAR 0234
ENCODING 564
SWIDTH 490 0
DWIDTH 15 0
BBX 13 28 2 -6
BITMAP
F000
F000
F000
F000
F000
F000
F000
F000
F000
F000
F000
F000
F000
F000
F000
F000
F000
F000
F000
F3E0
F7F0
FFF8
FE78
7C38
7E78
FFF8
FFF0
67E0
ENDCHAR
STARTCHAR 0235
ENCODING 565
SWIDTH 850 0
DWIDTH 26 0
BBX 24 22 2 -6
BITMAP
F1F000
F7FC00
FFFC00
FC3E00
F83E00
F81E00
F81E00
F01E00
F01E00
F01E00
F01E00
F01E00
F01E00
F01E78
F01FFE
F01FFE
001FCF
001F8F
001F8F
003FFE
003FFE
0009F8
ENDCHAR
STARTCHAR 0236
ENCODING 566
SWIDTH 523 0
DWIDTH 16 0
BBX 16 22 0 0
BITMAP
0200
0600
1E00
3E00
3E00
3E00
FFC0
FFC0
FFC0
3E00
3E00
3E00
3E00
3E78
3FFC
3FFE
1FCE
1F8F
1F8E
3FFE
3FFC
09F8
ENDCHAR
STARTCHAR 0237
ENCODING 567
SWIDTH 294 0
DWIDTH 9 0
BBX 7 22 -1 -6
BITMAP
1E
1E
1E
1E
1E
1E
1E
1E
1E
1E
1E
1E
1E
1E
1E
1E
1E
1E
1E
FE
FC
F8
ENDCHAR
STARTCHAR 0238
ENCODING 568
SWIDTH 981 0
DWIDTH 30 0
BBX 27 22 1 0
BITMAP
000F0000
000F0000
000F0000
000F0000
000F0000
000F0000
0FCF3E00
1FEFFF80
3FFFFFC0
7C3FC7C0
781F83E0
781F01E0
F80F01E0
F80F01E0
F80F01E0
F80F01E0
781F01E0
781F83E0
7C3FC7C0
3FFFFFC0
1FEFFF80
0FCF3E00
ENDCHAR
STARTCHAR 0239
ENCODING 569
SWIDTH 981 0
DWIDTH 30 0
BBX 27 22 1 -6
BITMAP
07CF3E00
1FEFFF80
3FFFFFC0
7E3FC7C0
7C1F83E0
780F01E0
F80F01E0
F80F01E0
F80F01E0
F80F01E0
781F01E0
781F83E0
7C3FC7C0
3FFFFFC0
1FEF7F80
0FCF3E00
000F0000
000F0000
000F0000
000F0000
000F0000
000F0000
ENDCHAR
STARTCHAR 023A
ENCODING 570
SWIDTH 720 0
DWIDTH 22 0
BBX 22 23 0 -1
BITMAP
00FC60
00FCE0
00FCC0
01FFC0
01FF80
03DF80
03CF00
03CF00
078F80
078F80
079FC0
0F1BC0
0F33C0
1FFFE0
1FFFE0
1FFFF0
3FFFF0
3DC0F0
7D80F8
7F80F8
7B007C
FE007C
0E0000
ENDCHAR
STARTCHAR 023B
ENCODING 571
SWIDTH 720 0
DWIDTH 22 0
BBX 20 22 1 0
BITMAP
01FCC0
07FFC0
0FFF80
1FFFC0
3F07E0
3E07E0
7C0FF0
7C0D80
781C00
781800
F83000
F87000
786000
78E180
7DC1F0
7D81E0
3F83E0
3F07E0
1FFFC0
0FFF80
0FFF00
1DFC00
ENDCHAR
STARTCHAR 023C
ENCODING 572
SWIDTH 556 0
DWIDTH 17 0
BBX 16 28 1 -6
BITMAP
0007
0006
000E
000C
001C
0018
07F8
1FF8
3FFC
7C7E
78FE
78DC
F9C0
F980
FB80
FB00
7F00
7E1E
7E3E
3FFE
1FFC
3FF0
3000
7000
6000
6000
C000
C000
ENDCHAR
STARTCHAR 023D
ENCODING 573
SWIDTH 621 0
DWIDTH 19 0
BBX 18 22 0 0
BITMAP
3E0000
3E0000
3E0000
3E0000
3E0000
3E0000
3E0000
3E0000
3E0000
FFF000
FFF000
FFF000
3E0000
3E0000
3E0000
3E0000
3E0000
3E0000
3FFFC0
3FFFC0
3FFFC0
3FFFC0
ENDCHAR
STARTCHAR 023E
ENCODING 574
SWIDTH 621 0
DWIDTH 19 0
BBX 17 24 1 -1
BITMAP
000180
FFFF80
FFFF80
FFFF80
FFFF80
03FC00
03F800
03F800
03F000
03E000
03E000
03E000
03E000
03E000
03E000
07E000
0FE000
0FE000
1FE000
1BE000
33E000
73E000
63E000
C00000
ENDCHAR
STARTCHAR 023F
ENCODING 575
SWIDTH 556 0
DWIDTH 17 0
BBX 15 22 1 -6
BITMAP
0FE0
3FF8
7FF8
F87C
F038
FC00
7FC0
7FF8
1FFC
03FE
403E
703E
F83C
FFFC
3FF8
1FE0
0F00
0700
0788
03F8
01FC
00F0
ENDCHAR
STARTCHAR 0240
ENCODING 576
SWIDTH 523 0
DWIDTH 16 0
BBX 14 22 1 -6
BITMAP
FFF8
FFF8
FFF8
01F0
03E0
03E0
07C0
0F80
1F00
3E00
3E00
7C00
F800
FC00
FE00
FF00
0F80
0780
03CC
01FC
00FC
0078
ENDCHAR
STARTCHAR 0241
ENCODING 577
SWIDTH 654 0
DWIDTH 20 0
BBX 18 22 1 0
BITMAP
07F000
1FFC00
7FFE00
7C3F00
F80F80
100780
000780
000780
0007C0
0007C0
000780
000780
000F80
001F00
03FE00
03FC00
03F000
03E000
03E000
03E000
03E000
03E000
ENDCHAR
STARTCHAR 0242
ENCODING 578
SWIDTH 490 0
DWIDTH 15 0
BBX 13 16 1 0
BITMAP
1F80
3FE0
7FF0
F8F8
7078
0078
0078
00F0
01F0
07C0
0780
0780
0780
0780
0780
0780
ENDCHAR
STARTCHAR 0243
ENCODING 579
SWIDTH 720 0
DWIDTH 22 0
BBX 21 22 0 0
BITMAP
3FFF00
3FFFC0
3FFFE0
3FFFE0
3E01F0
3E01F0
3E01F0
3E03E0
3FFFC0
3FFF80
3FFFC0
3FFFF0
3E01F0
3E00F8
FFE0F8
FFE0F8
FFE0F8
3E01F8
3FFFF0
3FFFF0
3FFFE0
3FFF80
ENDCHAR
STARTCHAR 0244
ENCODING 580
SWIDTH 720 0
DWIDTH 22 0
BBX 22 22 0 0
BITMAP
3E01F0
3E01F0
3E01F0
3E01F0
3E01F0
3E01F0
3E01F0
3E01F0
FFFFFC
FFFFFC
FFFFFC
3E01F0
3E01F0
3E01F0
3E01F0
3E01F0
1E01F0
1F83E0
1FFFE0
0FFFC0
07FF80
01FE00
ENDCHAR
STARTCHAR 0245
ENCODING 581
SWIDTH 687 0
DWIDTH 21 0
BBX 20 22 0 0
BITMAP
00F800
01F800
01FC00
01FC00
03FC00
03FE00
03FE00
07DE00
079F00
079F00
0F8F80
0F0F80
1F0F80
1F07C0
1E07C0
3E03C0
3E03E0
3C03E0
7C01E0
7C01F0
7801F0
F800F0
ENDCHAR
STARTCHAR 0246
ENCODING 582
SWIDTH 687 0
DWIDTH 21 0
BBX 17 25 2 -2
BITMAP
000300
FFFF80
FFFF80
FFFF80
FFFF80
F80C00
F81C00
F81800
F83800
F83000
FFFF00
FFFF00
FFFF00
FFFF00
F9C000
F98000
FB8000
FB0000
FE0000
FFFF80
FFFF80
FFFF80
FFFF80
180000
380000
ENDCHAR
STARTCHAR 0247
ENCODING 583
SWIDTH 556 0
DWIDTH 17 0
BBX 15 28 1 -6
BITMAP
000E
000C
000C
001C
0018
0038
07F0
1FF0
3FF8
7CFC
78FC
F1DE
FFFE
FFFE
FFFE
F300
FF00
7E3C
7E7C
3FFC
1FF8
1FE0
3800
3800
3000
7000
6000
E000
ENDCHAR
STARTCHAR 0248
ENCODING 584
SWIDTH 556 0
DWIDTH 17 0
BBX 16 22 1 0
BITMAP
007C
007C
007C
007C
007C
007C
007C
007C
01FF
01FF
01FF
007C
007C
007C
F07C
F07C
F07C
F8F8
FFF8
7FF0
3FE0
1FC0
ENDCHAR
STARTCHAR 0249
ENCODING 585
SWIDTH 294 0
DWIDTH 9 0
BBX 9 28 -1 -6
BITMAP
1E00
1E00
1E00
0000
0000
0000
1E00
1E00
1E00
1E00
1E00
1E00
7F80
7F80
7F80
1E00
1E00
1E00
1E00
1E00
1E00
1E00
1E00
1E00
1E00
FE00
FC00
F800
ENDCHAR
STARTCHAR 024A
ENCODING 586
SWIDTH 785 0
DWIDTH 24 0
BBX 24 28 1 -6
BITMAP
00FF30
07FFF0
0FFFF0
1FFFF0
3F81F0
7E00F0
7C00F0
7C00F0
7800F0
F800F0
F800F0
F800F0
F800F0
7800F0
7C00F0
7C00F0
7E00F0
3F80F0
1FFFF0
0FFFF0
07FFF0
01FFF0
0000F0
0000F8
0000FE
0000FE
00007F
00003F
ENDCHAR
STARTCHAR 024B
ENCODING 587
SWIDTH 621 0
DWIDTH 19 0
BBX 20 22 1 -6
BITMAP
07CF00
1FEF00
3FFF00
7E3F00
7C1F00
780F00
F80F00
F80F00
F80F00
F80F00
781F00
781F00
7C3F00
3FFF00
1FEF00
0F8F00
000F00
000F00
000F00
000FE0
0007E0
0003F0
ENDCHAR
STARTCHAR 024C
ENCODING 588
SWIDTH 720 0
DWIDTH 22 0
BBX 22 22 0 0
BITMAP
0FFF80
0FFFE0
0FFFF0
0FFFF0
0F01F0
0F00F8
0F00F8
0F00F8
0F01F0
FFFFF0
FFFFE0
FFFFC0
FFFE00
0F1F00
0F0F80
0F07C0
0F07E0
0F03F0
0F01F0
0F01F8
0F00FC
0F007C
ENDCHAR
STARTCHAR 024D
ENCODING 589
SWIDTH 392 0
DWIDTH 12 0
BBX 12 16 0 0
BITMAP
3CF0
3DF0
3FF0
3F00
3E00
3E00
3C00
FF80
FF80
FF80
3C00
3C00
3C00
3C00
3C00
3C00
ENDCHAR
STARTCHAR 024E
ENCODING 590
SWIDTH 687 0
DWIDTH 21 0
BBX 21 22 0 0
BITMAP
F801F0
7C01F0
7E03E0
FFFFF8
FFFFF8
FFFFF8
0F8F80
0F9F00
07DF00
03FE00
03FC00
01FC00
01F800
00F800
00F800
00F800
00F800
00F800
00F800
00F800
00F800
00F800
ENDCHAR
STARTCHAR 024F
ENCODING 591
SWIDTH 556 0
DWIDTH 17 0
BBX 17 22 0 -6
BITMAP
F80F80
780F00
7C1F00
3C1E00
FFFF80
FFFF80
FFFF80
1E3C00
0F7C00
0F7800
0FF800
07F000
07F000
07F000
03E000
03E000
03E000
03C000
07C000
7F8000
7F0000
3E0000
ENDCHAR
STARTCHAR 0250
ENCODING 592
SWIDTH 556 0
DWIDTH 17 0
BBX 15 16 1 0
BITMAP
F1F0
7FFC
7FFE
7E3E
781E
781E
78FE
7FFC
7FF0
7E00
7800
781C
7C3C
7FFC
3FF8
0FE0
ENDCHAR
STARTCHAR 0251
ENCODING 593
SWIDTH 621 0
DWIDTH 19 0
BBX 16 16 1 0
BITMAP
0FCF
1FEF
3FFF
7C3F
781F
781F
F80F
F80F
F80F
F80F
781F
781F
7C3F
3FFF
1FEF
0FCF
ENDCHAR
STARTCHAR 0252
ENCODING 594
SWIDTH 621 0
DWIDTH 19 0
BBX 16 16 2 0
BITMAP
F3F0
F7F8
FFFC
FC3E
F81E
F81E
F01F
F01F
F01F
F01F
F81E
F83E
FC3E
FFFC
F7F8
F3E0
ENDCHAR
STARTCHAR 0253
ENCODING 595
SWIDTH 621 0
DWIDTH 19 0
BBX 16 22 2 0
BITMAP
3F80
7F00
FF00
F800
F000
F000
F3F0
F7F8
FFFC
FC3E
F81E
F81E
F01F
F01F
F01F
F01F
F81E
F81E
FC3E
FFFC
F7F8
F3F0
ENDCHAR
STARTCHAR 0254
ENCODING 596
SWIDTH 556 0
DWIDTH 17 0
BBX 15 16 1 0
BITMAP
0FC0
3FF0
7FF8
787C
F83C
703E
003E
001E
001E
003E
003E
F03C
F87C
7FF8
3FF0
0FC0
ENDCHAR
STARTCHAR 0255
ENCODING 597
SWIDTH 556 0
DWIDTH 17 0
BBX 15 17 1 -1
BITMAP
07E0
1FF8
3FFC
7C3E
781E
781C
F800
F9F8
FFFC
FFFE
7F1E
7E1E
7E1E
FFFE
FFFC
E7F0
4000
ENDCHAR
STARTCHAR 0256
ENCODING 598
SWIDTH 621 0
DWIDTH 19 0
BBX 19 28 1 -6
BITMAP
000F00
000F00
000F00
000F00
000F00
000F00
0FCF00
1FEF00
3FFF00
7C3F00
781F00
781F00
F80F00
F80F00
F80F00
F80F00
781F00
781F00
7C3F00
3FFF00
1FEF00
0F8F00
000F00
000F00
000F00
000FE0
0007E0
0003E0
ENDCHAR
STARTCHAR 0257
ENCODING 599
SWIDTH 621 0
DWIDTH 19 0
BBX 20 22 1 0
BITMAP
0003F0
0007F0
000FF0
000F00
000F00
000F00
0FCF00
1FEF00
3FFF00
7C3F00
781F00
781F00
F80F00
F80F00
F80F00
F80F00
781F00
781F00
7C3F00
3FFF00
1FEF00
0FCF00
ENDCHAR
STARTCHAR 0258
ENCODING 600
SWIDTH 556 0
DWIDTH 17 0
BBX 15 16 1 0
BITMAP
07E0
1FF0
3FF8
7C7C
783E
781E
FFFE
FFFE
FFFE
001E
001E
783E
7C7C
7FFC
3FF8
0FE0
ENDCHAR
STARTCHAR 0259
ENCODING 601
SWIDTH 556 0
DWIDTH 17 0
BBX 15 16 1 0
BITMAP
0FE0
3FF8
7FFC
7C7C
383E
001E
001E
FFFE
FFFE
FFFE
701E
783E
7C3C
3FF8
1FF0
07E0
ENDCHAR
STARTCHAR 025A
ENCODING 602
SWIDTH 785 0
DWIDTH 24 0
BBX 23 16 1 0
BITMAP
0FE000
1FF800
3FFC00
7C7C00
F83FC0
00FFC0
3FFFC0
FFFFC2
FF1FFE
F01EFE
781E7C
783E00
7C7C00
3FFC00
1FF800
07E000
ENDCHAR
STARTCHAR 025B
ENCODING 603
SWIDTH 490 0
DWIDTH 15 0
BBX 14 16 1 0
BITMAP
0FC0
3FF0
7FF8
7878
7830
7800
3F00
1F00
7F00
7800
F000
F838
F87C
7FF8
3FF0
0FC0
ENDCHAR
STARTCHAR 025C
ENCODING 604
SWIDTH 490 0
DWIDTH 15 0
BBX 13 16 1 0
BITMAP
1FC0
3FE0
7FF0
F8F0
7070
00F0
03E0
03C0
03F0
00F8
0078
7078
F0F8
FFF8
7FF0
1FC0
ENDCHAR
STARTCHAR 025D
ENCODING 605
SWIDTH 687 0
DWIDTH 21 0
BBX 20 16 1 0
BITMAP
1FC000
3FE000
7FFE00
F8FE00
707E10
00FFF0
03E7F0
03C3E0
03F000
00F800
007800
707800
F0F800
FFF800
7FF000
1FC000
ENDCHAR
STARTCHAR 025E
ENCODING 606
SWIDTH 589 0
DWIDTH 18 0
BBX 15 16 1 0
BITMAP
07F0
1FF8
3FFC
7E3E
7C1E
783C
F8F8
F8F0
F8FC
F83E
781E
7C1E
7E3E
3FFE
1FFC
07F0
ENDCHAR
STARTCHAR 025F
ENCODING 607
SWIDTH 327 0
DWIDTH 10 0
BBX 11 22 -1 -6
BITMAP
0F80
0F80
0F80
0F80
0F80
0F80
0F80
0F80
0F80
0F80
0F80
0F80
0F80
7FE0
7FE0
7FE0
0F80
0F80
0F80
7F00
FF00
FC00
ENDCHAR
STARTCHAR 0260
ENCODING 608
SWIDTH 621 0
DWIDTH 19 0
BBX 20 28 1 -6
BITMAP
0003F0
0007F0
000FF0
000F00
000F00
000F00
0FCF00
1FEF00
3FFF00
7C3F00
781F00
781F00
F80F00
F80F00
F80F00
F80F00
781F00
781F00
7C3F00
3FFF00
1FEF00
0F8F00
000F00
780F00
7C1E00
7FFE00
3FFC00
0FF000
ENDCHAR
STARTCHAR 0261
ENCODING 609
SWIDTH 621 0
DWIDTH 19 0
BBX 16 22 1 -6
BITMAP
0F8F
1FEF
3FFF
7C3F
781F
781F
F80F
F80F
F80F
F80F
781F
781F
7C3F
3FFF
1FEF
0F8F
000F
600F
7C1E
7FFE
3FFC
0FF0
ENDCHAR
STARTCHAR 0262
ENCODING 610
SWIDTH 589 0
DWIDTH 18 0
BBX 16 16 1 0
BITMAP
03F0
1FFC
3FFE
7E1F
7C0E
7800
F800
F800
F87F
F87F
787F
7C0F
7E0F
3FFF
1FFE
07F8
ENDCHAR
STARTCHAR 0263
ENCODING 611
SWIDTH 556 0
DWIDTH 17 0
BBX 17 22 0 -6
BITMAP
F80F80
780F00
3C1F00
3C1E00
1E3E00
1F3C00
0F7C00
0FF800
07F800
07F000
03F000
03E000
03E000
03F000
07F000
07F800
0F7800
0F7800
0F7800
0FF800
07F800
03E000
ENDCHAR
STARTCHAR 0264
ENCODING 612
SWIDTH 621 0
DWIDTH 19 0
BBX 18 16 0 0
BITMAP
3E0F00
FF3FC0
7FBFC0
47FCC0
03F800
03F000
01F000
01F000
03F800
03F800
07BC00
07BC00
07BC00
07FC00
07F800
03F000
ENDCHAR
STARTCHAR 0265
ENCODING 613
SWIDTH 621 0
DWIDTH 19 0
BBX 15 22 2 -6
BITMAP
F03E
F03E
F03E
F03E
F03E
F03E
F03E
F03E
F03E
F03E
F03E
F83E
F87E
7FFE
7FFE
1F3E
003E
003E
003E
003E
003E
003E
ENDCHAR
STARTCHAR 0266
ENCODING 614
SWIDTH 621 0
DWIDTH 19 0
BBX 15 22 2 0
BITMAP
3F80
7F80
7F00
F800
F800
F000
F1F0
F7F8
FFFC
FC3C
F83E
F81E
F81E
F01E
F01E
F01E
F01E
F01E
F01E
F01E
F01E
F01E
ENDCHAR
STARTCHAR 0267
ENCODING 615
SWIDTH 621 0
DWIDTH 19 0
BBX 15 28 2 -6
BITMAP
1F80
7F80
7F00
F800
F800
F000
F1F0
F7F8
FFFC
FC3E
F83E
F81E
F81E
F01E
F01E
F01E
F01E
F01E
F01E
F01E
F01E
F01E
001E
001E
003E
00FC
01FC
01F8
ENDCHAR
STARTCHAR 0268
ENCODING 616
SWIDTH 294 0
DWIDTH 9 0
BBX 8 22 0 0
BITMAP
3C
3C
3C
00
00
00
3C
3C
3C
3C
3C
3C
FF
FF
FF
3C
3C
3C
3C
3C
3C
3C
ENDCHAR
STARTCHAR 0269
ENCODING 617
SWIDTH 294 0
DWIDTH 9 0
BBX 7 16 2 0
BITMAP
F0
F0
F0
F0
F0
F0
F0
F0
F0
F0
F0
F0
F0
FE
7E
3E
ENDCHAR
STARTCHAR 026A
ENCODING 618
SWIDTH 425 0
DWIDTH 13 0
BBX 11 16 1 0
BITMAP
FFE0
FFE0
FFE0
1E00
1E00
1E00
1E00
1E00
1E00
1E00
1E00
1E00
1E00
FFE0
FFE0
FFE0
ENDCHAR
STARTCHAR 026B
ENCODING 619
SWIDTH 327 0
DWIDTH 10 0
BBX 10 22 0 0
BITMAP
1E00
1E00
1E00
1E00
1E00
1E00
1E00
1E00
1E00
7EC0
FFC0
DF80
1E00
1E00
1E00
1E00
1E00
1E00
1E00
1E00
1E00
1E00
ENDCHAR
STARTCHAR 026C
ENCODING 620
SWIDTH 360 0
DWIDTH 11 0
BBX 11 22 0 0
BITMAP
0780
0780
0780
0780
0780
0780
0780
3F80
7F80
7F80
E780
E780
7FE0
7FE0
3FE0
0780
0780
0780
0780
0780
0780
0780
ENDCHAR
STARTCHAR 026D
ENCODING 621
SWIDTH 294 0
DWIDTH 9 0
BBX 8 28 2 -6
BITMAP
F0
F0
F0
F0
F0
F0
F0
F0
F0
F0
F0
F0
F0
F0
F0
F0
F0
F0
F0
F0
F0
F0
F0
F8
F8
7E
7F
1F
ENDCHAR
STARTCHAR 026E
ENCODING 622
SWIDTH 621 0
DWIDTH 19 0
BBX 16 28 2 -6
BITMAP
F000
F000
F000
F000
F000
F000
FFFF
FFFF
FFFF
F03E
F07C
F0F8
F1F0
F1E0
F3F8
F3FC
F03E
F01F
F01F
F00F
F00F
F00F
001F
781F
7C3E
7FFC
3FF8
0FE0
ENDCHAR
STARTCHAR 026F
ENCODING 623
SWIDTH 916 0
DWIDTH 28 0
BBX 24 16 2 0
BITMAP
F03C1F
F03C1F
F03C1F
F03C1F
F03C1F
F03C1F
F03C1F
F03C1F
F03C1F
F03C1F
F07C1F
F07C1F
F8FE3F
7FFFFF
7F9FEF
1F0F8F
ENDCHAR
STARTCHAR 0270
ENCODING 624
SWIDTH 916 0
DWIDTH 28 0
BBX 24 22 2 -6
BITMAP
F03C1F
F03C1F
F03C1F
F03C1F
F03C1F
F03C1F
F03C1F
F03C1F
F03C1F
F03C1F
F07C1F
F07C1F
F8FE3F
7FFFFF
7F9FFF
1F0F9F
00001F
00001F
00001F
00001F
00001F
00001F
ENDCHAR
STARTCHAR 0271
ENCODING 625
SWIDTH 916 0
DWIDTH 28 0
BBX 24 23 2 -7
BITMAP
F3E0F8
F7FBFC
FFFFFE
FC7E3E
F87E1E
F03C1F
F03C1F
F03C1F
F03C1F
F03C1F
F03C1F
F03C1F
F03C1F
F03C1F
F03C1F
F03C1F
00001F
00001F
00001E
00001E
0000FE
0000FE
0000F8
ENDCHAR
STARTCHAR 0272
ENCODING 626
SWIDTH 621 0
DWIDTH 19 0
BBX 18 22 -1 -6
BITMAP
1E3E00
1EFF80
1FFF80
1F87C0
1F07C0
1F03C0
1F03C0
1E03C0
1E03C0
1E03C0
1E03C0
1E03C0
1E03C0
1E03C0
1E03C0
1E03C0
1E0000
1E0000
1E0000
FE0000
FE0000
F80000
ENDCHAR
STARTCHAR 0273
ENCODING 627
SWIDTH 621 0
DWIDTH 19 0
BBX 18 22 2 -6
BITMAP
F1F000
F7FC00
FFFC00
FC3E00
F83E00
F81E00
F81E00
F01E00
F01E00
F01E00
F01E00
F01E00
F01E00
F01E00
F01E00
F01E00
001E00
001E00
001FC0
001FC0
000FC0
0007C0
ENDCHAR
STARTCHAR 0274
ENCODING 628
SWIDTH 621 0
DWIDTH 19 0
BBX 15 16 2 0
BITMAP
F81E
F81E
FC1E
FC1E
FE1E
FF1E
F71E
F79E
F3DE
F1DE
F1FE
F0FE
F07E
F07E
F03E
F01E
ENDCHAR
STARTCHAR 0275
ENCODING 629
SWIDTH 621 0
DWIDTH 19 0
BBX 17 16 1 0
BITMAP
07F000
1FFC00
3FFE00
7E1F00
780F00
780F00
FFFF80
FFFF80
FFFF80
F80F80
780F00
7C1F00
7E3F00
3FFE00
1FFC00
07F000
ENDCHAR
STARTCHAR 0276
ENCODING 630
SWIDTH 850 0
DWIDTH 26 0
BBX 24 16 1 0
BITMAP
07E7FE
1FFFFE
3FFFFE
7E3F80
7C1F80
780F80
F80FFE
F80FFE
F80FFE
F80F80
780F80
7C1F80
7E3F80
3FFFFF
1FFFFF
07E7FF
ENDCHAR
STARTCHAR 0277
ENCODING 631
SWIDTH 850 0
DWIDTH 26 0
BBX 24 16 1 0
BITMAP
00FF80
07FFE0
1FFFF8
3F00FC
7C003E
78001E
F8001F
F83C0F
F83C0F
F83C0F
F83C1F
783E1F
7C7E3E
3FFFFE
1FE7FC
0FC1F0
ENDCHAR
STARTCHAR 0278
ENCODING 632
SWIDTH 752 0
DWIDTH 23 0
BBX 21 28 1 -6
BITMAP
00F800
00F800
00F800
00F800
00F800
00F800
07FF00
1FFFC0
3FFFE0
7EF9F0
7CF8F0
78F8F8
F8F8F8
F8F878
F8F878
F8F8F8
78F8F8
7CF8F0
7EF9F0
3FFFE0
1FFFC0
07FF00
00F800
00F800
00F800
00F800
00F800
00F800
ENDCHAR
STARTCHAR 0279
ENCODING 633
SWIDTH 392 0
DWIDTH 12 0
BBX 10 16 0 0
BITMAP
03C0
03C0
03C0
03C0
03C0
03C0
03C0
03C0
03C0
03C0
07C0
07C0
0FC0
FFC0
FFC0
FBC0
ENDCHAR
STARTCHAR 027A
ENCODING 634
SWIDTH 392 0
DWIDTH 12 0
BBX 10 22 0 0
BITMAP
03C0
03C0
03C0
03C0
03C0
03C0
03C0
03C0
03C0
03C0
03C0
03C0
03C0
03C0
03C0
03C0
07C0
07C0
0FC0
FFC0
FFC0
FBC0
ENDCHAR
STARTCHAR 027B
ENCODING 635
SWIDTH 392 0
DWIDTH 12 0
BBX 14 22 0 -6
BITMAP
03C0
03C0
03C0
03C0
03C0
03C0
03C0
03C0
03C0
03C0
07C0
07C0
0FC0
FFC0
FBC0
F3C0
03C0
03C0
03C0
03F8
01F8
00FC
ENDCHAR
STARTCHAR 027C
ENCODING 636
SWIDTH 392 0
DWIDTH 12 0
BBX 10 22 2 -6
BITMAP
F7C0
F7C0
FFC0
FC00
F800
F800
F000
F000
F000
F000
F000
F000
F000
F000
F000
F000
F000
F000
F000
F000
F000
F000
ENDCHAR
STARTCHAR 027D
ENCODING 637
SWIDTH 392 0
DWIDTH 12 0
BBX 10 22 2 -6
BITMAP
F7C0
F7C0
FFC0
FC00
F800
F800
F000
F000
F000
F000
F000
F000
F000
F000
F000
F000
F000
F000
F800
FE00
7F00
3F00
ENDCHAR
STARTCHAR 027E
ENCODING 638
SWIDTH 392 0
DWIDTH 12 0
BBX 10 16 2 0
BITMAP
0FC0
3FC0
7FC0
7C00
F800
F800
F000
F000
F000
F000
F000
F000
F000
F000
F000
F000
ENDCHAR
STARTCHAR 027F
ENCODING 639
SWIDTH 392 0
DWIDTH 12 0
BBX 10 22 0 -6
BITMAP
FC00
FF00
FF80
0F80
07C0
03C0
03C0
03C0
03C0
03C0
03C0
03C0
03C0
03C0
03C0
03C0
03C0
03C0
03C0
03C0
03C0
03C0
ENDCHAR
STARTCHAR 0280
ENCODING 640
SWIDTH 589 0
DWIDTH 18 0
BBX 16 16 2 0
BITMAP
FFF0
FFFC
FFFC
F03E
F03E
F03E
F03E
FFFC
FFF8
FFE0
F1F0
F0F8
F07C
F07C
F03E
F01F
ENDCHAR
STARTCHAR 0281
ENCODING 641
SWIDTH 589 0
DWIDTH 18 0
BBX 16 16 2 0
BITMAP
F01F
F03E
F07C
F07C
F0F8
F1F0
FFE0
FFF8
FFFC
F03E
F03E
F03E
F03E
FFFC
FFFC
FFF0
ENDCHAR
STARTCHAR 0282
ENCODING 642
SWIDTH 556 0
DWIDTH 17 0
BBX 15 22 1 -6
BITMAP
0FE0
3FF8
7FF8
F87C
F038
F800
7F00
7FF0
1FFC
03FC
003E
F03E
F83E
FFFC
FFF8
FFE0
F000
F000
F800
FE00
7E00
3E00
ENDCHAR
STARTCHAR 0283
ENCODING 643
SWIDTH 327 0
DWIDTH 10 0
BBX 13 28 -1 -6
BITMAP
01F8
07F8
07F0
0F80
0F80
0F80
0F80
0F80
0F80
0F80
0F80
0F80
0F80
0F80
0F80
0F80
0F80
0F80
0F80
0F80
0F80
0F80
0F80
0F80
0F80
7F00
FF00
FC00
ENDCHAR
STARTCHAR 0284
ENCODING 644
SWIDTH 327 0
DWIDTH 10 0
BBX 13 28 -1 -6
BITMAP
01F8
07F8
07F0
0F80
0F80
0F80
0F80
0F80
0F80
0F80
0F80
0F80
0F80
0F80
0F80
0F80
0F80
0F80
0F80
7FE0
7FE0
7FE0
0F80
0F80
0F80
7F00
FF00
FC00
ENDCHAR
STARTCHAR 0285
ENCODING 645
SWIDTH 327 0
DWIDTH 10 0
BBX 13 22 -2 -6
BITMAP
FE00
7F00
7F80
0F80
0780
0780
0780
0780
0780
0780
0780
0780
0780
0780
0780
0780
0780
0780
0780
07F8
03F8
01F8
ENDCHAR
STARTCHAR 0286
ENCODING 646
SWIDTH 556 0
DWIDTH 17 0
BBX 18 28 0 -6
BITMAP
000FC0
001FC0
003FC0
003C00
003C00
003C00
003C00
003C00
003C00
003C00
003C00
003C00
003C00
003C00
003C00
003C00
003C00
003C00
1F3C00
3FBC00
7FFC00
7FFC00
F9FC00
F0F800
78FC00
7FFE00
3FFC00
0F8800
ENDCHAR
STARTCHAR 0287
ENCODING 647
SWIDTH 327 0
DWIDTH 10 0
BBX 10 22 0 0
BITMAP
7C00
FE00
7F00
1F00
0F00
0F00
0F00
0F00
0F00
0F00
0F00
0F00
0F00
7FC0
7FC0
7FC0
0F00
0F00
0F00
0E00
0C00
1000
ENDCHAR
STARTCHAR 0288
ENCODING 648
SWIDTH 327 0
DWIDTH 10 0
BBX 10 28 0 -6
BITMAP
0200
0600
1E00
3E00
3E00
3E00
FFC0
FFC0
FFC0
3E00
3E00
3E00
3E00
3E00
3E00
3E00
3E00
3E00
3E00
3E00
3E00
3E00
3E00
3E00
3E00
1FC0
1FC0
0FC0
ENDCHAR
STARTCHAR 0289
ENCODING 649
SWIDTH 621 0
DWIDTH 19 0
BBX 19 16 0 0
BITMAP
3C0F80
3C0F80
3C0F80
3C0F80
3C0F80
3C0F80
FFFFE0
FFFFE0
FFFFE0
3C0F80
3C0F80
3E0F80
3E1F80
1FFF80
1FF780
07C780
ENDCHAR
STARTCHAR 028A
ENCODING 650
SWIDTH 621 0
DWIDTH 19 0
BBX 17 16 1 0
BITMAP
F80F80
FC1F80
FC1F80
3C1E00
3C1E00
7C0F00
780F00
780F80
F80780
F80780
F80F80
780F00
7E1F00
3FFE00
1FFC00
07F000
ENDCHAR
STARTCHAR 028B
ENCODING 651
SWIDTH 589 0
DWIDTH 18 0
BBX 15 16 2 0
BITMAP
F3F0
F3FC
F1FC
F03E
F03E
F03E
F03E
F03E
F03C
F03C
F83C
787C
78F8
7FF8
3FF0
0FC0
ENDCHAR
STARTCHAR 028C
ENCODING 652
SWIDTH 556 0
DWIDTH 17 0
BBX 17 16 0 0
BITMAP
01E000
03E000
03F000
07F000
07F000
077800
0F7800
0F3C00
1E3C00
1E3C00
3E1E00
3C1E00
3C1F00
7C0F00
780F00
F80F80
ENDCHAR
STARTCHAR 028D
ENCODING 653
SWIDTH 785 0
DWIDTH 24 0
BBX 24 16 0 0
BITMAP
0781E0
07C3E0
0FC3F0
0FC3F0
0FC3F0
1EE7F8
1EE778
1EE738
1CE73C
3CFF3C
3C7E3C
387E1E
787E1E
787E1E
783E1F
F03C0F
ENDCHAR
STARTCHAR 028E
ENCODING 654
SWIDTH 556 0
DWIDTH 17 0
BBX 17 22 0 0
BITMAP
007800
00F800
00F000
00F000
01E000
01E000
03E000
03E000
03F000
07F000
07F000
0F7800
0F7800
0F3C00
1E3C00
1E3C00
3E1E00
3C1E00
3C1F00
7C0F00
780F00
F80F80
ENDCHAR
STARTCHAR 028F
ENCODING 655
SWIDTH 589 0
DWIDTH 18 0
BBX 16 16 1 0
BITMAP
F81F
F83E
7C3E
3E7C
1E78
1FF0
0FF0
07E0
07C0
03C0
03C0
03C0
03C0
03C0
03C0
03C0
ENDCHAR
STARTCHAR 0290
ENCODING 656
SWIDTH 523 0
DWIDTH 16 0
BBX 17 22 1 -6
BITMAP
FFF800
FFF800
FFF800
01F800
03F000
03E000
07C000
0FC000
1F8000
1F0000
3E0000
7C0000
FC0000
FFFC00
FFFC00
FFFC00
003C00
003C00
003C00
003F80
001F80
000F80
ENDCHAR
STARTCHAR 0291
ENCODING 657
SWIDTH 687 0
DWIDTH 21 0
BBX 20 19 1 -3
BITMAP
FFF800
FFF800
FFF800
01F000
01E000
03E000
07C780
0F9FC0
0FBFE0
1F7FE0
3E7CF0
7CF8F0
7DF1E0
FFFFE0
FFFFC0
FFFF80
078000
0F0000
030000
ENDCHAR
STARTCHAR 0292
ENCODING 658
SWIDTH 523 0
DWIDTH 16 0
BBX 15 22 1 -6
BITMAP
7FFC
7FFC
7FFC
0078
00F8
01F0
03E0
07C0
07E0
07F8
00FC
003C
003C
003E
003E
003E
703C
F03C
F87C
7FF8
3FF0
0FC0
ENDCHAR
STARTCHAR 0293
ENCODING 659
SWIDTH 523 0
DWIDTH 16 0
BBX 15 22 1 -6
BITMAP
7FFC
7FFC
7FFC
0078
00F8
01F0
03E0
07C0
07E0
07F8
00FC
003C
003E
3F3E
FFFE
FFFE
F1FC
E0FC
F0FC
FFFE
7FFC
1FC8
ENDCHAR
STARTCHAR 0294
ENCODING 660
SWIDTH 556 0
DWIDTH 17 0
BBX 15 22 1 0
BITMAP
0FC0
3FF0
7FF8
787C
F83C
703E
003E
001E
001E
003E
003E
003C
007C
07F8
07F0
07E0
0780
0780
0780
0780
0780
0780
ENDCHAR
STARTCHAR 0295
ENCODING 661
SWIDTH 556 0
DWIDTH 17 0
BBX 15 22 1 0
BITMAP
07E0
1FF8
3FFC
7C3E
781E
781C
F800
F800
F800
F800
7800
7800
7C00
3FC0
1FC0
0FC0
03C0
03C0
03C0
03C0
03C0
03C0
ENDCHAR
STARTCHAR 0296
ENCODING 662
SWIDTH 556 0
DWIDTH 17 0
BBX 15 22 1 0
BITMAP
0780
0780
0780
0780
0780
0780
07E0
07F0
07F8
007C
003C
003E
003E
001E
001E
003E
703E
F83C
787C
7FF8
3FF0
0FC0
ENDCHAR
STARTCHAR 0297
ENCODING 663
SWIDTH 556 0
DWIDTH 17 0
BBX 15 22 1 -6
BITMAP
07E0
1FF8
3FFC
7C3E
781E
781C
F800
F800
F800
F800
F800
F800
F800
F800
F800
F800
781C
781E
7C3E
3FFC
1FF8
07E0
ENDCHAR
STARTCHAR 0298
ENCODING 664
SWIDTH 785 0
DWIDTH 24 0
BBX 22 22 1 0
BITMAP
01FE00
07FF80
0FFFC0
1FFFE0
3F03F0
7E01F8
7C00F8
7C0078
78007C
F8787C
F8787C
F8787C
F8787C
78007C
7C0078
7C00F8
7E01F8
3F03F0
1FFFF0
0FFFE0
07FF80
01FE00
ENDCHAR
STARTCHAR 0299
ENCODING 665
SWIDTH 621 0
DWIDTH 19 0
BBX 16 16 2 0
BITMAP
FFF8
FFFC
FFFE
F83E
F81E
F83E
FFFC
FFF8
FFFE
F81E
F81F
F81F
F81F
FFFE
FFFE
FFF8
ENDCHAR
STARTCHAR 029A
ENCODING 666
SWIDTH 589 0
DWIDTH 18 0
BBX 15 16 1 0
BITMAP
0FC0
3FF0
7FF8
787C
783E
781E
3F1E
1F1E
7F1E
781E
F01E
F03E
F87C
7FF8
3FF0
0FC0
ENDCHAR
STARTCHAR 029B
ENCODING 667
SWIDTH 589 0
DWIDTH 18 0
BBX 20 19 1 0
BITMAP
0003F0
0007F0
000FF0
07FF00
1FFF00
3FFF00
7E1F00
7C0E00
780000
F80000
F80000
F87F00
F87F00
787F00
7C0F00
7E0F00
3FFF00
1FFE00
07F800
ENDCHAR
STARTCHAR 029C
ENCODING 668
SWIDTH 621 0
DWIDTH 19 0
BBX 15 16 2 0
BITMAP
F03E
F03E
F03E
F03E
F03E
F03E
FFFE
FFFE
FFFE
F03E
F03E
F03E
F03E
F03E
F03E
F03E
ENDCHAR
STARTCHAR 029D
ENCODING 669
SWIDTH 458 0
DWIDTH 14 0
BBX 14 28 0 -6
BITMAP
00F0
00F0
00F0
0000
0000
0000
00F0
00F0
00F0
00F0
00F0
00F0
00F0
00F0
00F0
00F0
00F0
00F0
00F0
1FFC
3FFC
7FFC
78F0
F0F0
79E0
7FE0
3FC0
1F80
ENDCHAR
STARTCHAR 029E
ENCODING 670
SWIDTH 556 0
DWIDTH 17 0
BBX 14 22 1 -6
BITMAP
F03C
F83C
783C
7C3C
3C3C
3E3C
1F7C
0FFC
0FFC
07FC
07BC
0F3C
1F3C
3E3C
7C3C
F83C
003C
003C
003C
003C
003C
003C
ENDCHAR
STARTCHAR 029F
ENCODING 671
SWIDTH 458 0
DWIDTH 14 0
BBX 11 16 2 0
BITMAP
F000
F000
F000
F000
F000
F000
F000
F000
F000
F000
F000
F000
F000
FFE0
FFE0
FFE0
ENDCHAR
STARTCHAR 02A0
ENCODING 672
SWIDTH 621 0
DWIDTH 19 0
BBX 20 28 1 -6
BITMAP
0003F0
0007F0
000FF0
000F00
000F00
000F00
07CF00
1FEF00
3FFF00
7E3F00
7C1F00
780F00
F80F00
F80F00
F80F00
F80F00
781F00
781F00
7C3F00
3FFF00
1FEF00
0FCF00
000F00
000F00
000F00
000F00
000F00
000F00
ENDCHAR
STARTCHAR 02A1
ENCODING 673
SWIDTH 556 0
DWIDTH 17 0
BBX 15 22 1 0
BITMAP
0FC0
3FF0
7FF8
787C
F83C
703E
003E
001E
001E
003E
003E
003C
007C
07F8
07F0
07E0
0780
FFFC
FFFC
FFFC
0780
0780
ENDCHAR
STARTCHAR 02A2
ENCODING 674
SWIDTH 556 0
DWIDTH 17 0
BBX 15 22 1 0
BITMAP
07E0
1FF8
3FFC
7C3E
781E
781C
F800
F800
F800
F800
7800
7800
7C00
3FC0
1FC0
0FC0
03C0
7FFE
7FFE
7FFE
03C0
03C0
ENDCHAR
STARTCHAR 02A3
ENCODING 675
SWIDTH 1047 0
DWIDTH 32 0
BBX 30 22 1 0
BITMAP
000F0000
000F0000
000F0000
000F0000
000F0000
000F0000
0FCFFFFC
1FEFFFFC
3FFFFFFC
7C3F00F8
781F01F0
781F03F0
F80F07E0
F80F07C0
F80F0F80
F80F1F00
781F3F00
781F7E00
7C3F7C00
3FFFFFFC
1FEFFFFC
0FCFFFFC
ENDCHAR
STARTCHAR 02A4
ENCODING 676
SWIDTH 949 0
DWIDTH 29 0
BBX 28 28 1 -6
BITMAP
000F0000
000F0000
000F0000
000F0000
000F0000
000F0000
0FCFFFE0
1FEFFFE0
3FFFFFE0
7C3F03C0
781F0780
781F0F80
F80F1F00
F80F3E00
F80F3F00
F80F3FC0
781F07C0
781F03E0
7C3F01E0
3FFF01F0
1FEF01F0
0FCF01F0
000001E0
000703E0
000F87E0
0007FFC0
0003FF80
0000FE00
ENDCHAR
STARTCHAR 02A5
ENCODING 677
SWIDTH 1243 0
DWIDTH 38 0
BBX 36 25 1 -3
BITMAP
000F000000
000F000000
000F000000
000F000000
000F000000
000F000000
0FCFFFFC00
1FEFFFFC00
3FFFFFF800
7C3F00F800
781F01F000
781F03E000
F80F07C780
F80F07CFE0
F80F0F9FF0
F80F1F3FF0
781F3E7CF0
781F3EF8F0
7C3F7CF0F0
3FFFFFFFE0
1FEFFFFFE0
0FCFFFFF80
0000078000
0000078000
0000030000
ENDCHAR
STARTCHAR 02A6
ENCODING 678
SWIDTH 818 0
DWIDTH 25 0
BBX 24 22 0 0
BITMAP
020000
060000
1E0000
3E0000
3E0000
3E0000
FFFFF0
FFFFF8
FFFFFC
3E7C3E
3E781C
3E7C00
3E3F80
3E3FF0
3E0FFC
3E03FE
3E003F
3E001F
1E001F
1FFFFE
1FFFFC
0FFFF0
ENDCHAR
STARTCHAR 02A7
ENCODING 679
SWIDTH 556 0
DWIDTH 17 0
BBX 18 28 0 -6
BITMAP
020FC0
063FC0
1E3FC0
3E3C00
3E3C00
3E3C00
FFFC00
FFFC00
FFFC00
3E3C00
3E3C00
3E3C00
3E3C00
3E3C00
3E3C00
3E3C00
3E3C00
3E3C00
3E3C00
1FFC00
1FFC00
0FFC00
003C00
003C00
007C00
03FC00
03F800
07F000
ENDCHAR
STARTCHAR 02A8
ENCODING 680
SWIDTH 850 0
DWIDTH 26 0
BBX 25 22 0 0
BITMAP
02000000
06000000
1E000000
3E000000
3E000000
3E000000
FFC3F000
FFCFFC00
FFDFFE00
3E1F1F00
3E3E0F00
3E3C0E00
3E3C0000
3E3C7C00
3E3DFF00
3E3FFF00
3E3F8780
3E3F0780
1E7F0F00
1FFFFF00
1FE7FE00
0F81F800
ENDCHAR
STARTCHAR 02A9
ENCODING 681
SWIDTH 883 0
DWIDTH 27 0
BBX 25 28 0 -6
BITMAP
07E00000
0FE00000
1FE00000
1E000000
1E000000
1E000000
FFFC7C00
FFFDFF00
FFFFFF00
1E3F1F80
1E3E0F80
1E3E0F80
1E3E0780
1E3C0780
1E3C0780
1E3C0780
1E3C0780
1E3C0780
1E3C0780
1E3C0780
1E3C0780
1E3C0780
00000780
00000F80
00000F80
00003F00
00007F00
00007C00
ENDCHAR
STARTCHAR 02AA
ENCODING 682
SWIDTH 785 0
DWIDTH 24 0
BBX 21 22 2 0
BITMAP
F00000
F00000
F00000
F00000
F00000
F00000
F07F80
F0FFC0
F1FFE0
F3E1F0
F3C0E0
F3E000
F1FC00
F1FFC0
F07FE0
F00FF0
F000F0
F800F8
FF01F0
FFFFF0
FFFFE0
F1FF00
ENDCHAR
STARTCHAR 02AB
ENCODING 683
SWIDTH 687 0
DWIDTH 21 0
BBX 19 22 2 0
BITMAP
F00000
F00000
F00000
F00000
F00000
F00000
FFFFC0
FFFFC0
FFFFC0
F00FC0
F01F80
F01F00
F03E00
F07C00
F0FC00
F0F800
F1F000
F3E000
F7E000
FFFFE0
FFFFE0
FFFFE0
ENDCHAR
STARTCHAR 02AC
ENCODING 684
SWIDTH 556 0
DWIDTH 17 0
BBX 15 22 1 0
BITMAP
C38E
E38E
E78C
67DC
76DC
7ED8
3CF8
3CF8
3C70
1C70
0000
0000
C38E
E38E
E78C
67DC
76DC
7ED8
3CF8
3CF8
3C70
1C70
ENDCHAR
STARTCHAR 02AD
ENCODING 685
SWIDTH 556 0
DWIDTH 17 0
BBX 13 22 2 0
BITMAP
FFF8
FFF8
FFF8
FFF8
F038
F038
F038
0000
0000
0000
0000
0000
0000
0000
0000
FFF8
FFF8
FFF8
FFF8
F038
F038
F038
ENDCHAR
STARTCHAR 02AE
ENCODING 686
SWIDTH 752 0
DWIDTH 23 0
BBX 20 22 0 -6
BITMAP
FC00F0
FF00F0
FF80F0
0F80F0
07C0F0
03C0F0
03C0F0
03C0F0
03C0F0
03C0F0
03C0F0
03C1F0
03E1F0
03FFF0
01FEF0
007CF0
0000F0
0000F0
0000F0
0000F0
0000F0
0000F0
ENDCHAR
STARTCHAR 02AF
ENCODING 687
SWIDTH 752 0
DWIDTH 23 0
BBX 26 22 0 -6
BITMAP
FC00F000
FF00F000
FF80F000
0F80F000
07C0F000
03C0F000
03C0F000
03C0F000
03C0F000
03C0F000
03C0F000
03C1F000
03E1F000
03FFF000
01FEF000
007CF000
0000F000
0000F800
00007800
00007FC0
00003FC0
00000FC0
ENDCHAR
STARTCHAR 02B0
ENCODING 688
SWIDTH 360 0
DWIDTH 11 0
BBX 10 15 1 7
BITMAP
E000
E000
E000
E000
EF00
FF80
F380
E1C0
E1C0
E1C0
E1C0
E1C0
E1C0
E1C0
E1C0
ENDCHAR
STARTCHAR 02B1
ENCODING 689
SWIDTH 360 0
DWIDTH 11 0
BBX 10 15 1 7
BITMAP
7800
F800
E000
E000
EF00
FF80
F380
E1C0
E1C0
E1C0
E1C0
E1C0
E1C0
E1C0
E1C0
ENDCHAR
STARTCHAR 02B2
ENCODING 690
SWIDTH 196 0
DWIDTH 6 0
BBX 5 19 0 3
BITMAP
38
38
38
00
38
38
38
38
38
38
38
38
38
38
38
38
38
F0
F0
ENDCHAR
STARTCHAR 02B3
ENCODING 691
SWIDTH 261 0
DWIDTH 8 0
BBX 7 11 1 7
BITMAP
DE
FE
FC
E0
E0
E0
E0
E0
E0
E0
E0
ENDCHAR
STARTCHAR 02B4
ENCODING 692
SWIDTH 261 0
DWIDTH 8 0
BBX 7 11 0 7
BITMAP
0E
0E
0E
0E
0E
0E
0E
1E
7E
FE
EE
ENDCHAR
STARTCHAR 02B5
ENCODING 693
SWIDTH 261 0
DWIDTH 8 0
BBX 9 15 0 3
BITMAP
0E00
0E00
0E00
0E00
0E00
0E00
0E00
1E00
7E00
FE00
EE00
0E00
0E00
0780
0780
ENDCHAR
STARTCHAR 02B6
ENCODING 694
SWIDTH 392 0
DWIDTH 12 0
BBX 10 11 1 7
BITMAP
E1C0
E380
E780
E700
FF00
FF80
E3C0
E1C0
E3C0
FF80
FF00
ENDCHAR
STARTCHAR 02B7
ENCODING 695
SWIDTH 523 0
DWIDTH 16 0
BBX 16 11 0 7
BITMAP
E1C7
E3C7
73C6
73CE
73EE
376C
3E7C
3E7C
1E7C
1E38
1C38
ENDCHAR
STARTCHAR 02B8
ENCODING 696
SWIDTH 360 0
DWIDTH 11 0
BBX 11 15 0 3
BITMAP
E0E0
70E0
71C0
71C0
39C0
3B80
3B80
1F00
1F00
0F00
0E00
0E00
1C00
7C00
7800
ENDCHAR
STARTCHAR 02B9
ENCODING 697
SWIDTH 229 0
DWIDTH 7 0
BBX 5 8 1 14
BITMAP
F8
F8
F8
F8
78
78
78
70
ENDCHAR
STARTCHAR 02BA
ENCODING 698
SWIDTH 490 0
DWIDTH 15 0
BBX 11 8 2 14
BITMAP
F1E0
F1E0
F1E0
F1E0
F1E0
F1E0
F1E0
F1E0
ENDCHAR
STARTCHAR 02BB
ENCODING 699
SWIDTH 294 0
DWIDTH 9 0
BBX 5 9 2 13
BITMAP
10
38
70
60
E0
F8
F8
F8
F8
ENDCHAR
STARTCHAR 02BC
ENCODING 700
SWIDTH 294 0
DWIDTH 9 0
BBX 4 9 2 13
BITMAP
F0
F0
F0
F0
30
30
70
E0
C0
ENDCHAR
STARTCHAR 02BD
ENCODING 701
SWIDTH 294 0
DWIDTH 9 0
BBX 5 9 2 13
BITMAP
F8
F8
F8
F8
C0
E0
70
38
10
ENDCHAR
STARTCHAR 02BE
ENCODING 702
SWIDTH 327 0
DWIDTH 10 0
BBX 3 6 4 19
BITMAP
80
C0
60
60
C0
80
ENDCHAR
STARTCHAR 02BF
ENCODING 703
SWIDTH 327 0
DWIDTH 10 0
BBX 3 6 4 19
BITMAP
60
E0
C0
80
E0
60
ENDCHAR
STARTCHAR 02C0
ENCODING 704
SWIDTH 392 0
DWIDTH 12 0
BBX 10 15 1 7
BITMAP
3E00
7F00
E380
E1C0
01C0
01C0
01C0
01C0
0380
1F80
1E00
1C00
1C00
1C00
1C00
ENDCHAR
STARTCHAR 02C1
ENCODING 705
SWIDTH 392 0
DWIDTH 12 0
BBX 10 15 1 7
BITMAP
1E00
7F80
F380
E1C0
E000
E000
E000
E000
F000
7C00
3C00
0C00
0C00
0C00
0C00
ENDCHAR
STARTCHAR 02C2
ENCODING 706
SWIDTH 589 0
DWIDTH 18 0
BBX 16 17 1 3
BITMAP
0001
000F
003F
00FF
07FC
1FF0
7FC0
FE00
F800
FF00
7FC0
1FF0
07FE
00FF
003F
000F
0001
ENDCHAR
STARTCHAR 02C3
ENCODING 707
SWIDTH 589 0
DWIDTH 18 0
BBX 16 17 1 3
BITMAP
C000
F000
FC00
FF00
3FE0
0FF8
03FE
007F
001F
007F
03FE
0FF8
3FE0
FF00
FC00
F000
C000
ENDCHAR
STARTCHAR 02C4
ENCODING 708
SWIDTH 589 0
DWIDTH 18 0
BBX 16 15 1 3
BITMAP
03C0
03E0
07E0
07E0
0FF0
0FF0
1E78
1E78
3E3C
3C3C
3C3E
781E
781E
F80F
F00F
ENDCHAR
STARTCHAR 02C5
ENCODING 709
SWIDTH 589 0
DWIDTH 18 0
BBX 16 15 1 3
BITMAP
F00F
F80F
781E
781E
3C3E
3C3C
1E3C
1E78
1E78
0FF0
0FF0
07E0
07E0
03E0
03C0
ENDCHAR
STARTCHAR 02C6
ENCODING 710
SWIDTH 327 0
DWIDTH 10 0
BBX 10 4 0 18
BITMAP
1F00
3F00
7B80
F3C0
ENDCHAR
STARTCHAR 02C7
ENCODING 711
SWIDTH 327 0
DWIDTH 10 0
BBX 10 4 0 18
BITMAP
F3C0
7B80
3F00
1F00
ENDCHAR
STARTCHAR 02C8
ENCODING 712
SWIDTH 327 0
DWIDTH 10 0
BBX 2 5 4 19
BITMAP
C0
C0
C0
C0
C0
ENDCHAR
STARTCHAR 02C9
ENCODING 713
SWIDTH 327 0
DWIDTH 10 0
BBX 10 3 0 19
BITMAP
FFC0
FFC0
FFC0
ENDCHAR
STARTCHAR 02CA
ENCODING 714
SWIDTH 327 0
DWIDTH 10 0
BBX 6 5 3 19
BITMAP
3C
78
78
F0
E0
ENDCHAR
STARTCHAR 02CB
ENCODING 715
SWIDTH 327 0
DWIDTH 10 0
BBX 6 5 1 19
BITMAP
F8
78
38
1C
1C
ENDCHAR
STARTCHAR 02CC
ENCODING 716
SWIDTH 327 0
DWIDTH 10 0
BBX 2 5 4 -6
BITMAP
C0
C0
C0
C0
C0
ENDCHAR
STARTCHAR 02CD
ENCODING 717
SWIDTH 327 0
DWIDTH 10 0
BBX 10 3 0 -5
BITMAP
FFC0
FFC0
FFC0
ENDCHAR
STARTCHAR 02CE
ENCODING 718
SWIDTH 327 0
DWIDTH 10 0
BBX 6 5 1 -6
BITMAP
F8
78
38
1C
1C
ENDCHAR
STARTCHAR 02CF
ENCODING 719
SWIDTH 327 0
DWIDTH 10 0
BBX 6 5 3 -6
BITMAP
3C
78
78
F0
E0
ENDCHAR
STARTCHAR 02D0
ENCODING 720
SWIDTH 327 0
DWIDTH 10 0
BBX 4 16 3 0
BITMAP
F0
70
70
60
00
00
00
00
00
00
00
00
60
70
70
F0
ENDCHAR
STARTCHAR 02D1
ENCODING 721
SWIDTH 327 0
DWIDTH 10 0
BBX 4 4 3 12
BITMAP
F0
70
70
60
ENDCHAR
STARTCHAR 02D2
ENCODING 722
SWIDTH 327 0
DWIDTH 10 0
BBX 3 6 4 2
BITMAP
80
C0
60
60
C0
80
ENDCHAR
STARTCHAR 02D3
ENCODING 723
SWIDTH 327 0
DWIDTH 10 0
BBX 3 6 4 2
BITMAP
60
E0
C0
80
E0
60
ENDCHAR
STARTCHAR 02D4
ENCODING 724
SWIDTH 327 0
DWIDTH 10 0
BBX 5 6 3 3
BITMAP
60
60
60
60
F8
F8
ENDCHAR
STARTCHAR 02D5
ENCODING 725
SWIDTH 327 0
DWIDTH 10 0
BBX 5 6 3 3
BITMAP
F8
F8
60
60
60
60
ENDCHAR
STARTCHAR 02D6
ENCODING 726
SWIDTH 327 0
DWIDTH 10 0
BBX 5 6 3 3
BITMAP
60
60
F8
F8
60
60
ENDCHAR
STARTCHAR 02D7
ENCODING 727
SWIDTH 327 0
DWIDTH 10 0
BBX 10 3 0 4
BITMAP
FFC0
FFC0
FFC0
ENDCHAR
STARTCHAR 02D8
ENCODING 728
SWIDTH 327 0
DWIDTH 10 0
BBX 10 4 0 18
BITMAP
E0C0
6180
7F80
1E00
ENDCHAR
STARTCHAR 02D9
ENCODING 729
SWIDTH 327 0
DWIDTH 10 0
BBX 4 4 3 18
BITMAP
F0
F0
F0
F0
ENDCHAR
STARTCHAR 02DA
ENCODING 730
SWIDTH 327 0
DWIDTH 10 0
BBX 6 6 2 16
BITMAP
38
7C
CC
CC
7C
78
ENDCHAR
STARTCHAR 02DB
ENCODING 731
SWIDTH 327 0
DWIDTH 10 0
BBX 5 6 1 -6
BITMAP
70
E0
E0
E0
F8
78
ENDCHAR
STARTCHAR 02DC
ENCODING 732
SWIDTH 327 0
DWIDTH 10 0
BBX 10 4 0 18
BITMAP
78C0
FFC0
FFC0
C780
ENDCHAR
STARTCHAR 02DD
ENCODING 733
SWIDTH 327 0
DWIDTH 10 0
BBX 11 5 2 17
BITMAP
7DE0
79E0
73C0
E380
E700
ENDCHAR
STARTCHAR 02DE
ENCODING 734
SWIDTH 327 0
DWIDTH 10 0
BBX 9 7 0 6
BITMAP
6000
E000
F000
F080
7F80
3F80
1F00
ENDCHAR
STARTCHAR 02DF
ENCODING 735
SWIDTH 327 0
DWIDTH 10 0
BBX 10 10 0 12
BITMAP
4080
E1C0
7380
3F00
1E00
1E00
3F00
7380
E1C0
4080
ENDCHAR
STARTCHAR 02E0
ENCODING 736
SWIDTH 360 0
DWIDTH 11 0
BBX 11 15 0 3
BITMAP
E0E0
70E0
71C0
39C0
3B80
1F80
1F00
0F00
0E00
0F00
1F00
1B80
1B80
1F80
0F00
ENDCHAR
STARTCHAR 02E1
ENCODING 737
SWIDTH 130 0
DWIDTH 4 0
BBX 3 15 1 7
BITMAP
E0
E0
E0
E0
E0
E0
E0
E0
E0
E0
E0
E0
E0
E0
E0
ENDCHAR
STARTCHAR 02E2
ENCODING 738
SWIDTH 392 0
DWIDTH 12 0
BBX 10 11 1 7
BITMAP
3E00
7F80
E3C0
E000
FE00
7F80
0FC0
01C0
E1C0
7F80
3F00
ENDCHAR
STARTCHAR 02E3
ENCODING 739
SWIDTH 360 0
DWIDTH 11 0
BBX 11 11 0 7
BITMAP
71E0
79C0
3B80
1F80
1F00
0F00
1F00
3F80
3BC0
71C0
F1E0
ENDCHAR
STARTCHAR 02E4
ENCODING 740
SWIDTH 392 0
DWIDTH 12 0
BBX 10 15 1 7
BITMAP
1E00
7F80
F380
E1C0
E000
E000
E000
E000
F000
7C00
3C00
0C00
0C00
0C00
0C00
ENDCHAR
STARTCHAR 02E5
ENCODING 741
SWIDTH 392 0
DWIDTH 12 0
BBX 8 22 2 0
BITMAP
FF
FF
07
07
07
07
07
07
07
07
07
07
07
07
07
07
07
07
07
07
07
07
ENDCHAR
STARTCHAR 02E6
ENCODING 742
SWIDTH 392 0
DWIDTH 12 0
BBX 8 22 2 0
BITMAP
07
07
07
07
07
FF
FF
07
07
07
07
07
07
07
07
07
07
07
07
07
07
07
ENDCHAR
STARTCHAR 02E7
ENCODING 743
SWIDTH 392 0
DWIDTH 12 0
BBX 8 22 2 0
BITMAP
07
07
07
07
07
07
07
07
07
07
FF
FF
07
07
07
07
07
07
07
07
07
07
ENDCHAR
STARTCHAR 02E8
ENCODING 744
SWIDTH 392 0
DWIDTH 12 0
BBX 8 22 2 0
BITMAP
07
07
07
07
07
07
07
07
07
07
07
07
07
07
07
FF
FF
07
07
07
07
07
ENDCHAR
STARTCHAR 02E9
ENCODING 745
SWIDTH 392 0
DWIDTH 12 0
BBX 8 22 2 0
BITMAP
07
07
07
07
07
07
07
07
07
07
07
07
07
07
07
07
07
07
07
07
FF
FF
ENDCHAR
STARTCHAR 02EA
ENCODING 746
SWIDTH 327 0
DWIDTH 10 0
BBX 8 13 1 0
BITMAP
C0
C0
C0
C0
C0
C0
C0
C0
C0
C0
C0
C0
FF
ENDCHAR
STARTCHAR 02EB
ENCODING 747
SWIDTH 327 0
DWIDTH 10 0
BBX 8 13 1 0
BITMAP
C0
C0
C0
C0
C0
C0
FF
C0
C0
C0
C0
C0
C0
ENDCHAR
STARTCHAR 02EC
ENCODING 748
SWIDTH 327 0
DWIDTH 10 0
BBX 10 4 0 -6
BITMAP
F3C0
7B80
3F00
1F00
ENDCHAR
STARTCHAR 02ED
ENCODING 749
SWIDTH 327 0
DWIDTH 10 0
BBX 10 5 0 19
BITMAP
FFC0
FFC0
0000
FFC0
FFC0
ENDCHAR
STARTCHAR 02EE
ENCODING 750
SWIDTH 523 0
DWIDTH 16 0
BBX 11 9 2 13
BITMAP
F1E0
F1E0
F1E0
F1E0
3060
3060
70E0
E1C0
C180
ENDCHAR
STARTCHAR 02EF
ENCODING 751
SWIDTH 327 0
DWIDTH 10 0
BBX 6 4 2 -5
BITMAP
CC
68
38
30
ENDCHAR
STARTCHAR 02F0
ENCODING 752
SWIDTH 327 0
DWIDTH 10 0
BBX 6 4 2 -5
BITMAP
30
38
68
CC
ENDCHAR
STARTCHAR 02F1
ENCODING 753
SWIDTH 327 0
DWIDTH 10 0
BBX 4 6 3 -6
BITMAP
10
30
E0
E0
30
10
ENDCHAR
STARTCHAR 02F2
ENCODING 754
SWIDTH 327 0
DWIDTH 10 0
BBX 4 6 3 -6
BITMAP
80
C0
70
70
C0
80
ENDCHAR
STARTCHAR 02F3
ENCODING 755
SWIDTH 327 0
DWIDTH 10 0
BBX 6 6 2 -7
BITMAP
78
7C
CC
CC
7C
78
ENDCHAR
STARTCHAR 02F4
ENCODING 756
SWIDTH 327 0
DWIDTH 10 0
BBX 6 5 1 3
BITMAP
F8
78
38
1C
1C
ENDCHAR
STARTCHAR 02F5
ENCODING 757
SWIDTH 327 0
DWIDTH 10 0
BBX 12 5 -1 3
BITMAP
FBC0
79E0
3CE0
1CF0
1C70
ENDCHAR
STARTCHAR 02F6
ENCODING 758
SWIDTH 327 0
DWIDTH 10 0
BBX 12 5 -1 3
BITMAP
3CF0
39E0
79C0
73C0
E380
ENDCHAR
STARTCHAR 02F7
ENCODING 759
SWIDTH 327 0
DWIDTH 10 0
BBX 10 4 0 -6
BITMAP
78C0
FFC0
FFC0
C780
ENDCHAR
STARTCHAR 02F8
ENCODING 760
SWIDTH 327 0
DWIDTH 10 0
BBX 4 16 3 6
BITMAP
F0
F0
F0
F0
00
00
00
00
00
00
00
00
F0
F0
F0
F0
ENDCHAR
STARTCHAR 02F9
ENCODING 761
SWIDTH 327 0
DWIDTH 10 0
BBX 5 6 3 16
BITMAP
F8
F8
80
80
80
80
ENDCHAR
STARTCHAR 02FA
ENCODING 762
SWIDTH 327 0
DWIDTH 10 0
BBX 5 6 3 16
BITMAP
F8
F8
18
18
18
18
ENDCHAR
STARTCHAR 02FB
ENCODING 763
SWIDTH 327 0
DWIDTH 10 0
BBX 5 6 3 -7
BITMAP
80
80
80
80
F8
F8
ENDCHAR
STARTCHAR 02FC
ENCODING 764
SWIDTH 327 0
DWIDTH 10 0
BBX 5 6 3 -7
BITMAP
18
18
18
18
F8
F8
ENDCHAR
STARTCHAR 02FD
ENCODING 765
SWIDTH 392 0
DWIDTH 12 0
BBX 12 6 0 -7
BITMAP
E030
E030
E030
E030
FFF0
FFF0
ENDCHAR
STARTCHAR 02FE
ENCODING 766
SWIDTH 392 0
DWIDTH 12 0
BBX 12 6 0 -7
BITMAP
E000
E000
E000
E000
FFF0
FFF0
ENDCHAR
STARTCHAR 02FF
ENCODING 767
SWIDTH 327 0
DWIDTH 10 0
BBX 8 10 1 -7
BITMAP
10
20
60
40
FF
FF
40
60
20
10
ENDCHAR
STARTCHAR 0300
ENCODING 768
SWIDTH 0 0
DWIDTH 0 0
BBX 7 5 -9 24
BITMAP
F8
78
3C
1C
0E
ENDCHAR
STARTCHAR 0301
ENCODING 769
SWIDTH 0 0
DWIDTH 0 0
BBX 6 5 -6 24
BITMAP
7C
78
70
F0
E0
ENDCHAR
STARTCHAR 0302
ENCODING 770
SWIDTH 0 0
DWIDTH 0 0
BBX 10 4 -5 19
BITMAP
1E00
3F00
7F80
F3C0
ENDCHAR
STARTCHAR 0303
ENCODING 771
SWIDTH 0 0
DWIDTH 0 0
BBX 10 3 -14 24
BITMAP
78C0
7FC0
C780
ENDCHAR
STARTCHAR 0304
ENCODING 772
SWIDTH 0 0
DWIDTH 0 0
BBX 10 3 -5 19
BITMAP
FFC0
FFC0
FFC0
ENDCHAR
STARTCHAR 0305
ENCODING 773
SWIDTH 0 0
DWIDTH 0 0
BBX 18 3 -9 24
BITMAP
FFFFC0
FFFFC0
FFFFC0
ENDCHAR
STARTCHAR 0306
ENCODING 774
SWIDTH 0 0
DWIDTH 0 0
BBX 10 4 -5 19
BITMAP
C0C0
6180
7F80
1E00
ENDCHAR
STARTCHAR 0307
ENCODING 775
SWIDTH 0 0
DWIDTH 0 0
BBX 4 4 -2 19
BITMAP
F0
F0
F0
F0
ENDCHAR
STARTCHAR 0308
ENCODING 776
SWIDTH 0 0
DWIDTH 0 0
BBX 10 3 -5 19
BITMAP
F3C0
F3C0
F3C0
ENDCHAR
STARTCHAR 0309
ENCODING 777
SWIDTH 0 0
DWIDTH 0 0
BBX 6 5 -7 24
BITMAP
F8
FC
0C
3C
30
ENDCHAR
STARTCHAR 030A
ENCODING 778
SWIDTH 0 0
DWIDTH 0 0
BBX 6 6 -3 19
BITMAP
78
FC
CC
CC
FC
78
ENDCHAR
STARTCHAR 030B
ENCODING 779
SWIDTH 0 0
DWIDTH 0 0
BBX 12 5 -6 19
BITMAP
3CF0
79E0
79C0
7380
E380
ENDCHAR
STARTCHAR 030C
ENCODING 780
SWIDTH 0 0
DWIDTH 0 0
BBX 10 4 -5 19
BITMAP
F3C0
7F80
3F00
1E00
ENDCHAR
STARTCHAR 030D
ENCODING 781
SWIDTH 0 0
DWIDTH 0 0
BBX 2 5 -1 19
BITMAP
C0
C0
C0
C0
C0
ENDCHAR
STARTCHAR 030E
ENCODING 782
SWIDTH 0 0
DWIDTH 0 0
BBX 4 5 -2 19
BITMAP
90
90
90
90
90
ENDCHAR
STARTCHAR 030F
ENCODING 783
SWIDTH 0 0
DWIDTH 0 0
BBX 12 5 -6 19
BITMAP
F3C0
79E0
39E0
1CE0
1C70
ENDCHAR
STARTCHAR 0310
ENCODING 784
SWIDTH 0 0
DWIDTH 0 0
BBX 10 8 -5 19
BITMAP
1E00
1E00
1E00
1E00
C0C0
6180
7F80
1E00
ENDCHAR
STARTCHAR 0311
ENCODING 785
SWIDTH 0 0
DWIDTH 0 0
BBX 10 4 -5 19
BITMAP
1E00
7F80
6180
C0C0
ENDCHAR
STARTCHAR 0312
ENCODING 786
SWIDTH 0 0
DWIDTH 0 0
BBX 4 9 -2 13
BITMAP
30
70
E0
C0
C0
F0
F0
F0
F0
ENDCHAR
STARTCHAR 0313
ENCODING 787
SWIDTH 0 0
DWIDTH 0 0
BBX 4 9 -2 13
BITMAP
F0
F0
F0
F0
30
30
70
E0
C0
ENDCHAR
STARTCHAR 0314
ENCODING 788
SWIDTH 0 0
DWIDTH 0 0
BBX 4 9 -2 13
BITMAP
F0
F0
F0
F0
C0
C0
E0
70
30
ENDCHAR
STARTCHAR 0315
ENCODING 789
SWIDTH 0 0
DWIDTH 0 0
BBX 5 9 0 13
BITMAP
F8
F8
F8
F8
38
30
70
E0
40
ENDCHAR
STARTCHAR 0316
ENCODING 790
SWIDTH 0 0
DWIDTH 0 0
BBX 6 5 -3 -6
BITMAP
F8
78
38
1C
1C
ENDCHAR
STARTCHAR 0317
ENCODING 791
SWIDTH 0 0
DWIDTH 0 0
BBX 6 5 -3 -6
BITMAP
7C
78
70
F0
E0
ENDCHAR
STARTCHAR 0318
ENCODING 792
SWIDTH 0 0
DWIDTH 0 0
BBX 5 6 -3 -7
BITMAP
08
08
F8
F8
08
08
ENDCHAR
STARTCHAR 0319
ENCODING 793
SWIDTH 0 0
DWIDTH 0 0
BBX 5 6 -2 -7
BITMAP
80
80
F8
F8
80
80
ENDCHAR
STARTCHAR 031A
ENCODING 794
SWIDTH 0 0
DWIDTH 0 0
BBX 12 7 -6 19
BITMAP
FFF0
FFF0
0070
0070
0070
0070
0070
ENDCHAR
STARTCHAR 031B
ENCODING 795
SWIDTH 0 0
DWIDTH 0 0
BBX 6 9 0 13
BITMAP
7C
7C
7C
78
18
18
38
F0
C0
ENDCHAR
STARTCHAR 031C
ENCODING 796
SWIDTH 0 0
DWIDTH 0 0
BBX 2 6 -1 -7
BITMAP
40
C0
80
80
C0
40
ENDCHAR
STARTCHAR 031D
ENCODING 797
SWIDTH 0 0
DWIDTH 0 0
BBX 6 6 -3 -7
BITMAP
30
30
30
30
FC
FC
ENDCHAR
STARTCHAR 031E
ENCODING 798
SWIDTH 0 0
DWIDTH 0 0
BBX 6 6 -3 -7
BITMAP
FC
FC
30
30
30
30
ENDCHAR
STARTCHAR 031F
ENCODING 799
SWIDTH 0 0
DWIDTH 0 0
BBX 6 6 -3 -7
BITMAP
30
30
FC
FC
30
30
ENDCHAR
STARTCHAR 0320
ENCODING 800
SWIDTH 0 0
DWIDTH 0 0
BBX 10 3 -5 -5
BITMAP
FFC0
FFC0
FFC0
ENDCHAR
STARTCHAR 0321
ENCODING 801
SWIDTH 0 0
DWIDTH 0 0
BBX 8 8 -4 -6
BITMAP
0F
0F
0F
0F
1F
7F
7E
FC
ENDCHAR
STARTCHAR 0322
ENCODING 802
SWIDTH 0 0
DWIDTH 0 0
BBX 8 8 0 -6
BITMAP
F0
F0
F0
F0
F8
FE
7F
3F
ENDCHAR
STARTCHAR 0323
ENCODING 803
SWIDTH 0 0
DWIDTH 0 0
BBX 4 4 -13 -7
BITMAP
F0
F0
F0
F0
ENDCHAR
STARTCHAR 0324
ENCODING 804
SWIDTH 0 0
DWIDTH 0 0
BBX 10 3 -5 -6
BITMAP
F3C0
F3C0
F3C0
ENDCHAR
STARTCHAR 0325
ENCODING 805
SWIDTH 0 0
DWIDTH 0 0
BBX 6 6 -3 -7
BITMAP
78
FC
CC
CC
FC
78
ENDCHAR
STARTCHAR 0326
ENCODING 806
SWIDTH 0 0
DWIDTH 0 0
BBX 4 5 -2 -6
BITMAP
F0
F0
30
60
C0
ENDCHAR
STARTCHAR 0327
ENCODING 807
SWIDTH 0 0
DWIDTH 0 0
BBX 8 6 -4 -6
BITMAP
3E
3F
07
07
FF
FC
ENDCHAR
STARTCHAR 0328
ENCODING 808
SWIDTH 0 0
DWIDTH 0 0
BBX 6 6 -3 -6
BITMAP
30
70
E0
F0
FC
7C
ENDCHAR
STARTCHAR 0329
ENCODING 809
SWIDTH 0 0
DWIDTH 0 0
BBX 2 5 -1 -6
BITMAP
C0
C0
C0
C0
C0
ENDCHAR
STARTCHAR 032A
ENCODING 810
SWIDTH 0 0
DWIDTH 0 0
BBX 12 6 -6 -7
BITMAP
FFF0
FFF0
E070
E070
E070
E070
ENDCHAR
STARTCHAR 032B
ENCODING 811
SWIDTH 0 0
DWIDTH 0 0
BBX 10 3 -5 -5
BITMAP
8C40
CCC0
7F80
ENDCHAR
STARTCHAR 032C
ENCODING 812
SWIDTH 0 0
DWIDTH 0 0
BBX 10 4 -5 -6
BITMAP
F3C0
7F80
3F00
1E00
ENDCHAR
STARTCHAR 032D
ENCODING 813
SWIDTH 0 0
DWIDTH 0 0
BBX 10 4 -5 -6
BITMAP
1E00
3F00
7F80
F3C0
ENDCHAR
STARTCHAR 032E
ENCODING 814
SWIDTH 0 0
DWIDTH 0 0
BBX 10 4 -5 -6
BITMAP
C0C0
6180
7F80
1E00
ENDCHAR
STARTCHAR 032F
ENCODING 815
SWIDTH 0 0
DWIDTH 0 0
BBX 10 4 -5 -6
BITMAP
1E00
7F80
6180
C0C0
ENDCHAR
STARTCHAR 0330
ENCODING 816
SWIDTH 0 0
DWIDTH 0 0
BBX 10 4 -5 -6
BITMAP
78C0
FFC0
FFC0
C780
ENDCHAR
STARTCHAR 0331
ENCODING 817
SWIDTH 0 0
DWIDTH 0 0
BBX 10 3 -5 -5
BITMAP
FFC0
FFC0
FFC0
ENDCHAR
STARTCHAR 0332
ENCODING 818
SWIDTH 0 0
DWIDTH 0 0
BBX 18 3 -9 -6
BITMAP
FFFFC0
FFFFC0
FFFFC0
ENDCHAR
STARTCHAR 0333
ENCODING 819
SWIDTH 0 0
DWIDTH 0 0
BBX 10 9 -5 -12
BITMAP
FFC0
FFC0
FFC0
0000
0000
0000
FFC0
FFC0
FFC0
ENDCHAR
STARTCHAR 0334
ENCODING 820
SWIDTH 0 0
DWIDTH 0 0
BBX 10 4 -5 3
BITMAP
78C0
FFC0
FFC0
C780
ENDCHAR
STARTCHAR 0335
ENCODING 821
SWIDTH 0 0
DWIDTH 0 0
BBX 10 3 -5 4
BITMAP
FFC0
FFC0
FFC0
ENDCHAR
STARTCHAR 0336
ENCODING 822
SWIDTH 0 0
DWIDTH 0 0
BBX 18 3 -9 4
BITMAP
FFFFC0
FFFFC0
FFFFC0
ENDCHAR
STARTCHAR 0337
ENCODING 823
SWIDTH 0 0
DWIDTH 0 0
BBX 14 14 -7 0
BITMAP
0008
001C
003C
0078
00F0
01C0
0780
0F00
1E00
3C00
7800
F000
E000
4000
ENDCHAR
STARTCHAR 0338
ENCODING 824
SWIDTH 0 0
DWIDTH 0 0
BBX 8 22 -4 0
BITMAP
07
07
07
0E
0E
0E
0E
1C
1C
1C
1C
38
38
38
38
70
70
70
70
E0
E0
E0
ENDCHAR
STARTCHAR 0339
ENCODING 825
SWIDTH 0 0
DWIDTH 0 0
BBX 3 6 -2 -7
BITMAP
C0
E0
20
20
E0
C0
ENDCHAR
STARTCHAR 033A
ENCODING 826
SWIDTH 0 0
DWIDTH 0 0
BBX 12 6 -6 -7
BITMAP
E070
E070
E070
E070
FFF0
FFF0
ENDCHAR
STARTCHAR 033B
ENCODING 827
SWIDTH 0 0
DWIDTH 0 0
BBX 6 6 -3 -7
BITMAP
FC
CC
CC
CC
CC
FC
ENDCHAR
STARTCHAR 033C
ENCODING 828
SWIDTH 0 0
DWIDTH 0 0
BBX 10 3 -5 -5
BITMAP
7F80
8C40
0C00
ENDCHAR
STARTCHAR 033D
ENCODING 829
SWIDTH 0 0
DWIDTH 0 0
BBX 6 7 -3 19
BITMAP
48
CC
78
30
78
CC
48
ENDCHAR
STARTCHAR 033E
ENCODING 830
SWIDTH 0 0
DWIDTH 0 0
BBX 3 8 -2 19
BITMAP
20
40
C0
60
60
20
20
C0
ENDCHAR
STARTCHAR 033F
ENCODING 831
SWIDTH 0 0
DWIDTH 0 0
BBX 18 5 -9 24
BITMAP
FFFFC0
FFFFC0
000000
FFFFC0
FFFFC0
ENDCHAR
STARTCHAR 0340
ENCODING 832
SWIDTH 0 0
DWIDTH 0 0
BBX 6 5 -6 19
BITMAP
F0
F8
78
38
1C
ENDCHAR
STARTCHAR 0341
ENCODING 833
SWIDTH 0 0
DWIDTH 0 0
BBX 6 5 0 19
BITMAP
3C
7C
78
70
E0
ENDCHAR
STARTCHAR 0342
ENCODING 834
SWIDTH 0 0
DWIDTH 0 0
BBX 10 4 -5 19
BITMAP
78C0
FFC0
FFC0
C780
ENDCHAR
STARTCHAR 0343
ENCODING 835
SWIDTH 0 0
DWIDTH 0 0
BBX 4 9 -2 13
BITMAP
F0
F0
F0
F0
30
30
70
E0
C0
ENDCHAR
STARTCHAR 0344
ENCODING 836
SWIDTH 0 0
DWIDTH 0 0
BBX 14 5 -7 19
BITMAP
03C0
0780
E79C
E71C
EE1C
ENDCHAR
STARTCHAR 0345
ENCODING 837
SWIDTH 0 0
DWIDTH 0 0
BBX 4 4 -2 -6
BITMAP
60
F0
F0
F0
ENDCHAR
STARTCHAR 0346
ENCODING 838
SWIDTH 0 0
DWIDTH 0 0
BBX 12 6 -6 19
BITMAP
FFF0
FFF0
E070
E070
E070
E070
ENDCHAR
STARTCHAR 0347
ENCODING 839
SWIDTH 0 0
DWIDTH 0 0
BBX 16 9 -8 -12
BITMAP
FFFF
FFFF
FFFF
0000
0000
0000
FFFF
FFFF
FFFF
ENDCHAR
STARTCHAR 0348
ENCODING 840
SWIDTH 0 0
DWIDTH 0 0
BBX 4 5 -2 -6
BITMAP
90
90
90
90
90
ENDCHAR
STARTCHAR 0349
ENCODING 841
SWIDTH 0 0
DWIDTH 0 0
BBX 5 6 -3 -7
BITMAP
F8
F8
08
08
08
08
ENDCHAR
STARTCHAR 034A
ENCODING 842
SWIDTH 0 0
DWIDTH 0 0
BBX 10 6 -5 18
BITMAP
0600
7EC0
FFC0
FFC0
DF80
1800
ENDCHAR
STARTCHAR 034B
ENCODING 843
SWIDTH 0 0
DWIDTH 0 0
BBX 10 10 -5 19
BITMAP
0C00
0C00
0C00
78C0
FFC0
FFC0
C780
0C00
0C00
0C00
ENDCHAR
STARTCHAR 034C
ENCODING 844
SWIDTH 0 0
DWIDTH 0 0
BBX 10 8 -5 19
BITMAP
78C0
FFC0
FFC0
C780
78C0
FFC0
FFC0
C780
ENDCHAR
STARTCHAR 034D
ENCODING 845
SWIDTH 0 0
DWIDTH 0 0
BBX 8 4 -4 -6
BITMAP
42
7E
FF
42
ENDCHAR
STARTCHAR 034E
ENCODING 846
SWIDTH 0 0
DWIDTH 0 0
BBX 4 6 -2 -7
BITMAP
60
F0
60
60
60
60
ENDCHAR
STARTCHAR 034F
ENCODING 847
SWIDTH 0 0
DWIDTH 0 0
BBX 22 24 -11 0
BITMAP
F8787C
F8787C
800004
800004
803004
00B400
068580
060180
000000
880044
880044
980064
980064
880044
880044
000000
060180
068580
00B400
803004
800004
800004
F8787C
F8787C
ENDCHAR
STARTCHAR 0350
ENCODING 848
SWIDTH 0 0
DWIDTH 0 0
BBX 4 6 -2 19
BITMAP
80
C0
70
70
C0
80
ENDCHAR
STARTCHAR 0351
ENCODING 849
SWIDTH 0 0
DWIDTH 0 0
BBX 2 6 -1 19
BITMAP
40
C0
80
80
C0
40
ENDCHAR
STARTCHAR 0352
ENCODING 850
SWIDTH 0 0
DWIDTH 0 0
BBX 10 8 -5 19
BITMAP
1E00
7F80
6180
C0C0
1E00
1E00
1E00
1E00
ENDCHAR
STARTCHAR 0353
ENCODING 851
SWIDTH 0 0
DWIDTH 0 0
BBX 6 7 -3 -7
BITMAP
48
CC
78
30
78
CC
48
ENDCHAR
STARTCHAR 0354
ENCODING 852
SWIDTH 0 0
DWIDTH 0 0
BBX 4 6 -2 -6
BITMAP
10
30
E0
E0
30
10
ENDCHAR
STARTCHAR 0355
ENCODING 853
SWIDTH 0 0
DWIDTH 0 0
BBX 4 6 -2 -6
BITMAP
80
C0
70
70
C0
80
ENDCHAR
STARTCHAR 0356
ENCODING 854
SWIDTH 0 0
DWIDTH 0 0
BBX 10 6 -4 -6
BITMAP
8000
C300
7380
7680
CCC0
8000
ENDCHAR
STARTCHAR 0357
ENCODING 855
SWIDTH 0 0
DWIDTH 0 0
BBX 2 6 -1 19
BITMAP
80
C0
40
40
C0
80
ENDCHAR
STARTCHAR 0358
ENCODING 856
SWIDTH 0 0
DWIDTH 0 0
BBX 2 2 4 19
BITMAP
C0
C0
ENDCHAR
STARTCHAR 0359
ENCODING 857
SWIDTH 0 0
DWIDTH 0 0
BBX 6 6 -3 -7
BITMAP
30
30
FC
30
78
48
ENDCHAR
STARTCHAR 035A
ENCODING 858
SWIDTH 0 0
DWIDTH 0 0
BBX 10 6 -5 -7
BITMAP
7380
FFC0
CCC0
CCC0
FFC0
7380
ENDCHAR
STARTCHAR 035B
ENCODING 859
SWIDTH 0 0
DWIDTH 0 0
BBX 6 8 -3 19
BITMAP
60
60
40
FC
FC
08
18
18
ENDCHAR
STARTCHAR 035C
ENCODING 860
SWIDTH 0 0
DWIDTH 0 0
BBX 23 6 -2 -7
BITMAP
C00006
E0001C
780038
1E01F0
0FFFE0
01FF00
ENDCHAR
STARTCHAR 035D
ENCODING 861
SWIDTH 0 0
DWIDTH 0 0
BBX 23 6 -2 19
BITMAP
C00006
E0001C
780038
1E01F0
0FFFE0
01FF00
ENDCHAR
STARTCHAR 035E
ENCODING 862
SWIDTH 0 0
DWIDTH 0 0
BBX 18 3 -3 19
BITMAP
FFFFC0
FFFFC0
FFFFC0
ENDCHAR
STARTCHAR 035F
ENCODING 863
SWIDTH 0 0
DWIDTH 0 0
BBX 18 3 -3 -5
BITMAP
FFFFC0
FFFFC0
FFFFC0
ENDCHAR
STARTCHAR 0360
ENCODING 864
SWIDTH 0 0
DWIDTH 0 0
BBX 23 4 -2 19
BITMAP
1FF00E
7FFFFE
FFFFFC
E01FF0
ENDCHAR
STARTCHAR 0361
ENCODING 865
SWIDTH 0 0
DWIDTH 0 0
BBX 23 6 -2 19
BITMAP
01FF00
0FFFE0
1E01F0
780038
E0001C
C00006
ENDCHAR
STARTCHAR 0362
ENCODING 866
SWIDTH 0 0
DWIDTH 0 0
BBX 17 4 -3 -6
BITMAP
000080
FFFF80
FFFF80
000080
ENDCHAR
STARTCHAR 0363
ENCODING 867
SWIDTH 0 0
DWIDTH 0 0
BBX 10 11 -5 7
BITMAP
3F00
7F80
E380
0180
07C0
7FC0
F980
E180
E380
FFC0
7DC0
ENDCHAR
STARTCHAR 0364
ENCODING 868
SWIDTH 0 0
DWIDTH 0 0
BBX 10 11 -5 7
BITMAP
1E00
7F80
7380
E1C0
FFC0
FFC0
E000
E1C0
7380
7F80
1F00
ENDCHAR
STARTCHAR 0365
ENCODING 869
SWIDTH 0 0
DWIDTH 0 0
BBX 2 15 -1 7
BITMAP
C0
C0
C0
00
C0
C0
C0
C0
C0
C0
C0
C0
C0
C0
C0
ENDCHAR
STARTCHAR 0366
ENCODING 870
SWIDTH 0 0
DWIDTH 0 0
BBX 12 11 -6 7
BITMAP
1F00
3FC0
71E0
70E0
E060
E070
E060
70E0
71E0
3FC0
1F00
ENDCHAR
STARTCHAR 0367
ENCODING 871
SWIDTH 0 0
DWIDTH 0 0
BBX 10 11 -5 7
BITMAP
E1C0
E1C0
E1C0
E1C0
E1C0
E1C0
E1C0
E1C0
E3C0
7FC0
3DC0
ENDCHAR
STARTCHAR 0368
ENCODING 872
SWIDTH 0 0
DWIDTH 0 0
BBX 10 11 -5 7
BITMAP
1F00
7F80
71C0
E1C0
E000
E000
E000
E1C0
71C0
7F80
1F00
ENDCHAR
STARTCHAR 0369
ENCODING 873
SWIDTH 0 0
DWIDTH 0 0
BBX 10 15 -5 7
BITMAP
01C0
01C0
01C0
01C0
3DC0
7FC0
F3C0
E1C0
E1C0
E1C0
E1C0
E1C0
F3C0
7FC0
3CC0
ENDCHAR
STARTCHAR 036A
ENCODING 874
SWIDTH 0 0
DWIDTH 0 0
BBX 10 15 -5 7
BITMAP
E000
E000
E000
E000
EF00
FF80
F1C0
E1C0
E1C0
E1C0
E1C0
E1C0
E1C0
E1C0
E1C0
ENDCHAR
STARTCHAR 036B
ENCODING 875
SWIDTH 0 0
DWIDTH 0 0
BBX 16 11 -8 7
BITMAP
EF3E
FFFE
F3C7
E3C7
E1C7
E187
E187
E187
E187
E187
E187
ENDCHAR
STARTCHAR 036C
ENCODING 876
SWIDTH 0 0
DWIDTH 0 0
BBX 6 11 -3 7
BITMAP
DC
FC
FC
E0
E0
C0
C0
C0
C0
C0
C0
ENDCHAR
STARTCHAR 036D
ENCODING 877
SWIDTH 0 0
DWIDTH 0 0
BBX 6 15 -3 7
BITMAP
10
30
70
70
FC
FC
70
70
70
70
70
70
70
7C
3C
ENDCHAR
STARTCHAR 036E
ENCODING 878
SWIDTH 0 0
DWIDTH 0 0
BBX 10 11 -5 7
BITMAP
E1C0
E1C0
E1C0
7380
7380
3300
3F00
3F00
1E00
1E00
0E00
ENDCHAR
STARTCHAR 036F
ENCODING 879
SWIDTH 0 0
DWIDTH 0 0
BBX 10 11 -5 7
BITMAP
E1C0
7380
7F80
3F00
1E00
1E00
3F00
3F00
7780
F3C0
E1C0
ENDCHAR
STARTCHAR 0374
ENCODING 884
SWIDTH 327 0
DWIDTH 10 0
BBX 6 5 3 19
BITMAP
3C
78
78
F0
E0
ENDCHAR
STARTCHAR 0375
ENCODING 885
SWIDTH 327 0
DWIDTH 10 0
BBX 6 5 1 -6
BITMAP
1C
1C
38
78
F8
ENDCHAR
STARTCHAR 037A
ENCODING 890
SWIDTH 327 0
DWIDTH 10 0
BBX 4 4 3 -6
BITMAP
70
F0
F0
F0
ENDCHAR
STARTCHAR 037B
ENCODING 891
SWIDTH 556 0
DWIDTH 17 0
BBX 15 16 1 0
BITMAP
0FC0
3FF0
7FF8
787C
F83C
703E
003E
001E
001E
003E
003E
F03C
F87C
7FF8
3FF0
0FC0
ENDCHAR
STARTCHAR 037C
ENCODING 892
SWIDTH 556 0
DWIDTH 17 0
BBX 15 16 1 0
BITMAP
07E0
1FF8
3FFC
7C3E
781E
781C
FBC0
FBC0
FBC0
FBC0
781C
781E
7C3E
3FFC
1FF8
07E0
ENDCHAR
STARTCHAR 037D
ENCODING 893
SWIDTH 556 0
DWIDTH 17 0
BBX 15 16 1 0
BITMAP
0FC0
3FF0
7FF8
787C
F83C
703E
07BE
079E
079E
07BE
703E
F03C
F87C
7FF8
3FF0
0FC0
ENDCHAR
STARTCHAR 037E
ENCODING 894
SWIDTH 327 0
DWIDTH 10 0
BBX 4 21 3 -5
BITMAP
F0
F0
F0
F0
00
00
00
00
00
00
00
00
F0
F0
F0
F0
30
30
70
E0
C0
ENDCHAR
STARTCHAR 0384
ENCODING 900
SWIDTH 327 0
DWIDTH 10 0
BBX 6 5 3 17
BITMAP
3C
78
78
F0
E0
ENDCHAR
STARTCHAR 0385
ENCODING 901
SWIDTH 458 0
DWIDTH 14 0
BBX 15 5 0 17
BITMAP
03C0
03C0
E79E
E71E
E71E
ENDCHAR
STARTCHAR 0386
ENCODING 902
SWIDTH 720 0
DWIDTH 22 0
BBX 22 22 0 0
BITMAP
3EFC00
7CFC00
78FC00
E1FE00
01FE00
01EF00
03CF00
03CF00
07C780
078780
0787C0
0F83C0
0F03E0
1FFFE0
1FFFE0
1FFFF0
3FFFF0
3C00F8
7C00F8
7C00F8
78007C
F8007C
ENDCHAR
STARTCHAR 0387
ENCODING 903
SWIDTH 327 0
DWIDTH 10 0
BBX 4 4 3 12
BITMAP
F0
F0
F0
F0
ENDCHAR
STARTCHAR 0388
ENCODING 904
SWIDTH 850 0
DWIDTH 26 0
BBX 26 22 -1 0
BITMAP
3E7FFF80
7C7FFF80
787FFF80
F07FFF80
00780000
00780000
00780000
00780000
00780000
007FFF80
007FFF80
007FFF80
007FFF80
00780000
00780000
00780000
00780000
00780000
007FFFC0
007FFFC0
007FFFC0
007FFFC0
ENDCHAR
STARTCHAR 0389
ENCODING 905
SWIDTH 916 0
DWIDTH 28 0
BBX 27 22 -1 0
BITMAP
3E7803E0
7C7803E0
787803E0
F07803E0
007803E0
007803E0
007803E0
007803E0
007803E0
007FFFE0
007FFFE0
007FFFE0
007FFFE0
007803E0
007803E0
007803E0
007803E0
007803E0
007803E0
007803E0
007803E0
007803E0
ENDCHAR
STARTCHAR 038A
ENCODING 906
SWIDTH 490 0
DWIDTH 15 0
BBX 13 22 -1 0
BITMAP
3E78
7C78
7878
F078
0078
0078
0078
0078
0078
0078
0078
0078
0078
0078
0078
0078
0078
0078
0078
0078
0078
0078
ENDCHAR
STARTCHAR 038C
ENCODING 908
SWIDTH 850 0
DWIDTH 26 0
BBX 25 22 -1 0
BITMAP
3E1FC000
7CFFF000
79FFFC00
E3FFFE00
07F07F00
07C01F00
0FC00F80
0F800F80
0F800F80
0F000780
0F000780
0F000780
0F000780
0F800F80
0F800F80
0FC00F80
07C01F00
07F07F00
03FFFE00
01FFFC00
00FFF800
001FC000
ENDCHAR
STARTCHAR 038E
ENCODING 910
SWIDTH 949 0
DWIDTH 29 0
BBX 29 22 -1 0
BITMAP
3F7E00F8
3C3E00F8
781F01F0
F01F01F0
000F83E0
0007C7C0
0007C7C0
0003EF80
0003EF00
0001FF00
0000FE00
0000FC00
00007C00
00007C00
00007C00
00007C00
00007C00
00007C00
00007C00
00007C00
00007C00
00007C00
ENDCHAR
STARTCHAR 038F
ENCODING 911
SWIDTH 850 0
DWIDTH 26 0
BBX 26 22 -1 0
BITMAP
3E1FC000
7CFFF800
F1FFFC00
E3FFFE00
07F07F00
07E01F00
0FC01F80
0F800F80
0F800F80
0F800F80
0F800780
0F800F80
0F800F80
07800F00
07800F00
03C01E00
01E03E00
01F87C00
0FFDFFC0
0FFDFFC0
0FFDFFC0
0FFDFFC0
ENDCHAR
STARTCHAR 0390
ENCODING 912
SWIDTH 294 0
DWIDTH 9 0
BBX 15 24 -3 0
BITMAP
03C0
03C0
F79E
F71E
F71E
0000
0000
0000
0780
0780
0780
0780
0780
0780
0780
0780
0780
0780
0780
0780
0780
0780
0780
0780
ENDCHAR
STARTCHAR 0391
ENCODING 913
SWIDTH 720 0
DWIDTH 22 0
BBX 22 22 0 0
BITMAP
00FC00
00FC00
00FC00
01FE00
01FE00
03DF00
03CF00
03CF00
078F80
078780
0787C0
0F03C0
0F03C0
1FFFE0
1FFFE0
1FFFF0
3FFFF0
3C00F0
7C00F8
7C00F8
78007C
F8007C
ENDCHAR
STARTCHAR 0392
ENCODING 914
SWIDTH 720 0
DWIDTH 22 0
BBX 19 22 2 0
BITMAP
FFFC00
FFFF00
FFFF80
FFFF80
F80FC0
F807C0
F807C0
F80780
F80F80
FFFF00
FFFE00
FFFF00
FFFFC0
F807C0
F803E0
F803E0
F803E0
F807E0
FFFFC0
FFFFC0
FFFF80
FFFE00
ENDCHAR
STARTCHAR 0393
ENCODING 915
SWIDTH 621 0
DWIDTH 19 0
BBX 16 22 2 0
BITMAP
FFFF
FFFF
FFFF
FFFF
F800
F800
F800
F800
F800
F800
F800
F800
F800
F800
F800
F800
F800
F800
F800
F800
F800
F800
ENDCHAR
STARTCHAR 0394
ENCODING 916
SWIDTH 720 0
DWIDTH 22 0
BBX 22 22 0 0
BITMAP
00FC00
00FC00
00FC00
01FE00
01FE00
03FF00
03FF00
03CF00
07CF80
078780
0787C0
0F87C0
0F03C0
1F03E0
1E01E0
1E01F0
3E01F0
3C00F0
7FFFF8
7FFFF8
7FFFFC
FFFFFC
ENDCHAR
STARTCHAR 0395
ENCODING 917
SWIDTH 687 0
DWIDTH 21 0
BBX 17 22 2 0
BITMAP
FFFF80
FFFF80
FFFF80
FFFF80
F80000
F80000
F80000
F80000
F80000
FFFF00
FFFF00
FFFF00
FFFF00
F80000
F80000
F80000
F80000
F80000
FFFF80
FFFF80
FFFF80
FFFF80
ENDCHAR
STARTCHAR 0396
ENCODING 918
SWIDTH 621 0
DWIDTH 19 0
BBX 18 22 0 0
BITMAP
3FFFC0
3FFFC0
3FFFC0
3FFF80
000F80
001F00
003E00
007C00
00F800
01F800
01F000
03E000
07C000
0F8000
1F8000
3F0000
3E0000
7C0000
FFFFC0
FFFFC0
FFFFC0
FFFFC0
ENDCHAR
STARTCHAR 0397
ENCODING 919
SWIDTH 720 0
DWIDTH 22 0
BBX 18 22 2 0
BITMAP
F803C0
F803C0
F803C0
F803C0
F803C0
F803C0
F803C0
F803C0
F803C0
FFFFC0
FFFFC0
FFFFC0
FFFFC0
F803C0
F803C0
F803C0
F803C0
F803C0
F803C0
F803C0
F803C0
F803C0
ENDCHAR
STARTCHAR 0398
ENCODING 920
SWIDTH 785 0
DWIDTH 24 0
BBX 22 22 1 0
BITMAP
01FE00
07FF80
0FFFC0
1FFFE0
3F03F0
7E01F8
7C00F8
7C0078
F8007C
F9FE7C
F9FE7C
F9FE7C
F9FE7C
F8007C
7C0078
7C00F8
7E01F8
3F83F0
1FFFE0
0FFFE0
07FF80
01FE00
ENDCHAR
STARTCHAR 0399
ENCODING 921
SWIDTH 294 0
DWIDTH 9 0
BBX 5 22 2 0
BITMAP
F8
F8
F8
F8
F8
F8
F8
F8
F8
F8
F8
F8
F8
F8
F8
F8
F8
F8
F8
F8
F8
F8
ENDCHAR
STARTCHAR 039A
ENCODING 922
SWIDTH 720 0
DWIDTH 22 0
BBX 20 22 2 0
BITMAP
F807E0
F80FC0
F81F80
F83F00
F87E00
F8FC00
F9FC00
FBF800
FFF000
FFF000
FFF800
FFF800
FF7C00
FE7E00
FC3E00
F81F00
F81F80
F80F80
F80FC0
F807E0
F803E0
F803F0
ENDCHAR
STARTCHAR 039B
ENCODING 923
SWIDTH 687 0
DWIDTH 21 0
BBX 20 22 0 0
BITMAP
00F800
01F800
01FC00
01FC00
03FC00
03FE00
03FE00
07DE00
079F00
079F00
0F8F80
0F0F80
1F0F80
1F07C0
1E07C0
3E03C0
3E03E0
3C03E0
7C01E0
7C01F0
7801F0
F800F0
ENDCHAR
STARTCHAR 039C
ENCODING 924
SWIDTH 850 0
DWIDTH 26 0
BBX 22 22 2 0
BITMAP
FE01FC
FE01FC
FF03FC
FF03FC
FF03FC
F707FC
F787FC
F787FC
F787FC
F38F7C
F3CF7C
F3CF7C
F3CE7C
F1FE7C
F1FE7C
F1FE7C
F1FC7C
F0FC7C
F0FC7C
F0FC7C
F0F87C
F0787C
ENDCHAR
STARTCHAR 039D
ENCODING 925
SWIDTH 720 0
DWIDTH 22 0
BBX 18 22 2 0
BITMAP
F803C0
FC03C0
FC03C0
FE03C0
FE03C0
FF03C0
FF83C0
F783C0
F7C3C0
F3C3C0
F1E3C0
F1E3C0
F0F3C0
F0FBC0
F07BC0
F03FC0
F03FC0
F01FC0
F01FC0
F00FC0
F007C0
F007C0
ENDCHAR
STARTCHAR 039E
ENCODING 926
SWIDTH 654 0
DWIDTH 20 0
BBX 16 22 2 0
BITMAP
FFFF
FFFF
FFFF
FFFF
0000
0000
0000
0000
0000
7FFE
7FFE
7FFE
7FFE
0000
0000
0000
0000
0000
FFFF
FFFF
FFFF
FFFF
ENDCHAR
STARTCHAR 039F
ENCODING 927
SWIDTH 785 0
DWIDTH 24 0
BBX 22 22 1 0
BITMAP
01FE00
07FF80
0FFFC0
1FFFE0
3F03F0
7E01F8
7C00F8
7C0078
78007C
F8007C
F8007C
F8007C
F8007C
78007C
7C0078
7C00F8
7E01F8
3F83F0
1FFFF0
0FFFE0
07FF80
01FE00
ENDCHAR
STARTCHAR 03A0
ENCODING 928
SWIDTH 720 0
DWIDTH 22 0
BBX 18 22 2 0
BITMAP
FFFFC0
FFFFC0
FFFFC0
FFFFC0
F803C0
F803C0
F803C0
F803C0
F803C0
F803C0
F803C0
F803C0
F803C0
F803C0
F803C0
F803C0
F803C0
F803C0
F803C0
F803C0
F803C0
F803C0
ENDCHAR
STARTCHAR 03A1
ENCODING 929
SWIDTH 687 0
DWIDTH 21 0
BBX 17 22 2 0
BITMAP
FFF800
FFFE00
FFFF00
FFFF80
F81F80
F80F80
F80780
F80780
F80F80
F81F80
FFFF00
FFFF00
FFFE00
FFF800
F80000
F80000
F80000
F80000
F80000
F80000
F80000
F80000
ENDCHAR
STARTCHAR 03A3
ENCODING 931
SWIDTH 621 0
DWIDTH 19 0
BBX 16 22 1 0
BITMAP
7FFF
7FFF
7FFF
7FFF
7E00
3E00
1F00
0F80
0FC0
07E0
03F0
03E0
07C0
0F80
1F80
3F00
3E00
7C00
FFFF
FFFF
FFFF
FFFF
ENDCHAR
STARTCHAR 03A4
ENCODING 932
SWIDTH 621 0
DWIDTH 19 0
BBX 17 22 1 0
BITMAP
FFFF80
FFFF80
FFFF80
FFFF80
03E000
03E000
03E000
03E000
03E000
03E000
03E000
03E000
03E000
03E000
03E000
03E000
03E000
03E000
03E000
03E000
03E000
03E000
ENDCHAR
STARTCHAR 03A5
ENCODING 933
SWIDTH 687 0
DWIDTH 21 0
BBX 20 22 0 0
BITMAP
FC01F0
7C01F0
3E03E0
3E07C0
1F07C0
1F0F80
0F8F80
07DF00
07DE00
03FE00
01FC00
01F800
00F800
00F800
00F800
00F800
00F800
00F800
00F800
00F800
00F800
00F800
ENDCHAR
STARTCHAR 03A6
ENCODING 934
SWIDTH 818 0
DWIDTH 25 0
BBX 23 22 1 0
BITMAP
007C00
007C00
03FF80
0FFFE0
1FFFF8
3FFFFC
7F7CFC
7C7C7E
F87C3E
F87C3E
F87C1E
F87C3E
787C3E
7C7C7E
7E7CFC
3FFFF8
1FFFF8
0FFFE0
03FF80
007C00
007C00
007C00
ENDCHAR
STARTCHAR 03A7
ENCODING 935
SWIDTH 687 0
DWIDTH 21 0
BBX 20 22 0 0
BITMAP
7C03F0
3E03E0
3F07C0
1F0FC0
0F8F80
0FDF00
07FF00
03FE00
03FC00
01FC00
00F800
01FC00
03FC00
03FE00
07FF00
0FDF00
0F8F80
1F0FC0
3F07C0
3E03E0
7C03F0
FC01F0
ENDCHAR
STARTCHAR 03A8
ENCODING 936
SWIDTH 818 0
DWIDTH 25 0
BBX 23 22 1 0
BITMAP
F87C3E
F87C3E
F87C3E
F87C3E
F87C3E
F87C3E
F87C3E
F87C3E
F87C3E
787C3E
7C7C7C
7E7CFC
3FFFFC
3FFFF8
0FFFF0
03FF80
007C00
007C00
007C00
007C00
007C00
007C00
ENDCHAR
STARTCHAR 03A9
ENCODING 937
SWIDTH 818 0
DWIDTH 25 0
BBX 22 22 1 0
BITMAP
00FE00
07FFC0
0FFFE0
1FFFF0
3F83F8
3E01F8
7E00FC
7C007C
7C007C
7C007C
78007C
78007C
7C007C
3C0078
3C00F8
1E00F0
1F01E0
0F87E0
FFEFFC
FFEFFC
FFEFFC
FFEFFC
ENDCHAR
STARTCHAR 03AA
ENCODING 938
SWIDTH 294 0
DWIDTH 9 0
BBX 10 27 -1 0
BITMAP
F1C0
F1C0
F1C0
0000
0000
1F00
1F00
1F00
1F00
1F00
1F00
1F00
1F00
1F00
1F00
1F00
1F00
1F00
1F00
1F00
1F00
1F00
1F00
1F00
1F00
1F00
1F00
ENDCHAR
STARTCHAR 03AB
ENCODING 939
SWIDTH 687 0
DWIDTH 21 0
BBX 20 27 0 0
BITMAP
078E00
078E00
078E00
000000
000000
FC01F0
7C01F0
3E03E0
3E07C0
1F07C0
1F0F80
0F8F80
07DF00
07DE00
03FE00
01FC00
01F800
00F800
00F800
00F800
00F800
00F800
00F800
00F800
00F800
00F800
00F800
ENDCHAR
STARTCHAR 03AC
ENCODING 940
SWIDTH 621 0
DWIDTH 19 0
BBX 17 24 1 0
BITMAP
007800
00F000
00F000
01E000
01C000
000000
000000
000000
0FC780
1FE700
3FF700
7C7F00
783F00
F81E00
F81E00
F81E00
F81E00
F81E00
781E00
783E00
7C3F00
3FF700
1FE700
07C780
ENDCHAR
STARTCHAR 03AD
ENCODING 941
SWIDTH 490 0
DWIDTH 15 0
BBX 13 24 1 0
BITMAP
03C0
0780
0780
0F00
0E00
0000
0000
0000
0FC0
3FF8
7FF0
7860
7800
7C00
3F80
1F80
7F80
7800
F800
F820
F8F0
7FF8
3FF0
0FC0
ENDCHAR
STARTCHAR 03AE
ENCODING 942
SWIDTH 621 0
DWIDTH 19 0
BBX 15 30 2 -6
BITMAP
01E0
03C0
03C0
0780
0700
0000
0000
0000
F1F0
F7F8
FFFC
FC7E
F83E
F83E
F83E
F01E
F01E
F01E
F01E
F01E
F01E
F01E
F01E
F01E
001E
001E
001E
001E
001E
001E
ENDCHAR
STARTCHAR 03AF
ENCODING 943
SWIDTH 294 0
DWIDTH 9 0
BBX 6 24 2 0
BITMAP
3C
78
78
F0
E0
00
00
00
F0
F0
F0
F0
F0
F0
F0
F0
F0
F0
F0
F0
F0
F0
F0
F0
ENDCHAR
STARTCHAR 03B0
ENCODING 944
SWIDTH 589 0
DWIDTH 18 0
BBX 15 24 2 0
BITMAP
03C0
03C0
E79E
E71E
E71E
0000
0000
0000
F03C
F03C
F03C
F03C
F03C
F03C
F03C
F03C
F03C
F03C
F03C
F07C
7878
7FF8
3FF0
0FC0
ENDCHAR
STARTCHAR 03B1
ENCODING 945
SWIDTH 621 0
DWIDTH 19 0
BBX 17 16 1 0
BITMAP
0FC780
1FE700
3FF700
7C7F00
783F00
F81E00
F81E00
F81E00
F81E00
F81E00
781E00
783E00
7C3F00
3FF700
1FE700
07C780
ENDCHAR
STARTCHAR 03B2
ENCODING 946
SWIDTH 621 0
DWIDTH 19 0
BBX 16 28 2 -6
BITMAP
07E0
1FF8
3FFC
7C7C
783C
F83E
F83C
F03C
F078
F3F0
F3F8
F07C
F03E
F01E
F81F
F81F
F81F
FC1F
FE3E
F7FE
F3FC
F1F0
F000
F000
F000
F000
F000
F000
ENDCHAR
STARTCHAR 03B3
ENCODING 947
SWIDTH 556 0
DWIDTH 17 0
BBX 17 22 0 -6
BITMAP
F80F80
780F00
780F00
3C1F00
3C1E00
3C1E00
1E3C00
1E3C00
0E3C00
0F7800
0F7800
077800
07F000
03F000
03E000
03E000
03E000
03E000
03E000
03E000
03E000
03E000
ENDCHAR
STARTCHAR 03B4
ENCODING 948
SWIDTH 621 0
DWIDTH 19 0
BBX 17 22 1 0
BITMAP
3FFE00
3FFE00
3FFE00
1F0000
0FC000
07E000
0FF000
1FFC00
3FFE00
7E3F00
781F00
F80F00
F00F80
F00780
F00F80
F00F00
780F00
781F00
3C3E00
3FFE00
1FFC00
07F000
ENDCHAR
STARTCHAR 03B5
ENCODING 949
SWIDTH 490 0
DWIDTH 15 0
BBX 13 16 1 0
BITMAP
0FC0
3FF8
7FF0
7860
7800
7C00
3F80
1F80
7F80
7800
F800
F820
F8F0
7FF8
3FF0
0FC0
ENDCHAR
STARTCHAR 03B6
ENCODING 950
SWIDTH 458 0
DWIDTH 14 0
BBX 13 28 1 -6
BITMAP
3FF8
3FF8
3FF8
01F0
03C0
0780
0F00
1E00
1E00
3C00
7C00
7800
7800
F000
F000
F000
F800
F800
7F80
7FE0
3FF0
0FF0
00F8
00F8
00F0
03F0
03E0
0780
ENDCHAR
STARTCHAR 03B7
ENCODING 951
SWIDTH 621 0
DWIDTH 19 0
BBX 15 22 2 -6
BITMAP
F1F0
F7F8
FFFC
FC7E
F83E
F83E
F83E
F01E
F01E
F01E
F01E
F01E
F01E
F01E
F01E
F01E
001E
001E
001E
001E
001E
001E
ENDCHAR
STARTCHAR 03B8
ENCODING 952
SWIDTH 556 0
DWIDTH 17 0
BBX 15 22 1 0
BITMAP
07C0
1FF0
3FF8
3C78
783C
783C
783C
F83C
F83C
FFFE
FFFE
FFFE
F83E
F83C
F83C
783C
783C
787C
7C78
3FF8
1FF0
07C0
ENDCHAR
STARTCHAR 03B9
ENCODING 953
SWIDTH 294 0
DWIDTH 9 0
BBX 4 16 2 0
BITMAP
F0
F0
F0
F0
F0
F0
F0
F0
F0
F0
F0
F0
F0
F0
F0
F0
ENDCHAR
STARTCHAR 03BA
ENCODING 954
SWIDTH 556 0
DWIDTH 17 0
BBX 15 16 2 0
BITMAP
F07C
F0F8
F1F0
F3E0
F7C0
FF80
FF00
FF80
FF80
FFC0
FBE0
F1F0
F1F0
F0F8
F07C
F03E
ENDCHAR
STARTCHAR 03BB
ENCODING 955
SWIDTH 556 0
DWIDTH 17 0
BBX 17 22 0 0
BITMAP
0F0000
078000
078000
07C000
03C000
03C000
03E000
03E000
07F000
07F000
077000
0F7800
0F7800
1E3C00
1E3C00
1E3C00
3C1E00
3C1E00
3C1F00
780F00
780F00
F80F80
ENDCHAR
STARTCHAR 03BC
ENCODING 956
SWIDTH 621 0
DWIDTH 19 0
BBX 15 22 2 -6
BITMAP
F01E
F01E
F01E
F01E
F01E
F01E
F01E
F01E
F03E
F83E
F83E
F83E
FC7E
FFFE
F7FE
F39E
F000
F000
F000
F000
F000
F000
ENDCHAR
STARTCHAR 03BD
ENCODING 957
SWIDTH 556 0
DWIDTH 17 0
BBX 17 16 0 0
BITMAP
F80F80
780F00
7C0F00
3C1E00
3C1E00
3E3E00
1E3C00
1E3C00
0F7800
0F7800
0F7800
07F000
07F000
03E000
03E000
03E000
ENDCHAR
STARTCHAR 03BE
ENCODING 958
SWIDTH 458 0
DWIDTH 14 0
BBX 13 29 1 -6
BITMAP
0FE0
3FE0
3FE0
7E00
7800
7800
7800
3C00
3FE0
0FE0
0FE0
1F00
3C00
7800
7800
F800
F800
F800
F800
7E00
7FC0
3FF0
07F0
00F8
00F8
00F8
03F0
03E0
0780
ENDCHAR
STARTCHAR 03BF
ENCODING 959
SWIDTH 621 0
DWIDTH 19 0
BBX 17 16 1 0
BITMAP
07F000
1FFC00
3FFE00
7E3F00
7C1F00
780F00
F80F80
F80F80
F80F80
F80F80
780F00
7C1F00
7E3F00
3FFE00
1FFC00
07F000
ENDCHAR
STARTCHAR 03C0
ENCODING 960
SWIDTH 785 0
DWIDTH 24 0
BBX 22 16 1 0
BITMAP
FFFFFC
FFFFFC
FFFFFC
0F07C0
0F07C0
0F07C0
0F07C0
0F07C0
0F07C0
0F07C0
0F07C0
0F07C0
0F07C0
0F07C0
0F07C0
0F07C0
ENDCHAR
STARTCHAR 03C1
ENCODING 961
SWIDTH 621 0
DWIDTH 19 0
BBX 16 22 2 -6
BITMAP
07E0
1FF8
3FFC
7C3E
F81E
F01F
F00F
F00F
F00F
F01F
F01F
F81E
FC3E
FFFC
FFF8
F3E0
F000
F000
F000
F000
F000
F000
ENDCHAR
STARTCHAR 03C2
ENCODING 962
SWIDTH 523 0
DWIDTH 16 0
BBX 14 22 1 -6
BITMAP
01FC
07FC
1FFC
3F00
3C00
7800
7800
F000
F000
F000
F000
7800
7E00
3FC0
1FF8
07FC
007C
003C
007C
07FC
07F8
07E0
ENDCHAR
STARTCHAR 03C3
ENCODING 963
SWIDTH 687 0
DWIDTH 21 0
BBX 19 16 1 0
BITMAP
07FFE0
1FFFE0
3FFFE0
7E3F00
7C1F00
780F80
F80F80
F80F80
F80F80
F80F80
F80F00
7C1F00
7E3E00
3FFC00
1FF800
07E000
ENDCHAR
STARTCHAR 03C4
ENCODING 964
SWIDTH 458 0
DWIDTH 14 0
BBX 12 16 1 0
BITMAP
FFF0
FFF0
FFF0
0F00
0F00
0F00
0F00
0F00
0F00
0F00
0F00
0F00
0F00
0F00
0F00
0F00
ENDCHAR
STARTCHAR 03C5
ENCODING 965
SWIDTH 589 0
DWIDTH 18 0
BBX 14 16 2 0
BITMAP
F03C
F03C
F03C
F03C
F03C
F03C
F03C
F03C
F03C
F03C
F03C
F07C
7878
7FF8
3FF0
0FC0
ENDCHAR
STARTCHAR 03C6
ENCODING 966
SWIDTH 720 0
DWIDTH 22 0
BBX 20 22 1 -6
BITMAP
0F3E00
1E7F80
3EFFC0
7EFBE0
7CF1E0
F8F1F0
F8F0F0
F8F0F0
F8F1F0
F8F1F0
78F1F0
7CF3E0
3EF7C0
1FFFC0
0FFF00
03FC00
00F000
00F000
00F000
00F000
00F000
00F000
ENDCHAR
STARTCHAR 03C7
ENCODING 967
SWIDTH 589 0
DWIDTH 18 0
BBX 16 22 1 -6
BITMAP
F81F
F81E
7C3E
7C3C
3E7C
1E78
1EF8
0FF0
0FF0
07E0
07E0
07E0
07E0
0FF0
1FF0
1EF8
3E7C
3C7C
7C3E
783E
F81F
F00F
ENDCHAR
STARTCHAR 03C8
ENCODING 968
SWIDTH 752 0
DWIDTH 23 0
BBX 20 22 2 -6
BITMAP
F0F1F0
F0F1F0
F0F1F0
F0F1F0
F0F1F0
F0F1F0
F0F1F0
F0F1F0
F0F1F0
F0F1E0
F0F1E0
F8F1E0
7CF3E0
7FFFC0
3FFF80
07FE00
00F000
00F000
00F000
00F000
00F000
00F000
ENDCHAR
STARTCHAR 03C9
ENCODING 969
SWIDTH 850 0
DWIDTH 26 0
BBX 24 16 1 0
BITMAP
3C003C
3C003C
7C001E
78001E
783C1E
F83C1F
F83C0F
F83C0F
F83C0F
F83C0F
F83C1F
783C1E
7C7E3E
3FFFFC
1FE7F8
0FC1F0
ENDCHAR
STARTCHAR 03CA
ENCODING 970
SWIDTH 294 0
DWIDTH 9 0
BBX 10 22 -1 0
BITMAP
F1C0
F1C0
F1C0
0000
0000
0000
1E00
1E00
1E00
1E00
1E00
1E00
1E00
1E00
1E00
1E00
1E00
1E00
1E00
1E00
1E00
1E00
ENDCHAR
STARTCHAR 03CB
ENCODING 971
SWIDTH 589 0
DWIDTH 18 0
BBX 14 22 2 0
BITMAP
3C70
3C70
3C70
0000
0000
0000
F03C
F03C
F03C
F03C
F03C
F03C
F03C
F03C
F03C
F03C
F03C
F07C
7878
7FF8
3FF0
0FC0
ENDCHAR
STARTCHAR 03CC
ENCODING 972
SWIDTH 621 0
DWIDTH 19 0
BBX 17 24 1 0
BITMAP
00F000
01E000
01E000
03C000
038000
000000
000000
000000
07F000
1FFC00
3FFE00
7E3F00
7C1F00
780F00
F80F80
F80F80
F80F80
F80F80
780F00
7C1F00
7E3F00
3FFE00
1FFC00
07F000
ENDCHAR
STARTCHAR 03CD
ENCODING 973
SWIDTH 589 0
DWIDTH 18 0
BBX 14 24 2 0
BITMAP
01E0
03C0
03C0
0780
0700
0000
0000
0000
F03C
F03C
F03C
F03C
F03C
F03C
F03C
F03C
F03C
F03C
F03C
F07C
7878
7FF8
3FF0
0FC0
ENDCHAR
STARTCHAR 03CE
ENCODING 974
SWIDTH 850 0
DWIDTH 26 0
BBX 24 24 1 0
BITMAP
001E00
003C00
003C00
007800
007000
000000
000000
000000
3C003C
3C003C
7C001E
78001E
783C1E
F83C1F
F83C0F
F83C0F
F83C0F
F83C0F
F83C1F
783C1E
7C7E3E
3FFFFC
1FE7F8
0FC1F0
ENDCHAR
STARTCHAR 03D0
ENCODING 976
SWIDTH 621 0
DWIDTH 19 0
BBX 15 22 2 0
BITMAP
07E0
1FF8
3FF8
7C3C
7C3C
FFF8
FFF8
F7E0
F000
F3E0
FFF8
FFFC
FC3E
F81E
F81E
F81E
F81E
781E
7C3E
3FFC
1FF8
07E0
ENDCHAR
STARTCHAR 03D1
ENCODING 977
SWIDTH 589 0
DWIDTH 18 0
BBX 18 22 0 0
BITMAP
01F800
07FC00
07FE00
0F1F00
0F0F00
0F0F00
0F0F00
0F8F00
07FFC0
03FFC0
00FFC0
780F00
FE0F00
7E0F00
1E0F00
1E0F00
1C1E00
3C1E00
3E3C00
1FFC00
1FF800
07E000
ENDCHAR
STARTCHAR 03D2
ENCODING 978
SWIDTH 785 0
DWIDTH 24 0
BBX 24 22 0 0
BITMAP
F800F0
7C01FC
3E03FE
3E03FF
1F07CE
1F0FC0
0F8F80
079F00
07DF00
03FE00
01FC00
01FC00
00F800
00F800
00F800
00F800
00F800
00F800
00F800
00F800
00F800
00F800
ENDCHAR
STARTCHAR 03D3
ENCODING 979
SWIDTH 1014 0
DWIDTH 31 0
BBX 31 22 0 0
BITMAP
3DF001E0
78F803F8
787C07FC
F07C07FE
E03E0F9C
003E1F80
001F1F00
000F3E00
000FBE00
0007FC00
0003F800
0003F800
0001F000
0001F000
0001F000
0001F000
0001F000
0001F000
0001F000
0001F000
0001F000
0001F000
ENDCHAR
STARTCHAR 03D4
ENCODING 980
SWIDTH 785 0
DWIDTH 24 0
BBX 24 27 0 0
BITMAP
078E00
078E00
078E00
000000
000000
F800F0
7C01FC
3E03FE
3E03FF
1F07CE
1F0FC0
0F8F80
079F00
07DF00
03FE00
01FC00
01FC00
00F800
00F800
00F800
00F800
00F800
00F800
00F800
00F800
00F800
00F800
ENDCHAR
STARTCHAR 03D5
ENCODING 981
SWIDTH 752 0
DWIDTH 23 0
BBX 21 28 1 -6
BITMAP
00F800
00F800
00F800
00F800
00F800
00F800
07FF00
1FFFC0
3FFFE0
7EF9F0
7CF8F0
78F8F8
F8F8F8
F8F878
F8F878
F8F8F8
78F8F8
7CF8F0
7EF9F0
3FFFE0
1FFFC0
07FF00
00F800
00F800
00F800
00F800
00F800
00F800
ENDCHAR
STARTCHAR 03D6
ENCODING 982
SWIDTH 850 0
DWIDTH 26 0
BBX 24 16 1 0
BITMAP
FFFFFF
FFFFFF
FFFFFF
78001E
78001F
F8001F
F83C0F
F83C0F
F83C0F
F83C0F
F83C1F
783E1E
7C7E3E
3FFFFC
1FE7F8
0FC1F0
ENDCHAR
STARTCHAR 03D7
ENCODING 983
SWIDTH 687 0
DWIDTH 21 0
BBX 21 23 0 -7
BITMAP
F803F0
7C07E0
7E07C0
1F0FC0
0F1F80
0F3F80
0F7F80
0FFF80
0FFF80
0FF780
0FE780
0FC780
1F87C0
1F83F8
3F03F8
7E01F8
0000F8
0000F8
0000F8
0000F0
0007F0
0007E0
0007C0
ENDCHAR
STARTCHAR 03D8
ENCODING 984
SWIDTH 785 0
DWIDTH 24 0
BBX 22 28 1 -6
BITMAP
01FE00
07FF80
0FFFC0
1FFFE0
3F03F0
7E01F8
7C00F8
7C0078
78007C
F8007C
F8007C
F8007C
F8007C
F8007C
7C007C
7C00F8
7E01F8
3F03F0
1FFFF0
0FFFE0
07FF80
01FE00
007800
007800
007800
007800
007800
007800
ENDCHAR
STARTCHAR 03D9
ENCODING 985
SWIDTH 621 0
DWIDTH 19 0
BBX 17 22 1 -6
BITMAP
07F000
1FFC00
3FFE00
3E3F00
7C1F00
780F00
F80F80
F80F80
F80F80
F80F80
780F80
7C1F00
7E3F00
3FFE00
1FFC00
07F000
03E000
03E000
03E000
03E000
03E000
03E000
ENDCHAR
STARTCHAR 03DA
ENCODING 986
SWIDTH 720 0
DWIDTH 22 0
BBX 19 22 2 0
BITMAP
03F800
0FFF00
3FFF80
7FFFC0
7E0FC0
FC03E0
F80380
F80000
F00000
F00000
F80000
F80000
FC0000
7E0000
7FF000
3FF000
1FF000
07F000
00F000
00F000
00F000
00F000
ENDCHAR
STARTCHAR 03DB
ENCODING 987
SWIDTH 556 0
DWIDTH 17 0
BBX 15 22 1 -6
BITMAP
07E0
1FF8
3FFC
7C3E
781E
781C
F800
F800
F800
F800
7C00
7E00
3FC0
3FF8
0FFC
01FE
003E
001E
103E
3FFC
3FF8
1FE0
ENDCHAR
STARTCHAR 03DC
ENCODING 988
SWIDTH 621 0
DWIDTH 19 0
BBX 16 22 2 0
BITMAP
FFFF
FFFF
FFFF
FFFF
F800
F800
F800
F800
F800
FFFC
FFFC
FFFC
FFFC
F83C
F83C
F83C
F800
F800
F800
F800
F800
F800
ENDCHAR
STARTCHAR 03DD
ENCODING 989
SWIDTH 458 0
DWIDTH 14 0
BBX 11 22 2 -6
BITMAP
FFE0
FFE0
FFE0
F000
F000
F000
F000
F000
FFC0
FFC0
FFC0
F1C0
F1C0
F000
F000
F000
F000
F000
F000
F000
F000
F000
ENDCHAR
STARTCHAR 03DE
ENCODING 990
SWIDTH 752 0
DWIDTH 23 0
BBX 23 22 0 0
BITMAP
F80000
FE0000
FF0000
FF0000
0F0008
0F0038
0F00F8
0F03F8
0F0FF8
1F3FF0
1FFFF0
1FFEF0
1FF8F0
1FE1F0
1F81F0
3E01E0
3801E0
2001F0
0001FE
0001FE
0000FE
00003E
ENDCHAR
STARTCHAR 03DF
ENCODING 991
SWIDTH 523 0
DWIDTH 16 0
BBX 16 22 0 0
BITMAP
0700
0E00
0E00
0E00
1C00
1C00
1C00
3800
3800
7FFF
7FFF
7FFE
FFFE
000E
001C
001C
0038
0038
0038
0070
0070
0070
ENDCHAR
STARTCHAR 03E0
ENCODING 992
SWIDTH 818 0
DWIDTH 25 0
BBX 24 28 0 -6
BITMAP
03F800
0FFE00
3FFF80
7FCFC0
FFC3E0
F7C1F0
67C0F8
47C0F8
07C1FC
07C7FC
000FFE
000F3E
001F3E
001E1E
001E1F
001E1F
001E1F
001E1F
001E1F
001E1F
001E1F
001E1E
00001E
00003C
0000FC
007FF8
003FE0
003F00
ENDCHAR
STARTCHAR 03E1
ENCODING 993
SWIDTH 621 0
DWIDTH 19 0
BBX 17 28 1 -6
BITMAP
200000
7C0000
FF0000
7F8000
1FC000
07F000
03F800
00F800
03FC00
0FFE00
1FBE00
1E3F00
081F00
003F00
00FF00
03FF80
03EF80
038F80
000F80
000F80
000F80
000F80
000F80
000F80
000F00
000F00
000F00
001800
ENDCHAR
STARTCHAR 03E2
ENCODING 994
SWIDTH 1014 0
DWIDTH 31 0
BBX 26 28 2 -6
BITMAP
F81F03C0
F81F03C0
F81F03C0
F81F03C0
F81F03C0
F81F03C0
F81F03C0
F81F03C0
F81F03C0
F81F03C0
F81F03C0
F81F03C0
F81F03C0
F81F03C0
F81F03C0
F81F03C0
F83F07C0
FC7F8FC0
7FFFFFC0
7FFFFFC0
3FE7FBC0
1F83F3C0
000003C0
000003C0
FFFFFFC0
FFFFFFC0
FFFFFF80
FFFFFF00
ENDCHAR
STARTCHAR 03E3
ENCODING 995
SWIDTH 916 0
DWIDTH 28 0
BBX 24 22 2 -6
BITMAP
F03C1F
F03C1F
F03C1F
F03C1F
F03C1F
F03C1F
F03C1F
F03C1F
F03C1F
F03C1F
F07C1F
F07C1F
F8FE3F
7FFFFF
7F9FFF
1F0F9F
00001F
00001F
FFFFFE
FFFFFE
FFFFFE
FFFFF8
ENDCHAR
STARTCHAR 03E4
ENCODING 996
SWIDTH 720 0
DWIDTH 22 0
BBX 17 22 2 0
BITMAP
07E780
1FE780
3FC780
7FC780
FC0780
F80780
F00780
F00780
F80780
F80780
FC1F80
7FFF80
7FFF80
3FFF80
0FE780
000780
000780
000780
000780
000780
000780
000780
ENDCHAR
STARTCHAR 03E5
ENCODING 997
SWIDTH 621 0
DWIDTH 19 0
BBX 15 22 2 0
BITMAP
3FBE
7F3E
FF3E
F83E
F03E
F03E
F03E
F03E
F03E
F03E
F03E
F83E
F87E
7FFE
7FFE
1F3E
003E
003E
003E
003E
003E
003E
ENDCHAR
STARTCHAR 03E6
ENCODING 998
SWIDTH 720 0
DWIDTH 22 0
BBX 18 28 2 -6
BITMAP
F80000
F80000
F80000
F80000
F80000
F80000
F80000
F80000
F9F800
FFFE00
FFFF00
FFFF80
FC1F80
F80F80
F807C0
F807C0
F807C0
F807C0
F807C0
F807C0
F807C0
F80780
000F80
003F80
FFFF00
FFFE00
FFFC00
FFF000
ENDCHAR
STARTCHAR 03E7
ENCODING 999
SWIDTH 621 0
DWIDTH 19 0
BBX 18 17 0 0
BITMAP
000100
07F380
1FFFC0
3FFF80
3E3F00
3C1F00
3C7F80
3FFF80
1FFF80
0FCF80
000F80
000F80
3C0F00
7F1F00
7FFE00
F3FC00
F1F000
ENDCHAR
STARTCHAR 03E8
ENCODING 1000
SWIDTH 687 0
DWIDTH 21 0
BBX 17 22 2 0
BITMAP
07F000
1FFC00
7FFF00
7FFF00
FC1F80
F80F80
000F80
001F80
00FF00
0FFE00
3FFC00
7FF000
FF8100
F80F00
F00F80
F00F80
F00F80
FC1F80
FFFF00
7FFE00
3FFC00
0FF000
ENDCHAR
STARTCHAR 03E9
ENCODING 1001
SWIDTH 687 0
DWIDTH 21 0
BBX 17 22 2 0
BITMAP
07F000
1FFC00
7FFF00
7FFF00
FC1F80
F80F80
000F80
001F80
00FF00
0FFE00
3FFC00
7FF000
FF8000
F80000
F00000
F00000
F00300
FC0F00
FFFF00
7FFF80
3FFF00
0FF800
ENDCHAR
STARTCHAR 03EA
ENCODING 1002
SWIDTH 654 0
DWIDTH 20 0
BBX 20 22 0 0
BITMAP
3F0F80
FF9FF0
7FBFE0
7FFFE0
47FE20
03FC00
03FC00
01F800
01F800
01F800
03FC00
03FC00
07FE00
07FE00
0F9F00
0F9F00
1F0F80
1F0F80
1FFF80
1FFF80
1FFF80
1FFF80
ENDCHAR
STARTCHAR 03EB
ENCODING 1003
SWIDTH 621 0
DWIDTH 19 0
BBX 18 16 0 0
BITMAP
7E0F80
FF3FC0
7FBFC0
47FC40
07F800
03F800
01F000
03F800
07F800
07FC00
0FBE00
1F3F00
3F1F00
3FFF80
3FFF80
3FFF80
ENDCHAR
STARTCHAR 03EC
ENCODING 1004
SWIDTH 752 0
DWIDTH 23 0
BBX 20 22 1 0
BITMAP
003FC0
01FFC0
07FFC0
0FFFC0
1F8000
3E0000
7DFC00
7FFF80
7FFFC0
FFFFE0
FF07F0
FC01F0
F801F0
F800F0
7800F0
7801F0
7C01F0
7F07F0
3FFFE0
1FFFC0
0FFF80
01FC00
ENDCHAR
STARTCHAR 03ED
ENCODING 1005
SWIDTH 589 0
DWIDTH 18 0
BBX 16 16 1 0
BITMAP
01FF
0FFF
1FFF
3F00
7C00
FBF8
FBFC
FBFE
F81E
F81F
F81F
781F
7C3E
3FFE
1FFC
07F0
ENDCHAR
STARTCHAR 03EE
ENCODING 1006
SWIDTH 523 0
DWIDTH 16 0
BBX 15 22 0 0
BITMAP
03C0
03C0
03C0
03C0
03C0
3FF8
7FFE
7FFE
E3C6
E3C6
E3C6
C3C6
03C0
03C0
03C0
03C0
03C0
03C0
03C0
03C0
03C0
03C0
ENDCHAR
STARTCHAR 03EF
ENCODING 1007
SWIDTH 458 0
DWIDTH 14 0
BBX 12 22 1 0
BITMAP
0800
0F00
0FC0
0F00
0F00
0F00
FFF0
FFF0
FFF0
CF00
8F00
0F00
0F00
0F00
0F00
0F00
0F00
0F00
0F00
3F00
0F00
0100
ENDCHAR
STARTCHAR 03F0
ENCODING 1008
SWIDTH 687 0
DWIDTH 21 0
BBX 21 16 0 0
BITMAP
F803F0
7C07E0
7E07C0
1F0FC0
0F1F80
0F3F80
0F7F80
0FFF80
0FFF80
0FF780
0FE780
0FC780
1F87C0
1F83F0
3F03F0
7E00F8
ENDCHAR
STARTCHAR 03F1
ENCODING 1009
SWIDTH 621 0
DWIDTH 19 0
BBX 17 22 1 -6
BITMAP
07E000
1FF800
3FFE00
3E3E00
7C1F00
780F00
780F80
F80F80
F80F80
F80F80
F80F00
FC1F00
FE3F00
6FFE00
67FC00
73F000
700000
3C0000
3FFC00
0FFE00
03FF00
000700
ENDCHAR
STARTCHAR 03F2
ENCODING 1010
SWIDTH 556 0
DWIDTH 17 0
BBX 15 16 1 0
BITMAP
07E0
1FF8
3FFC
7C3E
781E
7818
F800
F800
F800
F800
7818
781E
7C3E
3FFC
1FF8
07E0
ENDCHAR
STARTCHAR 03F3
ENCODING 1011
SWIDTH 294 0
DWIDTH 9 0
BBX 7 28 -1 -6
BITMAP
1E
1E
1E
00
00
00
1E
1E
1E
1E
1E
1E
1E
1E
1E
1E
1E
1E
1E
1E
1E
1E
1E
1E
1E
FE
FC
F8
ENDCHAR
STARTCHAR 03F4
ENCODING 1012
SWIDTH 785 0
DWIDTH 24 0
BBX 22 22 1 0
BITMAP
01FE00
07FF80
0FFFC0
1FFFE0
3F03F0
7E01F8
7C00F8
780078
F8007C
FFFFFC
FFFFFC
FFFFFC
FFFFFC
F8007C
780078
7C00F8
7E01F8
3F03F0
1FFFE0
0FFFE0
07FF80
01FE00
ENDCHAR
STARTCHAR 03F5
ENCODING 1013
SWIDTH 490 0
DWIDTH 15 0
BBX 13 16 1 0
BITMAP
07F8
1FF8
3FF8
7C00
7800
F800
FF80
FF80
FF80
F800
F800
7800
7C00
3FF8
1FF8
07F8
ENDCHAR
STARTCHAR 03F6
ENCODING 1014
SWIDTH 490 0
DWIDTH 15 0
BBX 13 16 1 0
BITMAP
FF00
FFC0
FFE0
01F0
00F0
00F0
0FF8
0FF8
0FF8
00F8
00F0
01F0
01F0
FFE0
FFC0
FF00
ENDCHAR
STARTCHAR 03F7
ENCODING 1015
SWIDTH 687 0
DWIDTH 21 0
BBX 17 22 2 0
BITMAP
F80000
F80000
F80000
F80000
FFF800
FFFE00
FFFF00
FFFF80
F81F80
F80F80
F80780
F80780
F80F80
F81F80
FFFF00
FFFF00
FFFE00
FFF800
F80000
F80000
F80000
F80000
ENDCHAR
STARTCHAR 03F8
ENCODING 1016
SWIDTH 621 0
DWIDTH 19 0
BBX 16 28 2 -6
BITMAP
F000
F000
F000
F000
F000
F000
F1F0
F7F8
FFFC
FC3E
F81E
F81F
F01F
F01F
F01F
F01F
F81F
F81E
FC3E
FFFC
F7F8
F1F0
F000
F000
F000
F000
F000
F000
ENDCHAR
STARTCHAR 03F9
ENCODING 1017
SWIDTH 720 0
DWIDTH 22 0
BBX 20 22 1 0
BITMAP
01FC00
07FF00
0FFF80
1FFFC0
3F07E0
3E03E0
7C01F0
7C01C0
780000
780000
F80000
F80000
780000
7801C0
7C01F0
7C01E0
7E03E0
3F07C0
1FFFC0
0FFF80
07FF00
01FC00
ENDCHAR
STARTCHAR 03FA
ENCODING 1018
SWIDTH 850 0
DWIDTH 26 0
BBX 22 22 2 0
BITMAP
FC01FC
FE01FC
FF03FC
FF03FC
FF87FC
F78FFC
F7CF7C
F3FF7C
F1FE7C
F1FC7C
F0FC7C
F0787C
F0007C
F0007C
F0007C
F0007C
F0007C
F0007C
F0007C
F0007C
F0007C
F0007C
ENDCHAR
STARTCHAR 03FB
ENCODING 1019
SWIDTH 752 0
DWIDTH 23 0
BBX 19 22 2 -6
BITMAP
FC07E0
FC07E0
FC07E0
FE0FE0
FE0FE0
FF0FE0
FF1FE0
F71FE0
F79DE0
F7BDE0
F3B9E0
F3F9E0
F3F9E0
F1F1E0
F1F1E0
F0F1E0
F00000
F00000
F00000
F00000
F00000
F00000
ENDCHAR
STARTCHAR 03FC
ENCODING 1020
SWIDTH 621 0
DWIDTH 19 0
BBX 18 22 0 -6
BITMAP
03F800
07FE00
1FFF00
1F0F80
3E0780
3C07C0
3C03C0
3C03C0
3C03C0
3C07C0
3C07C0
3E0780
3F0F80
3FFF00
3FFE00
3CF800
3C0000
FFE000
FFE000
FFE000
3C0000
3C0000
ENDCHAR
STARTCHAR 03FD
ENCODING 1021
SWIDTH 720 0
DWIDTH 22 0
BBX 19 22 2 0
BITMAP
07F000
1FFC00
3FFF00
7FFF80
7E1F80
F807C0
F807C0
3003C0
0003E0
0003E0
0003E0
0003E0
0003E0
3003E0
F003E0
F807C0
F807C0
7E1F80
7FFF80
3FFF00
1FFC00
07F000
ENDCHAR
STARTCHAR 03FE
ENCODING 1022
SWIDTH 720 0
DWIDTH 22 0
BBX 20 22 1 0
BITMAP
01FC00
07FF00
0FFF80
1FFFC0
3F07E0
3E03E0
7C01F0
7C0180
780000
78F800
F8F800
F8F800
78F800
780180
7C01F0
7C01E0
3E03E0
3F07E0
1FFFC0
0FFF80
07FF00
01FC00
ENDCHAR
STARTCHAR 03FF
ENCODING 1023
SWIDTH 720 0
DWIDTH 22 0
BBX 19 22 2 0
BITMAP
07F000
1FFC00
3FFF00
7FFF80
7E1F80
F807C0
F807C0
3003C0
0003E0
01E3E0
01E3E0
01E3E0
01E3E0
3003E0
F003E0
F807C0
F807C0
7E1F80
7FFF80
3FFF00
1FFC00
07F000
ENDCHAR
STARTCHAR 0400
ENCODING 1024
SWIDTH 687 0
DWIDTH 21 0
BBX 17 29 2 0
BITMAP
07C000
03C000
01C000
00E000
00E000
000000
000000
FFFF80
FFFF80
FFFF80
FFFF80
F80000
F80000
F80000
F80000
F80000
FFFF00
FFFF00
FFFF00
FFFF00
F80000
F80000
F80000
F80000
F80000
FFFF80
FFFF80
FFFF80
FFFF80
ENDCHAR
STARTCHAR 0401
ENCODING 1025
SWIDTH 687 0
DWIDTH 21 0
BBX 17 27 2 0
BITMAP
1E3800
1E3800
1E3800
000000
000000
FFFF80
FFFF80
FFFF80
FFFF80
F80000
F80000
F80000
F80000
F80000
FFFF00
FFFF00
FFFF00
FFFF00
F80000
F80000
F80000
F80000
F80000
FFFF80
FFFF80
FFFF80
FFFF80
ENDCHAR
STARTCHAR 0402
ENCODING 1026
SWIDTH 883 0
DWIDTH 27 0
BBX 25 22 1 0
BITMAP
FFFF8000
FFFF8000
FFFF8000
FFFF8000
03E00000
03E00000
03E00000
03E3F000
03FFFC00
03FFFE00
03FFFF00
03FC1F80
03E00F80
03E00780
03E00780
03E00780
03E00F80
03E01F80
03E1FF00
03E1FF00
03E1FC00
03E1F800
ENDCHAR
STARTCHAR 0403
ENCODING 1027
SWIDTH 621 0
DWIDTH 19 0
BBX 16 29 2 0
BITMAP
00F0
01E0
01E0
03C0
0380
0000
0000
FFFF
FFFF
FFFF
FFFF
F800
F800
F800
F800
F800
F800
F800
F800
F800
F800
F800
F800
F800
F800
F800
F800
F800
F800
ENDCHAR
STARTCHAR 0404
ENCODING 1028
SWIDTH 720 0
DWIDTH 22 0
BBX 20 22 1 0
BITMAP
01FC00
07FF00
0FFFC0
1FFFE0
3F07E0
7E03F0
7C0180
780000
780000
FFF000
FFF000
FFF000
FFF000
F80180
7801F0
7C03E0
7E03E0
3F0FC0
1FFFC0
0FFF80
07FF00
01FC00
ENDCHAR
STARTCHAR 0405
ENCODING 1029
SWIDTH 687 0
DWIDTH 21 0
BBX 18 22 1 0
BITMAP
07F800
1FFE00
3FFF00
3FFF80
7C0F80
780780
7C0000
7F0000
7FE000
3FF800
1FFE00
07FF80
01FF80
001FC0
0007C0
F803C0
F807C0
7E0FC0
7FFF80
3FFF80
1FFF00
07F800
ENDCHAR
STARTCHAR 0406
ENCODING 1030
SWIDTH 294 0
DWIDTH 9 0
BBX 5 22 2 0
BITMAP
F8
F8
F8
F8
F8
F8
F8
F8
F8
F8
F8
F8
F8
F8
F8
F8
F8
F8
F8
F8
F8
F8
ENDCHAR
STARTCHAR 0407
ENCODING 1031
SWIDTH 294 0
DWIDTH 9 0
BBX 10 27 -1 0
BITMAP
F1C0
F1C0
F1C0
0000
0000
1F00
1F00
1F00
1F00
1F00
1F00
1F00
1F00
1F00
1F00
1F00
1F00
1F00
1F00
1F00
1F00
1F00
1F00
1F00
1F00
1F00
1F00
ENDCHAR
STARTCHAR 0408
ENCODING 1032
SWIDTH 556 0
DWIDTH 17 0
BBX 14 22 1 0
BITMAP
007C
007C
007C
007C
007C
007C
007C
007C
007C
007C
007C
007C
007C
007C
F07C
F07C
F07C
F8F8
FFF8
7FF0
3FE0
1FC0
ENDCHAR
STARTCHAR 0409
ENCODING 1033
SWIDTH 1112 0
DWIDTH 34 0
BBX 32 22 0 0
BITMAP
1FFFC000
1FFFC000
1FFFC000
1FFFC000
1F03C000
1F03C000
1F03C000
1F03C000
1F03C000
1F03FFF0
1F03FFFC
1F03FFFE
1F03FFFF
1F03C03F
1F03C00F
1F03C00F
1F03C00F
1F03C01F
FF03FFFF
FE03FFFE
FE03FFFC
F803FFF0
ENDCHAR
STARTCHAR 040A
ENCODING 1034
SWIDTH 1080 0
DWIDTH 33 0
BBX 29 22 2 0
BITMAP
F81E0000
F81E0000
F81E0000
F81E0000
F81E0000
F81E0000
F81E0000
F81E0000
F81E0000
FFFFFF80
FFFFFFE0
FFFFFFF0
FFFFFFF8
F81E01F8
F81E0078
F81E0078
F81E0078
F81E01F8
F81FFFF8
F81FFFF0
F81FFFE0
F81FFF80
ENDCHAR
STARTCHAR 040B
ENCODING 1035
SWIDTH 883 0
DWIDTH 27 0
BBX 24 22 1 0
BITMAP
FFFF80
FFFF80
FFFF80
FFFF80
03E000
03E000
03E000
03E7E0
03FFF8
03FFFE
03FFFE
03F03F
03E01F
03E01F
03E01F
03E01F
03E01F
03E01F
03E01F
03E01F
03E01F
03E01F
ENDCHAR
STARTCHAR 040C
ENCODING 1036
SWIDTH 621 0
DWIDTH 19 0
BBX 16 29 2 0
BITMAP
01E0
03C0
03C0
0780
0700
0000
0000
F80F
F83F
F83F
F87C
F878
F8F0
F8F0
F9E0
FBE0
FFC0
FF80
FFE0
F9F0
F9F0
F8F8
F8F8
F87C
F87C
F83E
F83E
F81F
F81F
ENDCHAR
STARTCHAR 040D
ENCODING 1037
SWIDTH 720 0
DWIDTH 22 0
BBX 18 29 2 0
BITMAP
0F8000
078000
038000
01C000
01C000
000000
000000
F807C0
F807C0
F80FC0
F81FC0
F81FC0
F83FC0
F83FC0
F87BC0
F8FBC0
F8F3C0
F9F3C0
F9E3C0
FBC3C0
FBC3C0
FF83C0
FF83C0
FF03C0
FE03C0
FE03C0
FC03C0
FC03C0
F803C0
ENDCHAR
STARTCHAR 040E
ENCODING 1038
SWIDTH 621 0
DWIDTH 19 0
BBX 19 28 0 0
BITMAP
070600
030C00
03FC00
00F000
000000
000000
F803E0
7C03E0
7C03C0
3E07C0
3E0780
1F0F80
0F0F00
0F9F00
079E00
07FE00
03FE00
03FC00
01FC00
01F800
00F800
00F000
01F000
01E000
1FE000
1FC000
1F8000
1F0000
ENDCHAR
STARTCHAR 040F
ENCODING 1039
SWIDTH 720 0
DWIDTH 22 0
BBX 18 28 2 -6
BITMAP
F807C0
F807C0
F807C0
F807C0
F807C0
F807C0
F807C0
F807C0
F807C0
F807C0
F807C0
F807C0
F807C0
F807C0
F807C0
F807C0
F807C0
F807C0
FFFFC0
FFFFC0
FFFFC0
FFFFC0
01E000
01E000
01E000
01E000
01E000
01E000
ENDCHAR
STARTCHAR 0410
ENCODING 1040
SWIDTH 720 0
DWIDTH 22 0
BBX 22 22 0 0
BITMAP
00FC00
00FC00
00FC00
01FE00
01FE00
03DF00
03CF00
03CF00
078F80
078780
0787C0
0F03C0
0F03C0
1FFFE0
1FFFE0
1FFFF0
3FFFF0
3C00F0
7C00F8
7C00F8
78007C
F8007C
ENDCHAR
STARTCHAR 0411
ENCODING 1041
SWIDTH 720 0
DWIDTH 22 0
BBX 19 22 2 0
BITMAP
FFFF80
FFFF80
FFFF80
FFFF80
F80000
F80000
F80000
F80000
F80000
FFFE00
FFFF80
FFFF80
FFFFC0
F807E0
F803E0
F803E0
F803E0
F807E0
FFFFC0
FFFFC0
FFFF80
FFFE00
ENDCHAR
STARTCHAR 0412
ENCODING 1042
SWIDTH 720 0
DWIDTH 22 0
BBX 19 22 2 0
BITMAP
FFFC00
FFFF00
FFFF80
FFFF80
F80FC0
F807C0
F807C0
F80780
F80F80
FFFF00
FFFE00
FFFF00
FFFFC0
F807C0
F803E0
F803E0
F803E0
F807E0
FFFFC0
FFFFC0
FFFF80
FFFE00
ENDCHAR
STARTCHAR 0413
ENCODING 1043
SWIDTH 589 0
DWIDTH 18 0
BBX 16 22 2 0
BITMAP
FFFF
FFFF
FFFF
FFFF
F800
F800
F800
F800
F800
F800
F800
F800
F800
F800
F800
F800
F800
F800
F800
F800
F800
F800
ENDCHAR
STARTCHAR 0414
ENCODING 1044
SWIDTH 720 0
DWIDTH 22 0
BBX 21 27 0 -5
BITMAP
0FFFE0
0FFFE0
0FFFE0
0FFFE0
0F01E0
0F01E0
0F01E0
0F01E0
0F01E0
0F01E0
0F01E0
0F01E0
1F01E0
1F01E0
1E01E0
1E01E0
3E01E0
3E01E0
FFFFF8
FFFFF8
FFFFF8
FFFFF8
F00038
F00038
F00038
F00038
F00038
ENDCHAR
STARTCHAR 0415
ENCODING 1045
SWIDTH 687 0
DWIDTH 21 0
BBX 17 22 2 0
BITMAP
FFFF80
FFFF80
FFFF80
FFFF80
F80000
F80000
F80000
F80000
F80000
FFFF00
FFFF00
FFFF00
FFFF00
F80000
F80000
F80000
F80000
F80000
FFFF80
FFFF80
FFFF80
FFFF80
ENDCHAR
STARTCHAR 0416
ENCODING 1046
SWIDTH 916 0
DWIDTH 28 0
BBX 26 22 1 0
BITMAP
F01E03C0
F81E0FC0
FC1E0FC0
3E1E1F00
1E1E1E00
0F1E3C00
0F1E3C00
079E7800
079E7800
03FFF000
01FFE000
07FFF800
0F9E7C00
0F9E7C00
1F1E3E00
3F1E3F00
3E1E1F00
7E1E1F00
7C1E0F80
7C1E0F80
F81E07C0
F81E07C0
ENDCHAR
STARTCHAR 0417
ENCODING 1047
SWIDTH 621 0
DWIDTH 19 0
BBX 17 22 1 0
BITMAP
07F000
1FFC00
3FFE00
7FFF00
7C3F00
F81F00
381F00
001E00
003C00
01F800
01FC00
01FE00
003F00
000F00
000F80
300F80
F00F80
FC1F00
7FFF00
7FFE00
3FFC00
0FF000
ENDCHAR
STARTCHAR 0418
ENCODING 1048
SWIDTH 720 0
DWIDTH 22 0
BBX 18 22 2 0
BITMAP
F807C0
F807C0
F80FC0
F81FC0
F81FC0
F83FC0
F83FC0
F87BC0
F8FBC0
F8F3C0
F9F3C0
F9E3C0
FBC3C0
FBC3C0
FF83C0
FF83C0
FF03C0
FE03C0
FE03C0
FC03C0
FC03C0
F803C0
ENDCHAR
STARTCHAR 0419
ENCODING 1049
SWIDTH 720 0
DWIDTH 22 0
BBX 18 28 2 0
BITMAP
0E0C00
061800
07F800
01E000
000000
000000
F807C0
F807C0
F80FC0
F81FC0
F81FC0
F83FC0
F83FC0
F87BC0
F8FBC0
F8F3C0
F9F3C0
F9E3C0
FBC3C0
FBC3C0
FF83C0
FF83C0
FF03C0
FE03C0
FE03C0
FC03C0
FC03C0
F803C0
ENDCHAR
STARTCHAR 041A
ENCODING 1050
SWIDTH 621 0
DWIDTH 19 0
BBX 16 22 2 0
BITMAP
F80F
F83F
F83F
F87C
F878
F8F0
F8F0
F9E0
FBE0
FFC0
FF80
FFE0
F9F0
F9F0
F8F8
F8F8
F87C
F87C
F83E
F83E
F81F
F81F
ENDCHAR
STARTCHAR 041B
ENCODING 1051
SWIDTH 720 0
DWIDTH 22 0
BBX 19 22 0 0
BITMAP
0FFFE0
0FFFE0
0FFFE0
0FFFE0
0F01E0
0F01E0
0F01E0
0F01E0
0F01E0
0F01E0
0F01E0
0F01E0
0F01E0
0F01E0
0F01E0
0F01E0
0F01E0
1F01E0
FF01E0
FF01E0
FE01E0
FC01E0
ENDCHAR
STARTCHAR 041C
ENCODING 1052
SWIDTH 850 0
DWIDTH 26 0
BBX 22 22 2 0
BITMAP
FE01FC
FE01FC
FF03FC
FF03FC
FF03FC
F707FC
F787FC
F787FC
F787FC
F38F7C
F3CF7C
F3CF7C
F3CE7C
F1FE7C
F1FE7C
F1FE7C
F1FC7C
F0FC7C
F0FC7C
F0FC7C
F0F87C
F0787C
ENDCHAR
STARTCHAR 041D
ENCODING 1053
SWIDTH 720 0
DWIDTH 22 0
BBX 18 22 2 0
BITMAP
F803C0
F803C0
F803C0
F803C0
F803C0
F803C0
F803C0
F803C0
F803C0
FFFFC0
FFFFC0
FFFFC0
FFFFC0
F803C0
F803C0
F803C0
F803C0
F803C0
F803C0
F803C0
F803C0
F803C0
ENDCHAR
STARTCHAR 041E
ENCODING 1054
SWIDTH 785 0
DWIDTH 24 0
BBX 22 22 1 0
BITMAP
01FE00
07FF80
0FFFC0
1FFFE0
3F03F0
7E01F8
7C00F8
7C0078
78007C
F8007C
F8007C
F8007C
F8007C
78007C
7C0078
7C00F8
7E01F8
3F83F0
1FFFF0
0FFFE0
07FF80
01FE00
ENDCHAR
STARTCHAR 041F
ENCODING 1055
SWIDTH 720 0
DWIDTH 22 0
BBX 18 22 2 0
BITMAP
FFFFC0
FFFFC0
FFFFC0
FFFFC0
F807C0
F807C0
F807C0
F807C0
F807C0
F807C0
F807C0
F807C0
F807C0
F807C0
F807C0
F807C0
F807C0
F807C0
F807C0
F807C0
F807C0
F807C0
ENDCHAR
STARTCHAR 0420
ENCODING 1056
SWIDTH 687 0
DWIDTH 21 0
BBX 17 22 2 0
BITMAP
FFF800
FFFE00
FFFF00
FFFF80
F81F80
F80F80
F80780
F80780
F80F80
F81F80
FFFF00
FFFF00
FFFE00
FFF800
F80000
F80000
F80000
F80000
F80000
F80000
F80000
F80000
ENDCHAR
STARTCHAR 0421
ENCODING 1057
SWIDTH 720 0
DWIDTH 22 0
BBX 20 22 1 0
BITMAP
01FC00
07FF00
0FFF80
1FFFC0
3F07E0
3E03E0
7C01F0
7C01C0
780000
780000
F80000
F80000
780000
7801C0
7C01F0
7C01E0
7E03E0
3F07C0
1FFFC0
0FFF80
07FF00
01FC00
ENDCHAR
STARTCHAR 0422
ENCODING 1058
SWIDTH 621 0
DWIDTH 19 0
BBX 17 22 1 0
BITMAP
FFFF80
FFFF80
FFFF80
FFFF80
03E000
03E000
03E000
03E000
03E000
03E000
03E000
03E000
03E000
03E000
03E000
03E000
03E000
03E000
03E000
03E000
03E000
03E000
ENDCHAR
STARTCHAR 0423
ENCODING 1059
SWIDTH 621 0
DWIDTH 19 0
BBX 19 22 0 0
BITMAP
F803E0
7C03E0
7C03C0
3E07C0
3E0780
1F0F80
0F0F00
0F9F00
079E00
07FE00
03FE00
03FC00
01FC00
01F800
00F800
00F000
01F000
01E000
1FE000
1FC000
1F8000
1F0000
ENDCHAR
STARTCHAR 0424
ENCODING 1060
SWIDTH 850 0
DWIDTH 26 0
BBX 24 22 1 0
BITMAP
003C00
003C00
01FFC0
0FFFF8
1FFFFC
3FFFFE
7E3C7E
7C3C1F
783C1F
F83C0F
F83C0F
F83C0F
783C1F
7C3C1F
7E3C7E
3FFFFE
1FFFFC
0FFFF8
03FFC0
003C00
003C00
003C00
ENDCHAR
STARTCHAR 0425
ENCODING 1061
SWIDTH 687 0
DWIDTH 21 0
BBX 20 22 0 0
BITMAP
7C03F0
3E03E0
3F07C0
1F0FC0
0F8F80
0FDF00
07FF00
03FE00
03FC00
01FC00
00F800
01FC00
03FC00
03FE00
07FF00
0FDF00
0F8F80
1F0FC0
3F07C0
3E03E0
7C03F0
FC01F0
ENDCHAR
STARTCHAR 0426
ENCODING 1062
SWIDTH 752 0
DWIDTH 23 0
BBX 20 27 2 -5
BITMAP
F807C0
F807C0
F807C0
F807C0
F807C0
F807C0
F807C0
F807C0
F807C0
F807C0
F807C0
F807C0
F807C0
F807C0
F807C0
F807C0
F807C0
F807C0
FFFFF0
FFFFF0
FFFFF0
FFFFF0
0000F0
0000F0
0000F0
0000F0
0000F0
ENDCHAR
STARTCHAR 0427
ENCODING 1063
SWIDTH 720 0
DWIDTH 22 0
BBX 17 22 2 0
BITMAP
F00780
F00780
F00780
F00780
F00780
F00780
F00780
F00780
F80780
FC0F80
FFFF80
7FFF80
3FFF80
0FE780
000780
000780
000780
000780
000780
000780
000780
000780
ENDCHAR
STARTCHAR 0428
ENCODING 1064
SWIDTH 1014 0
DWIDTH 31 0
BBX 27 22 2 0
BITMAP
F81F03E0
F81F03E0
F81F03E0
F81F03E0
F81F03E0
F81F03E0
F81F03E0
F81F03E0
F81F03E0
F81F03E0
F81F03E0
F81F03E0
F81F03E0
F81F03E0
F81F03E0
F81F03E0
F81F03E0
F81F03E0
FFFFFFE0
FFFFFFE0
FFFFFFE0
FFFFFFE0
ENDCHAR
STARTCHAR 0429
ENCODING 1065
SWIDTH 1047 0
DWIDTH 32 0
BBX 29 27 2 -5
BITMAP
F81F03E0
F81F03E0
F81F03E0
F81F03E0
F81F03E0
F81F03E0
F81F03E0
F81F03E0
F81F03E0
F81F03E0
F81F03E0
F81F03E0
F81F03E0
F81F03E0
F81F03E0
F81F03E0
F81F03E0
F81F03E0
FFFFFFF8
FFFFFFF8
FFFFFFF8
FFFFFFF8
00000078
00000078
00000078
00000078
00000078
ENDCHAR
STARTCHAR 042A
ENCODING 1066
SWIDTH 883 0
DWIDTH 27 0
BBX 26 22 0 0
BITMAP
FFE00000
FFE00000
FFE00000
FFE00000
01E00000
01E00000
01E00000
01E00000
01E00000
01FFF800
01FFFE00
01FFFF00
01FFFF80
01E01F80
01E00780
01E007C0
01E00780
01E00F80
01FFFF80
01FFFF00
01FFFE00
01FFFC00
ENDCHAR
STARTCHAR 042B
ENCODING 1067
SWIDTH 981 0
DWIDTH 30 0
BBX 26 22 2 0
BITMAP
F80007C0
F80007C0
F80007C0
F80007C0
F80007C0
F80007C0
F80007C0
F80007C0
F80007C0
FFFC07C0
FFFF07C0
FFFF87C0
FFFFC7C0
F807E7C0
F803E7C0
F803E7C0
F803E7C0
F807E7C0
FFFFC7C0
FFFFC7C0
FFFF87C0
FFFE07C0
ENDCHAR
STARTCHAR 042C
ENCODING 1068
SWIDTH 720 0
DWIDTH 22 0
BBX 19 22 2 0
BITMAP
F80000
F80000
F80000
F80000
F80000
F80000
F80000
F80000
F80000
FFFE00
FFFF00
FFFF80
FFFFC0
F807E0
F803E0
F803E0
F803E0
F807E0
FFFFC0
FFFFC0
FFFF80
FFFE00
ENDCHAR
STARTCHAR 042D
ENCODING 1069
SWIDTH 720 0
DWIDTH 22 0
BBX 20 22 1 0
BITMAP
03F800
0FFE00
1FFF00
3FFF80
7E0FC0
7C07E0
F803E0
1801E0
0001E0
00FFF0
00FFF0
00FFF0
00FFF0
1801F0
F801E0
7C03E0
7C07E0
3F0FC0
3FFF80
1FFF80
0FFE00
03F800
ENDCHAR
STARTCHAR 042E
ENCODING 1070
SWIDTH 1047 0
DWIDTH 32 0
BBX 29 22 2 0
BITMAP
F801FC00
F807FF00
F81FFF80
F83FFFC0
F83F07E0
F87E03F0
F87C01F0
F87801F0
F8F800F0
FFF800F0
FFF800F8
FFF800F8
FFF800F0
F8F800F0
F87801F0
F87C01F0
F87E03F0
F83F07E0
F83FFFC0
F81FFF80
F807FF00
F801FC00
ENDCHAR
STARTCHAR 042F
ENCODING 1071
SWIDTH 720 0
DWIDTH 22 0
BBX 20 22 0 0
BITMAP
03FFF0
0FFFF0
1FFFF0
3FFFF0
3F00F0
3E00F0
3C00F0
3E00F0
3F00F0
1FFFF0
1FFFF0
07FFF0
00FFF0
03F0F0
07E0F0
0FC0F0
0F80F0
1F00F0
3F00F0
3E00F0
7C00F0
FC00F0
ENDCHAR
STARTCHAR 0430
ENCODING 1072
SWIDTH 556 0
DWIDTH 17 0
BBX 15 16 1 0
BITMAP
0FE0
3FF8
7FFC
787C
383C
003C
00FC
0FFC
3FFC
7F3C
F83C
F03C
F87C
7FFC
7FDE
1F1E
ENDCHAR
STARTCHAR 0431
ENCODING 1073
SWIDTH 621 0
DWIDTH 19 0
BBX 17 23 1 0
BITMAP
000700
03FF00
0FFF00
3FFC00
3C0000
780000
700000
73F000
67FC00
EFFE00
FE3E00
FC1F00
F80F00
F80F80
F80F80
780F80
780F80
780F00
7C1F00
3E3E00
3FFE00
0FFC00
07F000
ENDCHAR
ENDFONT
